<svg xmlns="http://www.w3.org/2000/svg" width="265.892" height="93.643" viewBox="0 0 265.892 93.643"><g data-name="Group 84"><g fill="#fc4c02" clip-path="url(#a)" data-name="Group 83"><path d="m55.583.296-8.94 5.237v21.1l-14.054-7.72L.5 37.559l-.178.1v37.077l32.271 18.609 32.27-18.609v-69.5Zm.026.823 8.167 4.346-8.175 4.747-7.888-4.468Zm-8.233 37.363V6.376l8.05 4.542v58.085l-8.123-4.883V48.157l-14.344-8.338-.328-.2-.329.191-13.832 7.586v16.582l-8.3 5.161-.035-25.743 22.166-12.945.29-.167.467.258Zm-14.78 34.3 14.375-8.049 8.06 4.888-22.428 12.4-22.117-12.254 8.316-5.169Zm-13.395-8.809V47.822l13.428-7.383 14.013 8.134v15.54l-14 7.846Zm44.93 10.348L32.593 92.515 1.054 74.321V38.076l31.55-18.338 14.038 7.713v9.8l-14.051-7.846L9.376 42.983l.038 27.013 23.173 12.855 23.495-13v-59.1l8.049-4.674Z" data-name="Path 38"/><path d="M32.593 93.643.064 74.885V37.513l.307-.178 32.215-18.719 13.8 7.582V5.385l9.191-5.386 9.541 5.081v69.8l-.129.074ZM.58 74.586l32.013 18.461 32.012-18.461V5.39L55.589.592l-8.688 5.089v21.39l-14.308-7.862L.58 37.81Zm32.013 18.226L.796 74.469V37.927l31.805-18.486 14.3 7.861v10.397l-14.307-8L9.638 43.131l.037 26.713 22.913 12.707 23.236-12.852v-59.1l8.566-4.974v68.844l-.129.075ZM1.312 74.171l31.281 18.045 31.28-18.045V6.525l-7.532 4.374v59.105L32.588 83.142 9.159 70.149l-.041-27.314 23.47-13.728 13.8 7.71v-9.209l-13.78-7.574-31.296 18.19ZM32.6 82.318l-.125-.069-22.5-12.47 8.825-5.48.135.08 13.663 8.109 14.376-8.05 8.57 5.2ZM11 69.754l21.6 11.974 21.918-12.114-7.55-4.578-14.378 8.048-.128-.076-13.656-8.109Zm21.64 2.5-13.697-8.135v-16.45l.134-.073 13.556-7.454 14.268 8.281v15.84Zm-13.18-8.429 13.184 7.835 13.741-7.7V48.72l-13.759-7.985-13.167 7.24Zm-9.551 5.774-.035-26.356 22.714-13.26.594.329 13.936 7.731V5.933l8.566 4.833v58.693l-8.639-5.194v-15.96L32.83 40.042l-.2-.121-.2.115-13.702 7.513v16.572Zm.482-26.06.034 25.131 7.788-4.841V47.243l.134-.073 13.831-7.584.454-.264.13.076c.113.066.332.2.332.2l14.466 8.411v15.964l7.606 4.573V11.068l-7.533-4.25v32.1l-15.04-8.342-.163.094Zm45.21-33.033-8.4-4.763 8.402-4.92 8.7 4.632Zm-7.37-4.771 7.367 4.175 7.646-4.44-7.626-4.056Z" data-name="Path 39"/><path d="m.354 38.069.355-.602 9.334 5.507-.356.602z" data-name="Rectangle 35"/><path d="M9.778 43.93 0 38.161l.618-1.047 9.782 5.765ZM.707 37.979 9.6 43.223l.093-.158L.8 37.821Z" data-name="Path 40"/><path d="M32.262 82.261h.699v10.74h-.699z" data-name="Rectangle 36"/><path d="M33.219 93.259h-1.216V82.002h1.216Zm-.7-.516h.183V82.519h-.183Z" data-name="Path 41"/></g></g><g data-name="Group 123"><g data-name="Group 120"><g fill="#fff" clip-path="url(#b)" data-name="Group 119" transform="translate(86.545 26.077)"><path d="M14.781 0a10.756 10.756 0 0 1 10.505 10.43v.985a10.68 10.68 0 0 1-2.608 6.579 13 13 0 0 1-2.638 2.228 10.9 10.9 0 0 1-5.26 1.516H.076A.067.067 0 0 1 0 21.663V3.866q.015-.075.076-.076H4.2q.075.015.076.076v13.6h10.4a6.46 6.46 0 0 0 5.291-2.941 6.86 6.86 0 0 0 1.092-3.669 6.6 6.6 0 0 0-3.169-5.64 6.5 6.5 0 0 0-3.214-.94H.076A.067.067 0 0 1 0 4.2V.076Q.015 0 .076 0Z" data-name="Path 119"/><path d="M49.599 0a5.787 5.787 0 0 1 5.594 5.488v3.123a5.75 5.75 0 0 1-2.3 4.351 6.28 6.28 0 0 1-3.9 1.213l6.079 7.625-5.366-.03-6.2-7.6h-9.748q-.015 0-.015-.076V9.975q.015-.076.076-.076h15.22a1.78 1.78 0 0 0 1.743-.91 13.4 13.4 0 0 0 .182-3.092 1.63 1.63 0 0 0-1.243-1.592 1.6 1.6 0 0 0-.3-.03H34.182v17.388a.067.067 0 0 1-.076.076h-4.123a.067.067 0 0 1-.076-.076V.076Q29.922 0 29.983 0Z" data-name="Path 120"/><path d="M85.024 0q.076.015.076.076V4.2a.067.067 0 0 1-.076.076H70.471a6.51 6.51 0 0 0-6.382 6.382v.424a6.4 6.4 0 0 0 2.608 5.064 6.27 6.27 0 0 0 3.745 1.319h14.583q.075.015.076.076v4.123a.067.067 0 0 1-.076.076h-14.7a10.6 10.6 0 0 1-7.034-2.88 11.5 11.5 0 0 1-2.38-3.169 10.7 10.7 0 0 1-1.091-4.5v-.637a10.58 10.58 0 0 1 3.32-7.519A10.6 10.6 0 0 1 70.365 0Zm.076 12.885H63.589V8.716H85.1Z" data-name="Path 121"/><path d="M105.228 0q.045.015 10.763 21.708l-.076.03h-4.714l-1.94-3.669-12.78-.015-2.031 3.684h-4.654l-.076-.03L100.453 0Zm-2.4 4.821-4.472 9.156 9.156.046Z" data-name="Path 122"/><path d="M124.812 0a32 32 0 0 1 2.092 3.638q.409.637 7.534 13.371h.03Q142.458 2.729 144.05 0h4.169q.076.015.076.076v21.587a.067.067 0 0 1-.076.076h-4.12a.067.067 0 0 1-.076-.076V8.747h-.046q-.122.318-7.261 12.961l-.076.03h-4.366q-.682-.985-3.547-6.246-.076-.045-3.79-6.7h-.045v12.871a.067.067 0 0 1-.076.076h-4.127a.067.067 0 0 1-.076-.076V.076q.015-.076.076-.076Z" data-name="Path 123"/><path d="M178.246 0q.076.015.076.076V4.2a.067.067 0 0 1-.076.076h-19.54q-1.486 0-1.516 2.213 0 2.259 1.591 2.259h12.628a7.84 7.84 0 0 1 3.979.841 6.26 6.26 0 0 1 2.085 2.38 6.86 6.86 0 0 1 .849 3.282v.258a6.7 6.7 0 0 1-.69 3.206 5.8 5.8 0 0 1-2.061 2.153 7.64 7.64 0 0 1-4.055.872h-18.452a.067.067 0 0 1-.076-.076V17.54q.015-.076.076-.076h19.131q1.834 0 1.85-2.107 0-2.32-1.744-2.32l-13.082-.015a6.08 6.08 0 0 1-4.381-1.561 5.67 5.67 0 0 1-1.925-4.078V6.9a6.93 6.93 0 0 1 2.881-6.112A6 6 0 0 1 158.629 0Z" data-name="Path 124"/></g></g><path fill="#fff" d="M87.828 56.246h1.122v11.208h-1.122z" data-name="Rectangle 82"/><path fill="#fff" d="M102.611 56.25v9.413l-6.205-9.413h-1.123v11.2h1.122v-9.424l6.206 9.424h1.122v-11.2Z" data-name="Path 125"/><g data-name="Group 122"><g fill="#fff" clip-path="url(#b)" data-name="Group 121" transform="translate(86.545 26.077)"><path d="M23.731 32.806a5.24 5.24 0 0 1 1.972-2.036 5.44 5.44 0 0 1 2.79-.729 5.67 5.67 0 0 1 3.215.89 5.06 5.06 0 0 1 1.948 2.509h-1.314a3.86 3.86 0 0 0-1.467-1.78 4.65 4.65 0 0 0-4.6-.064 4 4 0 0 0-1.547 1.659 5.87 5.87 0 0 0 0 5.011 4 4 0 0 0 1.547 1.652 4.68 4.68 0 0 0 4.6-.056 3.8 3.8 0 0 0 1.467-1.756h1.315a5 5 0 0 1-1.956 2.489 5.7 5.7 0 0 1-3.207.882 5.43 5.43 0 0 1-2.79-.73 5.25 5.25 0 0 1-1.972-2.028 6.41 6.41 0 0 1 0-5.909" data-name="Path 126"/><path d="M41.883 40.759a5.26 5.26 0 0 1-2-2.036 6.37 6.37 0 0 1 0-5.917 5.26 5.26 0 0 1 2-2.036 5.86 5.86 0 0 1 5.66 0 5.2 5.2 0 0 1 1.988 2.036 6.43 6.43 0 0 1 0 5.917 5.2 5.2 0 0 1-1.988 2.036 5.85 5.85 0 0 1-5.66 0m5.071-.826a4.1 4.1 0 0 0 1.572-1.66 5.73 5.73 0 0 0 0-5.011 4.1 4.1 0 0 0-1.572-1.651 4.66 4.66 0 0 0-4.49 0 4.1 4.1 0 0 0-1.571 1.651 5.73 5.73 0 0 0 0 5.011 4.1 4.1 0 0 0 1.571 1.66 4.65 4.65 0 0 0 4.49 0" data-name="Path 127"/><path d="m62.054 41.373-2.774-4.682h-2.068v4.682H56.09v-11.2h3.367a4.05 4.05 0 0 1 2.846.9 3.06 3.06 0 0 1 .97 2.357 3.2 3.2 0 0 1-.7 2.076 3.34 3.34 0 0 1-2.06 1.114l2.886 4.762Zm-4.843-5.6h2.261a2.75 2.75 0 0 0 1.98-.641 2.27 2.27 0 0 0 .666-1.716 2.23 2.23 0 0 0-.641-1.708 2.88 2.88 0 0 0-2.021-.6h-2.245Z" data-name="Path 128"/><path d="M75.506 35.717a4.03 4.03 0 0 1-2.838.882h-2.261v4.774h-1.122v-11.2h3.383a4.04 4.04 0 0 1 2.83.882 3.34 3.34 0 0 1 .008 4.666m-.208-2.325a2.2 2.2 0 0 0-.626-1.7 2.9 2.9 0 0 0-2-.577h-2.261v4.521h2.261q2.63 0 2.63-2.245" data-name="Path 129"/><path d="M84.326 40.759a5.26 5.26 0 0 1-2-2.036 6.37 6.37 0 0 1 0-5.917 5.26 5.26 0 0 1 2-2.036 5.86 5.86 0 0 1 5.66 0 5.2 5.2 0 0 1 1.988 2.036 6.43 6.43 0 0 1 0 5.917 5.2 5.2 0 0 1-1.988 2.036 5.85 5.85 0 0 1-5.66 0m5.067-.826a4.1 4.1 0 0 0 1.572-1.66 5.73 5.73 0 0 0 0-5.011 4.1 4.1 0 0 0-1.572-1.651 4.66 4.66 0 0 0-4.49 0 4.1 4.1 0 0 0-1.571 1.651 5.73 5.73 0 0 0 0 5.011 4.1 4.1 0 0 0 1.571 1.66 4.65 4.65 0 0 0 4.49 0" data-name="Path 130"/><path d="m104.498 41.373-2.774-4.682h-2.068v4.682h-1.122v-11.2h3.367a4.05 4.05 0 0 1 2.846.9 3.06 3.06 0 0 1 .97 2.357 3.2 3.2 0 0 1-.7 2.076 3.34 3.34 0 0 1-2.061 1.114l2.886 4.762Zm-4.843-5.6h2.261a2.75 2.75 0 0 0 1.98-.641 2.27 2.27 0 0 0 .666-1.716 2.23 2.23 0 0 0-.642-1.708 2.88 2.88 0 0 0-2.02-.6h-2.245Z" data-name="Path 131"/><path d="M118.223 38.715h-5.1l-.978 2.662h-1.187l4.089-11.064h1.267l4.073 11.064H119.2Zm-.337-.93-2.212-6.063-2.213 6.061Z" data-name="Path 132"/><path d="M132.478 30.843a4.7 4.7 0 0 1 2.036 1.94 6.1 6.1 0 0 1 .706 3.014 6 6 0 0 1-.706 2.99 4.67 4.67 0 0 1-2.036 1.924 7.1 7.1 0 0 1-3.191.666h-3.319V30.173h3.319a7 7 0 0 1 3.191.674m.377 8.378a4.63 4.63 0 0 0 1.227-3.424 4.7 4.7 0 0 0-1.227-3.455 4.8 4.8 0 0 0-3.568-1.243h-2.195v9.348h2.2a4.83 4.83 0 0 0 3.568-1.227" data-name="Path 133"/><path d="M143.285 40.759a5.26 5.26 0 0 1-2-2.036 6.37 6.37 0 0 1 0-5.917 5.26 5.26 0 0 1 2-2.036 5.86 5.86 0 0 1 5.66 0 5.2 5.2 0 0 1 1.988 2.036 6.43 6.43 0 0 1 0 5.917 5.2 5.2 0 0 1-1.988 2.036 5.85 5.85 0 0 1-5.66 0m5.067-.826a4.1 4.1 0 0 0 1.572-1.66 5.73 5.73 0 0 0 0-5.011 4.1 4.1 0 0 0-1.572-1.651 4.66 4.66 0 0 0-4.49 0 4.1 4.1 0 0 0-1.571 1.651 5.73 5.73 0 0 0 0 5.011 4.1 4.1 0 0 0 1.571 1.66 4.65 4.65 0 0 0 4.49 0" data-name="Path 134"/><path d="m163.457 41.373-2.774-4.682h-2.068v4.682h-1.122v-11.2h3.367a4.05 4.05 0 0 1 2.846.9 3.06 3.06 0 0 1 .97 2.357 3.2 3.2 0 0 1-.7 2.076 3.34 3.34 0 0 1-2.061 1.114l2.886 4.762Zm-4.843-5.6h2.261a2.75 2.75 0 0 0 1.98-.641 2.27 2.27 0 0 0 .666-1.716 2.23 2.23 0 0 0-.642-1.708 2.88 2.88 0 0 0-2.02-.6h-2.245Z" data-name="Path 135"/><path d="M177.182 38.715h-5.1l-.978 2.662h-1.19l4.089-11.064h1.267l4.073 11.064h-1.187Zm-.337-.93-2.213-6.063-2.213 6.061Z" data-name="Path 136"/></g></g></g></svg>