<svg xmlns="http://www.w3.org/2000/svg" width="53" height="48" fill="none" viewBox="0 0 53 48"><path stroke="#1f2224" stroke-miterlimit="10" d="M5.073 31.126H1v-9.771h4.644a21.1 21.1 0 0 1 2.582-6.228l-3.26-3.257 6.886-6.933 3.26 3.26a21.1 21.1 0 0 1 6.26-2.557V1h9.775v4.642a21.1 21.1 0 0 1 6.232 2.58l3.26-3.257 6.937 6.881-3.262 3.257a21.1 21.1 0 0 1 2.559 6.257h4.643v9.77h-4.073m1.502 4.866h-8.461m11.846 0h-1.692m1.692 5.073h-3.384"/><path stroke="#1f2224" stroke-miterlimit="10" d="M26.257 22.17v4.072h-2.443m-3.636-.392h-1.692m13.539 0h-1.692m-3.386 5.073h-1.692"/><path stroke="#1f2224" stroke-miterlimit="10" d="M27.977 10.045a16.3 16.3 0 0 1 10.688 5.624 16.277 16.277 0 0 1-1.186 22.39 16.3 16.3 0 0 1-11.222 4.466H7.511v2.442l-5.703-5.7 5.703-5.698v2.444h18.746"/><path stroke="#1f2224" stroke-miterlimit="10" d="M13.226 36.01a16.28 16.28 0 0 1 3.964-23.266 16.3 16.3 0 0 1 8.254-2.746V7.514l5.702 5.699-5.702 5.698V16.51a9.78 9.78 0 0 0-6.472 3.186 9.767 9.767 0 0 0 .276 13.4 9.781 9.781 0 0 0 16.707-5.89 9.77 9.77 0 0 0-1.993-6.929 9.78 9.78 0 0 0-6.205-3.677m18.056 25.959H26.258m26.072 3.583h-1.692m-1.693 0h-8.461m.001 0H20.178m-1.692 0h-8.461"/></svg>