<svg xmlns="http://www.w3.org/2000/svg" width="46" height="46" fill="none" viewBox="0 0 46 46"><path fill="#1f2224" d="M.106 37.547q.051.222.135.433c.022.054.055.1.081.154a2.8 2.8 0 0 0 1.385 1.4c.06.03.113.069.173.094q.206.08.421.129c.054.013.102.036.158.046q.3.061.61.063h20.697v-1.534h-20.7q-.155 0-.306-.032c-.036 0-.071-.022-.107-.032a2 2 0 0 1-.174-.056 2 2 0 0 1-.154-.083c-.034-.02-.07-.035-.104-.057a1.6 1.6 0 0 1-.42-.42c-.03-.044-.05-.094-.076-.141a1 1 0 0 1-.065-.121 1.4 1.4 0 0 1-.06-.198c0-.03-.02-.059-.028-.09a1.534 1.534 0 0 1 1.501-1.839h2.295a.767.767 0 0 0 .767-.767V7.666h26.837V6.133H6.132V2.3a.767.767 0 0 0-.764-.767H3.066A3.066 3.066 0 0 0 0 4.599v32.205q0 .31.062.613c.01.044.031.089.044.13M1.534 4.6a1.534 1.534 0 0 1 1.534-1.534h1.534v30.673H3.066c-.538 0-1.068.141-1.534.412z"/><path fill="#1f2224" d="m20.865 17.376-1.634-2.045h6.837V13.8h-8.434a.77.77 0 0 0-.587.279s-.008 0-.012.008l-6.127 7.667a.8.8 0 0 0-.1.174v.013a.8.8 0 0 0-.055.265v9.231a.77.77 0 0 0 .768.767h19.913V30.67h-6.9V23H35.27v4.6h1.534v-5.4a.8.8 0 0 0-.053-.264s0-.012-.01-.017a.8.8 0 0 0-.1-.174l-2.299-2.877-1.198.957 1.304 1.633H24.136zm-3.23-1.584 3.024 3.781 1.513 1.891h-9.076zm-5.368 7.206h10.735v7.667H20.7v-5.367a.766.766 0 0 0-.767-.767h-4.6a.766.766 0 0 0-.766.767v5.367h-2.3zm3.835 7.667v-4.598h3.066v4.6z"/><path fill="#1f2224" d="M28.367 24.532a.767.767 0 0 0-.767.767v3.067a.767.767 0 0 0 .767.767h3.066a.767.767 0 0 0 .768-.767v-3.067a.767.767 0 0 0-.768-.767zm2.3 3.067h-1.535v-1.534h1.534zm14.86-6.839a.77.77 0 0 0-.836.172l-23.766 23.76A.768.768 0 0 0 21.467 46h23.766a.767.767 0 0 0 .767-.767V21.467a.77.77 0 0 0-.473-.708m-1.06 23.708h-21.15l21.15-21.15z"/><path fill="#1f2224" d="M32.26 40.926a.77.77 0 0 0 .708.472h7.666a.767.767 0 0 0 .768-.767v-7.665a.767.767 0 0 0-1.31-.542l-7.666 7.667a.77.77 0 0 0-.173.836zm7.608-6.11v5.048h-5.05zM42.709.224a.767.767 0 0 0-1.084 0l-13.8 13.8a.8.8 0 0 0-.185.3l-.767 2.297a.77.77 0 0 0 .185.785l.225.225-1.759 1.76 1.084 1.084 1.758-1.757.225.225a.77.77 0 0 0 .784.185l2.3-.767a.8.8 0 0 0 .299-.185l13.8-13.8a.767.767 0 0 0 0-1.084zm-12.875 13.96 3.132-3.133 1.983 1.983-3.133 3.132zm-.488 3.34-.866-.867.415-1.248 1.697 1.695zm6.686-5.578-1.982-1.98 8.108-8.116 1.991 1.983zM7.668 32.2v2.298a.767.767 0 0 0 .767.768h2.3V33.73H9.2V32.2zm3.066-23h-2.3a.767.767 0 0 0-.766.767v2.3h1.534v-1.534h1.534z"/></svg>