<svg xmlns="http://www.w3.org/2000/svg" width="50" height="51" fill="none" viewBox="0 0 50 51"><path fill="#1f2224" d="M46.075 19.324v-.81a15.354 15.354 0 0 0-12.16-15.042V1.49a.81.81 0 0 0-.81-.81H28.24a.81.81 0 0 0-.81.81v1.976a15.3 15.3 0 0 0-10.097 7.348l1.404.81a13.7 13.7 0 0 1 4.64-4.782v3.566H25V5.971a13.6 13.6 0 0 1 2.432-.827v7.697a.81.81 0 0 0 .81.81h4.864a.81.81 0 0 0 .81-.81V5.126c.835.2 1.65.48 2.432.835v4.447h1.62V6.821a14 14 0 0 1 2.45 1.945 13.72 13.72 0 0 1 4.035 9.746v.81h-2.436v-3.24a.81.81 0 0 0-.81-.81h-4.86a.81.81 0 0 0-.81.81v2.432h1.62v-1.621H40.4v2.431h-2.43v1.62h8.105a1.622 1.622 0 1 1 0 3.244H34.727v1.62h11.349a3.245 3.245 0 0 0 0-6.488zm-13.78-7.295H29.05V2.3h3.244z"/><path fill="#1f2224" d="M1.49 35.537h3.83a14.4 14.4 0 0 0 1.238 2.982l-2.716 2.717a.81.81 0 0 0 0 1.146l4.586 4.587a.81.81 0 0 0 1.147 0l2.716-2.717a14.5 14.5 0 0 0 2.982 1.238v3.828a.81.81 0 0 0 .81.81h6.49a.81.81 0 0 0 .81-.81v-3.83c1.038-.3 2.038-.714 2.983-1.237l2.716 2.716a.81.81 0 0 0 1.147 0l4.586-4.586a.81.81 0 0 0 0-1.147L32.1 38.517c.523-.944.938-1.944 1.238-2.982h3.828a.81.81 0 0 0 .81-.81v-6.49a.81.81 0 0 0-.81-.81H33.33a14.4 14.4 0 0 0-1.238-2.982l2.717-2.716a.81.81 0 0 0 0-1.147l-4.594-4.571a.81.81 0 0 0-1.147 0l-2.716 2.716a14.4 14.4 0 0 0-2.982-1.238V13.65a.81.81 0 0 0-.806-.81h-6.49a.81.81 0 0 0-.81.81v3.828a14.4 14.4 0 0 0-2.982 1.238l-2.697-2.707a.81.81 0 0 0-1.147 0L3.85 20.593a.81.81 0 0 0 0 1.147l2.717 2.717a14.4 14.4 0 0 0-1.238 2.982H1.49a.81.81 0 0 0-.81.803v6.489a.81.81 0 0 0 .81.806m.81-6.49h3.644a.81.81 0 0 0 .788-.62 12.9 12.9 0 0 1 1.531-3.693.81.81 0 0 0-.117-.996l-2.58-2.573 3.44-3.44 2.578 2.578a.81.81 0 0 0 .996.118c1.143-.7 2.39-1.217 3.693-1.532a.81.81 0 0 0 .62-.787V14.46h4.864v3.642a.81.81 0 0 0 .62.787c1.303.315 2.55.832 3.693 1.532a.81.81 0 0 0 .996-.117l2.578-2.578 3.439 3.44-2.578 2.577a.81.81 0 0 0-.117.996c.7 1.144 1.216 2.39 1.531 3.693a.81.81 0 0 0 .788.62h3.642v4.864h-3.643a.81.81 0 0 0-.788.62 12.8 12.8 0 0 1-1.532 3.693.81.81 0 0 0 .118.996l2.577 2.578-3.439 3.438-2.578-2.578a.81.81 0 0 0-.996-.118 12.8 12.8 0 0 1-3.693 1.534.81.81 0 0 0-.62.788v3.641h-4.862v-3.643a.81.81 0 0 0-.62-.788 12.8 12.8 0 0 1-3.693-1.532.81.81 0 0 0-.996.118l-2.578 2.578-3.44-3.44 2.578-2.577a.81.81 0 0 0 .118-.996 12.8 12.8 0 0 1-1.53-3.693.81.81 0 0 0-.788-.62H2.3z"/><path fill="#1f2224" d="M19.325 41.21a9.728 9.728 0 1 0 0-19.456 9.728 9.728 0 0 0 0 19.456m0-17.834a8.106 8.106 0 1 1 0 16.213 8.106 8.106 0 0 1 0-16.213"/><path fill="#1f2224" d="M19.324 36.348a4.864 4.864 0 1 0 0-9.728 4.864 4.864 0 0 0 0 9.728m0-8.106a3.243 3.243 0 1 1 0 6.486 3.243 3.243 0 0 1 0-6.486"/></svg>