<svg xmlns="http://www.w3.org/2000/svg" width="38" height="47" fill="none" viewBox="0 0 38 47"><path fill="#1f2224" d="M19.002 0c1.31 0 2.124 1.2 2.926 2.375.475.698.944 1.388 1.249 1.472a4.4 4.4 0 0 0 1.84-.663c1.25-.61 2.492-1.217 3.573-.585s1.156 2.029 1.228 3.419a1.61 1.61 0 0 0 2.165 2.164c1.39.072 2.783.15 3.418 1.228.634 1.078.025 2.324-.585 3.573a4.4 4.4 0 0 0-.663 1.842c.084.3.774.774 1.472 1.249C36.805 16.877 38 17.69 38 19s-1.2 2.124-2.375 2.926c-.698.476-1.388.945-1.472 1.25.08.655.307 1.284.663 1.84.61 1.249 1.217 2.492.584 3.573-.632 1.08-2.028 1.155-3.417 1.227a1.61 1.61 0 0 0-2.165 2.165c-.072 1.39-.15 2.784-1.228 3.418s-2.324.026-3.573-.585a4.4 4.4 0 0 0-1.842-.662c-.3.084-.774.773-1.249 1.472-.803 1.18-1.616 2.374-2.926 2.374s-2.124-1.199-2.926-2.374c-.476-.699-.946-1.388-1.25-1.472a4.4 4.4 0 0 0-1.841.662c-1.25.61-2.492 1.218-3.573.585s-1.156-2.028-1.228-3.418a1.61 1.61 0 0 0-2.164-2.165c-1.39-.072-2.784-.15-3.418-1.227s-.026-2.324.584-3.573a4.4 4.4 0 0 0 .663-1.84c-.084-.3-.774-.774-1.472-1.25C1.195 21.123 0 20.31 0 19s1.2-2.124 2.375-2.926c.698-.476 1.388-.946 1.472-1.25a4.4 4.4 0 0 0-.663-1.84c-.61-1.249-1.217-2.492-.584-3.572.632-1.081 2.028-1.156 3.418-1.228a1.61 1.61 0 0 0 2.164-2.165c.072-1.39.15-2.784 1.228-3.418s2.324-.025 3.573.585a4.4 4.4 0 0 0 1.84.662c.3-.084.774-.773 1.25-1.472C16.878 1.195 17.695 0 19 0m1.36 3.448c-.521-.766-1.049-1.543-1.36-1.543s-.84.777-1.362 1.543c-.67.985-1.332 1.958-2.317 2.23a4.78 4.78 0 0 1-3.174-.788c-.795-.388-1.586-.775-1.784-.66-.198.116-.247 1.002-.292 1.882a3.247 3.247 0 0 1-3.961 3.96c-.882.046-1.765.092-1.881.293s.27.99.66 1.784c.623.933.9 2.055.78 3.17-.271.986-1.244 1.65-2.229 2.318-.766.522-1.543 1.05-1.543 1.361 0 .312.777.84 1.543 1.362.985.67 1.958 1.332 2.23 2.317a4.78 4.78 0 0 1-.782 3.171c-.388.795-.775 1.586-.66 1.784.116.198 1.002.247 1.882.292a3.25 3.25 0 0 1 3.96 3.961c.046.881.092 1.765.293 1.881s.99-.27 1.784-.66a4.78 4.78 0 0 1 3.17-.78c.986.271 1.65 1.244 2.318 2.229.522.766 1.05 1.543 1.361 1.543.312 0 .84-.777 1.362-1.543.67-.985 1.332-1.958 2.317-2.23a4.78 4.78 0 0 1 3.171.782c.796.388 1.586.775 1.784.66.198-.116.247-1.002.3-1.882a3.247 3.247 0 0 1 3.96-3.96c.882-.046 1.765-.092 1.882-.293s-.27-.99-.66-1.784a4.78 4.78 0 0 1-.78-3.17c.27-.986 1.244-1.65 2.228-2.318.767-.522 1.543-1.05 1.543-1.361 0-.312-.776-.84-1.542-1.362-.985-.67-1.958-1.332-2.23-2.317a4.78 4.78 0 0 1 .781-3.171c.389-.795.775-1.586.66-1.784-.116-.198-1.001-.247-1.882-.3a3.247 3.247 0 0 1-3.96-3.96c-.045-.882-.092-1.765-.292-1.882-.201-.117-.99.27-1.784.66-.933.624-2.055.9-3.171.78-.99-.262-1.652-1.236-2.322-2.22z"/><path fill="#1f2224" d="M19.003 5.96a13.042 13.042 0 1 1-9.221 3.819 13 13 0 0 1 9.221-3.82m7.878 5.162A11.142 11.142 0 1 0 30.145 19a11.1 11.1 0 0 0-3.264-7.878"/><path fill="#1f2224" d="M26.236 15.994a.954.954 0 0 0-1.35-1.349l-7.945 7.945-3.842-3.842a.954.954 0 1 0-1.35 1.35l4.509 4.507a.95.95 0 0 0 1.349 0zM9.07 29.687a.946.946 0 1 0-1.633-.957L.751 40.112a.95.95 0 0 0 .93 1.425l5.52-.46 2.362 5.113.86-.397-.862.398a.951.951 0 0 0 1.721.01l6.162-10.493a.947.947 0 1 0-1.633-.958l-5.284 8.995-1.855-4.015a.95.95 0 0 0-.967-.607l-4.39.366zm21.497-.956a.946.946 0 1 0-1.632.958l5.76 9.806-4.392-.366a.95.95 0 0 0-.967.6l-1.853 4.016L22.2 34.75a.947.947 0 0 0-1.633.958l6.162 10.494a.951.951 0 0 0 1.72-.01l-.863-.4.86.398 2.362-5.113 5.52.46a.95.95 0 0 0 .93-1.424z"/></svg>