<svg xmlns="http://www.w3.org/2000/svg" width="29" height="29" fill="none"><path fill="#fff" stroke="#1f2224" d="m21.693 3.584-.002-.001a10.77 10.77 0 0 0-5.236-1.478V.677q3.193.06 5.947 1.68a12.1 12.1 0 0 1 4.399 4.4v.001a12 12 0 0 1 1.68 5.951h-1.428a10.8 10.8 0 0 0-1.477-5.238l-.001-.003a11 11 0 0 0-3.882-3.884Zm-14.212.428 3.94 4.03-.001.002.09.09.008-.008c.37.324.552.734.552 1.247 0 .537-.185.997-.562 1.393l-1.925 1.926-.12.12.067.155q1.012 2.364 2.737 4.029l.001.002q1.719 1.626 4.04 2.726l.161.076.125-.127 1.896-1.927c.352-.352.789-.53 1.329-.53s.977.178 1.328.53l3.945 3.977c.353.352.53.79.53 1.33 0 .518-.176.947-.53 1.3l-3.035 3.037q-.64.555-1.474.721h-.002A3 3 0 0 1 18.967 28l-.04-.014h-.025Q12.44 25.443 8.1 21.069l-.002-.001a29.2 29.2 0 0 1-4.687-6.065q-1.406-2.453-2.24-4.78l-.002-.004a2.83 2.83 0 0 1-.11-1.66q.22-.854.91-1.435l-.012-.017 3.034-3.094a1.87 1.87 0 0 1 1.245-.446c.48 0 .892.148 1.245.445Zm-.855 1.15-.014-.015-.015-.011a.6.6 0 0 0-.36-.14.54.54 0 0 0-.389.163l-.001.002L2.87 8.198c-.204.182-.333.43-.402.725a1.23 1.23 0 0 0 .024.74v.024l.013.04q.763 2.196 2.129 4.533v.001A29 29 0 0 0 9.1 20.066q4.138 4.169 10.326 6.565l.009.003c.612.212 1.186.088 1.69-.348l.007-.006.006-.006 3.012-2.983.046-.046.011-.011.003-.003-.176-.178.177.177.073-.073v-.104a.3.3 0 0 0-.057-.176.6.6 0 0 0-.076-.09l-4.066-4.069a.6.6 0 0 0-.091-.076.3.3 0 0 0-.176-.057.3.3 0 0 0-.177.057.6.6 0 0 0-.09.076l-2.8 2.801-.445-.2-.011-.005q-.668-.262-1.653-.828-1.965-1.131-3.353-2.493l-.006-.005a11.5 11.5 0 0 1-1.886-2.272l-.001-.001A16 16 0 0 1 8.3 13.757l-.386-.832-.155-.442 2.749-2.72V9.76a.46.46 0 0 0 .127-.448l-.017-.066-.047-.048L6.626 5.16Zm13.517 5.51.003.004q.564.949.62 2.033h-1.429a3.02 3.02 0 0 0-.908-1.976 3.02 3.02 0 0 0-1.974-.908v-1.43a4.4 4.4 0 0 1 2.031.62l.005.003q1.054.599 1.652 1.654Zm-3.688-4.708v-1.43a8.26 8.26 0 0 1 3.99 1.138 8.75 8.75 0 0 1 3.043 3.045 8.3 8.3 0 0 1 1.137 3.992h-1.428a6.75 6.75 0 0 0-.934-3.25 6.9 6.9 0 0 0-2.56-2.561 6.75 6.75 0 0 0-3.248-.934Z"/></svg>