<svg xmlns="http://www.w3.org/2000/svg" width="46" height="46" fill="none"><path fill="#1F2224" d="M.106 37.547c.034.148.079.292.135.433.022.054.055.1.081.154a2.81 2.81 0 0 0 1.385 1.4c.06.03.113.069.173.094a3.1 3.1 0 0 0 .421.129c.054.013.102.036.158.046.2.041.404.062.61.063h20.697v-1.534h-20.7a1.5 1.5 0 0 1-.306-.032c-.036 0-.071-.022-.107-.032a1.52 1.52 0 0 1-.174-.056 1.699 1.699 0 0 1-.154-.083c-.034-.02-.07-.035-.104-.057a1.606 1.606 0 0 1-.42-.42c-.03-.044-.05-.094-.076-.141a1.048 1.048 0 0 1-.065-.121 1.414 1.414 0 0 1-.06-.198c0-.03-.02-.059-.028-.09a1.534 1.534 0 0 1 1.501-1.839h2.295a.767.767 0 0 0 .767-.767V7.666h26.837V6.133H6.132V2.3a.767.767 0 0 0-.764-.767H3.066A3.066 3.066 0 0 0 0 4.599v32.205c0 .206.021.412.062.613.01.044.031.089.044.13ZM1.534 4.6a1.534 1.534 0 0 1 1.534-1.534h1.534v30.673H3.066c-.538 0-1.068.141-1.534.412L1.534 4.6Z"/><path fill="#1F2224" d="m20.865 17.376-1.634-2.045h6.837V13.8h-8.434a.767.767 0 0 0-.587.279s-.008 0-.012.008l-6.127 7.667a.8.8 0 0 0-.1.174v.013a.769.769 0 0 0-.055.265v9.231a.768.768 0 0 0 .768.767h19.913V30.67h-6.9V23H35.27v4.6h1.534v-5.4a.76.76 0 0 0-.053-.264s0-.012-.01-.017a.746.746 0 0 0-.1-.174l-2.299-2.877-1.198.957 1.304 1.633H24.136l-3.27-4.083Zm-3.23-1.584 3.024 3.781 1.513 1.891h-9.076l4.538-5.672Zm-5.368 7.206h10.735v7.667H20.7v-5.367a.766.766 0 0 0-.767-.767h-4.6a.766.766 0 0 0-.766.767v5.367h-2.3l-.001-7.667Zm3.835 7.667v-4.598h3.066v4.6l-3.066-.002Z"/><path fill="#1F2224" d="M28.367 24.532a.767.767 0 0 0-.767.767v3.067a.767.767 0 0 0 .767.767h3.066a.767.767 0 0 0 .768-.767v-3.067a.767.767 0 0 0-.768-.767h-3.066Zm2.3 3.067h-1.535v-1.534h1.534v1.534Zm14.86-6.839a.766.766 0 0 0-.836.172l-23.766 23.76A.768.768 0 0 0 21.467 46h23.766a.767.767 0 0 0 .767-.767V21.467a.767.767 0 0 0-.473-.708Zm-1.06 23.708h-21.15l21.15-21.15v21.15Z"/><path fill="#1F2224" d="M32.26 40.925a.766.766 0 0 0 .708.473h7.666a.767.767 0 0 0 .768-.767v-7.665a.767.767 0 0 0-1.31-.542l-7.666 7.667a.767.767 0 0 0-.173.836l.007-.002Zm7.608-6.11v5.05h-5.05l5.05-5.05ZM42.709.224a.767.767 0 0 0-1.084 0l-13.8 13.8a.776.776 0 0 0-.185.3l-.767 2.297a.767.767 0 0 0 .185.785l.225.225-1.759 1.76 1.084 1.084 1.758-1.757.225.225a.767.767 0 0 0 .784.185l2.3-.767a.767.767 0 0 0 .299-.185l13.8-13.8a.767.767 0 0 0 0-1.084L42.709.224Zm-12.875 13.96 3.132-3.133 1.983 1.982-3.133 3.133-1.982-1.983Zm-.488 3.34-.866-.867.415-1.248 1.697 1.695-1.246.42Zm6.686-5.578-1.982-1.98 8.108-8.116 1.991 1.983-8.117 8.113ZM7.668 32.2v2.298a.767.767 0 0 0 .767.768h2.3V33.73H9.2V32.2H7.668Zm3.066-23h-2.3a.767.767 0 0 0-.766.767v2.3h1.534v-1.534h1.534L10.734 9.2Z"/></svg>