<svg xmlns="http://www.w3.org/2000/svg" width="28" height="28" fill="none"><path fill="#fff" stroke="#1f2224" d="m8.09 4.806.115-.074V2.875h11.909v1.857l.113.074 6.091 3.965v16.354H2V8.771zm1.933-.363h-.25v8.337l.114.073 4.136 2.683.136.088.136-.088 4.136-2.683.114-.073V4.443zm-1.818 2.61V6.59l-.387.253-3.264 2.133-.323.21.324.21 3.264 2.1.386.248V7.052Zm12.295-.21-.386-.253v5.154l.385-.248 3.264-2.1.324-.21-.323-.21zM3.954 10.882l-.386-.25v12.925H24.75V10.632l-.386.25-10.205 6.601zM17.011 8.58h-5.704V7.01h5.704zm0 3.102h-5.704v-1.568h5.704z"/></svg>