<svg xmlns="http://www.w3.org/2000/svg" xmlns:xlink="http://www.w3.org/1999/xlink" width="266.347" height="93.644" viewBox="0 0 266.347 93.644"><defs><clipPath id="a"><rect width="65.121" height="93.643" fill="none"/></clipPath><clipPath id="b"><rect width="179.347" height="41.489" fill="#25282a"/></clipPath></defs><g transform="translate(-448 -8301.999)"><g transform="translate(448 8301.999)" clip-path="url(#a)"><path d="M56.507,1.145l-8.94,5.237v21.1L33.513,19.762,1.424,38.408l-.178.1V75.585L33.517,94.194,65.787,75.585V6.085Zm.026.823L64.7,6.314l-8.175,4.747L48.637,6.593ZM48.3,39.331V7.225l8.05,4.542V69.852l-8.123-4.883V49.006L33.883,40.668s-.216-.131-.328-.2l-.329.191L19.394,48.245V64.827l-8.3,5.161-.035-25.743L33.225,31.3l.29-.167.467.258Zm-14.78,34.3,14.375-8.049,8.06,4.888-22.428,12.4L11.41,70.616l8.316-5.169ZM20.125,64.822V48.671l13.428-7.383,14.013,8.134v15.54l-14,7.846ZM65.055,75.17,33.517,93.364,1.978,75.17V38.925L33.528,20.587,47.566,28.3v9.8L33.515,30.254,10.3,43.832l.038,27.013L33.511,83.7,57.006,70.7V11.6l8.049-4.674Z" transform="translate(-0.924 -0.849)" fill="#fc4c02"/><path d="M32.775,93.644.246,74.886V37.514l.307-.178L32.768,18.617l13.8,7.582V5.386L55.759,0,65.3,5.081v69.8l-.129.074ZM.762,74.587,32.775,93.048,64.787,74.587V5.391L55.771.593,47.083,5.682v21.39L32.775,19.21.762,37.811ZM32.775,92.813.978,74.47V37.928L32.783,19.442l14.3,7.861V37.7L32.776,29.7,9.82,43.132l.037,26.713L32.77,82.552,56.006,69.7V10.6l8.566-4.974V74.47l-.129.075ZM1.494,74.172,32.775,92.217,64.055,74.172V6.526L56.523,10.9V70.005L32.77,83.143,9.341,70.15,9.3,42.836,32.77,29.108l13.8,7.71V27.609L32.79,20.035,1.494,38.225Zm31.288,8.147-.125-.069-22.5-12.47L18.982,64.3l.135.08L32.78,72.489l14.376-8.05,8.57,5.2Zm-21.6-12.564,21.6,11.974L54.7,69.615l-7.55-4.578L32.772,73.085l-.128-.076L18.988,64.9Zm21.64,2.5L19.125,64.12V47.67l.134-.073,13.556-7.454,14.268,8.281v15.84ZM19.642,63.826l13.184,7.835,13.741-7.7V48.721L32.808,40.736l-13.167,7.24ZM10.091,69.6l-.035-26.356L32.77,29.984l.594.329L47.3,38.044V5.934l8.566,4.833V69.46l-8.639-5.194V48.306L33.012,40.043l-.2-.121-.2.115L18.91,47.55V64.122Zm.482-26.06.034,25.131,7.788-4.841V47.244l.134-.073L32.36,39.587l.454-.264.13.076c.113.066.332.2.332.2l14.466,8.411V63.974l7.606,4.573V11.069l-7.533-4.25v32.1L32.775,30.577l-.163.094Zm45.21-33.033-8.4-4.763L55.785.824l8.7,4.632Zm-7.37-4.771,7.367,4.175,7.646-4.44L55.8,1.415Z" transform="translate(-0.182 -0.001)" fill="#fc4c02"/><rect width="0.699" height="10.837" transform="translate(0.354 38.069) rotate(-59.457)" fill="#fc4c02"/><path d="M9.778,150.551,0,144.782l.618-1.047L10.4,149.5ZM.707,144.6,9.6,149.844l.093-.158L.8,144.442Z" transform="translate(0 -106.621)" fill="#fc4c02"/><rect width="0.699" height="10.74" transform="translate(32.262 82.261)" fill="#fc4c02"/><path d="M125.16,328.84h-1.216V317.583h1.216Zm-.7-.516h.183V318.1h-.183Z" transform="translate(-91.941 -235.581)" fill="#fc4c02"/></g><g transform="translate(535 8328.075)"><g clip-path="url(#b)"><path d="M14.781,0A10.756,10.756,0,0,1,25.286,10.43v.985a10.676,10.676,0,0,1-2.608,6.579,13.132,13.132,0,0,1-2.638,2.228,10.885,10.885,0,0,1-5.26,1.516H.076A.067.067,0,0,1,0,21.663V3.866c.01-.05.035-.076.076-.076H4.2c.05.01.076.036.076.076v13.6h10.4a6.456,6.456,0,0,0,5.291-2.941,6.855,6.855,0,0,0,1.092-3.669,6.6,6.6,0,0,0-3.169-5.64,6.494,6.494,0,0,0-3.214-.94H.076A.067.067,0,0,1,0,4.2V.076C.01.025.035,0,.076,0Z" transform="translate(0)" fill="#25282a"/><path d="M101.571,0a5.787,5.787,0,0,1,5.594,5.488V8.611a5.753,5.753,0,0,1-2.3,4.351,6.277,6.277,0,0,1-3.9,1.213l6.079,7.625-5.366-.03-6.2-7.6H85.73c-.01,0-.015-.025-.015-.076V9.975c.01-.05.035-.076.076-.076h15.22a1.781,1.781,0,0,0,1.743-.91,13.379,13.379,0,0,0,.182-3.092,1.628,1.628,0,0,0-1.243-1.592,1.555,1.555,0,0,0-.3-.03H86.154V21.663a.067.067,0,0,1-.076.076H81.955a.067.067,0,0,1-.076-.076V.076c.01-.051.035-.076.076-.076Z" transform="translate(-51.972)" fill="#25282a"/><path d="M188.968,0c.05.01.076.036.076.076V4.2a.067.067,0,0,1-.076.076H174.415a6.509,6.509,0,0,0-6.382,6.382v.424a6.407,6.407,0,0,0,2.608,5.064,6.265,6.265,0,0,0,3.745,1.319h14.583c.05.01.076.035.076.076v4.123a.067.067,0,0,1-.076.076h-14.7a10.59,10.59,0,0,1-7.034-2.88,11.477,11.477,0,0,1-2.38-3.169,10.68,10.68,0,0,1-1.091-4.5v-.637a10.576,10.576,0,0,1,3.32-7.519A10.6,10.6,0,0,1,174.309,0Zm.076,12.885H167.533V8.716h21.511Z" transform="translate(-103.944)" fill="#25282a"/><path d="M261.145,0q.045.015,10.763,21.708l-.076.03h-4.714l-1.94-3.669-12.78-.015-2.031,3.684h-4.654l-.076-.03L256.37,0Zm-2.4,4.821-4.472,9.156,9.156.046Z" transform="translate(-155.917)" fill="#25282a"/><path d="M334.413,0a31.881,31.881,0,0,1,2.092,3.638q.409.637,7.534,13.371h.03Q352.059,2.729,353.651,0h4.169c.051.01.076.036.076.076V21.663a.067.067,0,0,1-.076.076H353.7a.067.067,0,0,1-.076-.076V8.747h-.046q-.122.318-7.261,12.961l-.076.03h-4.366q-.682-.985-3.547-6.246-.076-.045-3.79-6.7h-.045V21.663a.067.067,0,0,1-.076.076H330.29a.067.067,0,0,1-.076-.076V.076c.01-.051.035-.076.076-.076Z" transform="translate(-209.601)" fill="#25282a"/><path d="M443.982,0c.051.01.076.036.076.076V4.2a.067.067,0,0,1-.076.076h-19.54q-1.486,0-1.516,2.213,0,2.259,1.591,2.259h12.628a7.836,7.836,0,0,1,3.979.841,6.264,6.264,0,0,1,2.085,2.38,6.863,6.863,0,0,1,.849,3.282v.258a6.7,6.7,0,0,1-.69,3.206,5.816,5.816,0,0,1-2.061,2.153,7.637,7.637,0,0,1-4.055.872H418.8a.067.067,0,0,1-.076-.076V17.54c.01-.051.035-.076.076-.076h19.131q1.834,0,1.85-2.107,0-2.32-1.744-2.32l-13.082-.015a6.082,6.082,0,0,1-4.381-1.561,5.669,5.669,0,0,1-1.925-4.078V6.9A6.934,6.934,0,0,1,421.53.788,6,6,0,0,1,424.365,0Z" transform="translate(-265.736 0)" fill="#25282a"/></g></g><g transform="translate(35.172)"><g transform="translate(549.006 8358.116)"><path d="M63.434,83.923a3.178,3.178,0,0,1,1.2-1.235,3.3,3.3,0,0,1,1.692-.442,3.441,3.441,0,0,1,1.95.54,3.068,3.068,0,0,1,1.182,1.522h-.8a2.342,2.342,0,0,0-.89-1.08,2.821,2.821,0,0,0-2.791-.039,2.428,2.428,0,0,0-.938,1.006,3.561,3.561,0,0,0,0,3.039,2.436,2.436,0,0,0,.938,1,2.836,2.836,0,0,0,2.791-.034,2.318,2.318,0,0,0,.89-1.065h.8a3.033,3.033,0,0,1-1.187,1.507,3.468,3.468,0,0,1-1.945.535,3.3,3.3,0,0,1-1.692-.443,3.185,3.185,0,0,1-1.2-1.23,3.889,3.889,0,0,1,0-3.584" transform="translate(-62.996 -82.245)" fill="#25282a"/><path d="M108.856,88.747a3.189,3.189,0,0,1-1.211-1.235,3.86,3.86,0,0,1,0-3.589,3.192,3.192,0,0,1,1.211-1.235,3.552,3.552,0,0,1,3.433,0,3.158,3.158,0,0,1,1.206,1.235,3.9,3.9,0,0,1,0,3.589,3.156,3.156,0,0,1-1.206,1.235,3.55,3.55,0,0,1-3.433,0m3.073-.5a2.488,2.488,0,0,0,.953-1.007,3.474,3.474,0,0,0,0-3.039,2.5,2.5,0,0,0-.953-1,2.823,2.823,0,0,0-2.723,0,2.5,2.5,0,0,0-.953,1,3.474,3.474,0,0,0,0,3.039,2.487,2.487,0,0,0,.953,1.007,2.822,2.822,0,0,0,2.723,0" transform="translate(-97.409 -82.245)" fill="#25282a"/><path d="M157.18,89.394l-1.683-2.84h-1.255v2.84h-.681V82.6H155.6a2.456,2.456,0,0,1,1.726.545,1.857,1.857,0,0,1,.589,1.43,1.932,1.932,0,0,1-.423,1.259,2.025,2.025,0,0,1-1.25.676L158,89.394ZM154.243,86h1.371a1.668,1.668,0,0,0,1.2-.389,1.378,1.378,0,0,0,.4-1.041,1.351,1.351,0,0,0-.389-1.036,1.748,1.748,0,0,0-1.226-.364h-1.362Z" transform="translate(-133.498 -82.518)" fill="#25282a"/><path d="M193.464,85.961a2.443,2.443,0,0,1-1.721.535h-1.371v2.9h-.681V82.6h2.052a2.448,2.448,0,0,1,1.717.535,2.026,2.026,0,0,1,0,2.83m-.126-1.41a1.334,1.334,0,0,0-.38-1.031,1.756,1.756,0,0,0-1.216-.35h-1.371v2.742h1.371q1.6,0,1.6-1.362" transform="translate(-161.622 -82.518)" fill="#25282a"/><path d="M225.058,88.747a3.189,3.189,0,0,1-1.211-1.235,3.861,3.861,0,0,1,0-3.589,3.192,3.192,0,0,1,1.211-1.235,3.552,3.552,0,0,1,3.433,0,3.159,3.159,0,0,1,1.206,1.235,3.9,3.9,0,0,1,0,3.589,3.156,3.156,0,0,1-1.206,1.235,3.55,3.55,0,0,1-3.433,0m3.073-.5a2.488,2.488,0,0,0,.953-1.007,3.474,3.474,0,0,0,0-3.039,2.5,2.5,0,0,0-.953-1,2.823,2.823,0,0,0-2.723,0,2.5,2.5,0,0,0-.953,1,3.474,3.474,0,0,0,0,3.039,2.487,2.487,0,0,0,.953,1.007,2.822,2.822,0,0,0,2.723,0" transform="translate(-187.868 -82.245)" fill="#25282a"/><path d="M273.382,89.394l-1.683-2.84h-1.255v2.84h-.681V82.6h2.042a2.456,2.456,0,0,1,1.726.545,1.857,1.857,0,0,1,.588,1.43,1.934,1.934,0,0,1-.423,1.259,2.026,2.026,0,0,1-1.25.676l1.751,2.888ZM270.445,86h1.371a1.668,1.668,0,0,0,1.2-.389,1.378,1.378,0,0,0,.4-1.041,1.351,1.351,0,0,0-.389-1.036,1.748,1.748,0,0,0-1.225-.364h-1.362Z" transform="translate(-223.957 -82.518)" fill="#25282a"/><path d="M308.191,88.087H305.1L304.5,89.7h-.72l2.48-6.711h.768L309.5,89.7h-.72Zm-.2-.564-1.342-3.676L305.3,87.523Z" transform="translate(-250.441 -82.825)" fill="#25282a"/><path d="M348.825,83a2.854,2.854,0,0,1,1.235,1.177,3.7,3.7,0,0,1,.428,1.828,3.653,3.653,0,0,1-.428,1.814,2.831,2.831,0,0,1-1.235,1.167,4.286,4.286,0,0,1-1.936.4h-2.013V82.6h2.013a4.245,4.245,0,0,1,1.936.409m.228,5.082a2.807,2.807,0,0,0,.744-2.076,2.854,2.854,0,0,0-.744-2.1,2.909,2.909,0,0,0-2.164-.754h-1.332v5.67h1.332a2.932,2.932,0,0,0,2.164-.744" transform="translate(-282.428 -82.518)" fill="#25282a"/><path d="M386.477,88.747a3.189,3.189,0,0,1-1.211-1.235,3.86,3.86,0,0,1,0-3.589,3.192,3.192,0,0,1,1.211-1.235,3.552,3.552,0,0,1,3.433,0,3.158,3.158,0,0,1,1.206,1.235,3.9,3.9,0,0,1,0,3.589,3.155,3.155,0,0,1-1.206,1.235,3.55,3.55,0,0,1-3.433,0m3.073-.5a2.488,2.488,0,0,0,.953-1.007,3.474,3.474,0,0,0,0-3.039,2.5,2.5,0,0,0-.953-1,2.823,2.823,0,0,0-2.723,0,2.5,2.5,0,0,0-.953,1,3.474,3.474,0,0,0,0,3.039,2.487,2.487,0,0,0,.953,1.007,2.822,2.822,0,0,0,2.723,0" transform="translate(-313.526 -82.245)" fill="#25282a"/><path d="M434.8,89.394l-1.683-2.84h-1.255v2.84h-.681V82.6h2.042a2.456,2.456,0,0,1,1.726.545,1.857,1.857,0,0,1,.588,1.43,1.934,1.934,0,0,1-.423,1.259,2.026,2.026,0,0,1-1.25.676l1.751,2.888ZM431.864,86h1.371a1.668,1.668,0,0,0,1.2-.389,1.379,1.379,0,0,0,.4-1.041,1.351,1.351,0,0,0-.389-1.036,1.748,1.748,0,0,0-1.225-.364h-1.362Z" transform="translate(-349.615 -82.518)" fill="#25282a"/><path d="M469.61,88.087h-3.093l-.593,1.614h-.72l2.48-6.711h.769l2.47,6.711h-.72Zm-.2-.564-1.342-3.676-1.342,3.676Z" transform="translate(-376.099 -82.825)" fill="#25282a"/></g><g transform="translate(535.828 8358.193)"><rect width="0.681" height="6.798" transform="translate(0 0)" fill="#25282a"/><path d="M28.37,82.6V88.3L24.606,82.6h-.681v6.8h.681V83.676l3.764,5.718h.681V82.6Z" transform="translate(-19.403 -82.596)" fill="#25282a"/></g></g></g></svg>