<svg xmlns="http://www.w3.org/2000/svg" width="57.462" height="77.168" viewBox="0 0 57.462 77.168"><g transform="translate(-13.769 -3.873)"><line x1="8.204" y2="21.81" transform="translate(25.641 58.33)" fill="none" stroke="#fc4c02" stroke-miterlimit="10" stroke-width="1.4"/><line x1="6.754" y2="17.954" transform="translate(25.641 62.186)" fill="none" stroke="#fc4c02" stroke-linecap="round" stroke-miterlimit="10" stroke-width="1.4"/><line x1="3.785" y1="9.8" transform="translate(56.72 58.266)" fill="none" stroke="#fc4c02" stroke-miterlimit="10" stroke-width="1.4"/><line x2="28.333" transform="translate(28.229 73.296)" fill="none" stroke="#fc4c02" stroke-miterlimit="10" stroke-width="1.4"/><circle cx="6.245" cy="6.245" r="6.245" transform="translate(56.49 67.642)" fill="none" stroke="#fc4c02" stroke-linecap="round" stroke-miterlimit="10" stroke-width="1.4"/><path d="M34.367,44.758a15.189,15.189,0,0,1-3.947-5.739" fill="none" stroke="#fc4c02" stroke-linecap="round" stroke-miterlimit="10" stroke-width="1.4"/><line x2="50.771" transform="translate(19.76 31.966)" fill="none" stroke="#fc4c02" stroke-linecap="round" stroke-miterlimit="10" stroke-width="1.4"/><path d="M22.2,32.005V33.5a22.941,22.941,0,0,0,45.882,0v-1.49" fill="none" stroke="#fc4c02" stroke-miterlimit="10" stroke-width="1.4"/><line x1="8.113" transform="translate(14.469 37.887)" fill="none" stroke="#fc4c02" stroke-linecap="round" stroke-miterlimit="10" stroke-width="1.4"/><path d="M34.186,10.833s-4.359,3.582-.415,7.692c1.247,1.3,2.963,3.8-.832,7.33" fill="none" stroke="#fc4c02" stroke-linecap="round" stroke-miterlimit="10" stroke-width="1.4"/><path d="M57.252,10.833s-4.361,3.582-.416,7.692c1.247,1.3,2.963,3.8-.832,7.33" fill="none" stroke="#fc4c02" stroke-linecap="round" stroke-miterlimit="10" stroke-width="1.4"/><path d="M45.719,4.861A8.9,8.9,0,0,0,45.3,15.615c1.248,1.817,2.963,5.305-.832,10.246" fill="none" stroke="#fc4c02" stroke-linecap="round" stroke-miterlimit="10" stroke-width="1.4"/></g></svg>