<svg xmlns="http://www.w3.org/2000/svg" width="31.228" height="29.984" viewBox="0 0 31.228 29.984"><path d="M28.88,35.86a2.476,2.476,0,0,1-1.139-.281l-7.048-3.705L13.646,35.58a2.476,2.476,0,0,1-3.54-2.566l1.345-7.848L5.748,19.6A2.476,2.476,0,0,1,7.1,15.477l7.881-1.139,3.524-7.147a2.476,2.476,0,0,1,4.374,0L26.4,14.338l7.881,1.139A2.476,2.476,0,0,1,35.639,19.6l-5.7,5.562,1.345,7.848a2.476,2.476,0,0,1-2.4,2.847Zm-8.186-5.777a.767.767,0,0,1,.38.1l7.427,3.9a.825.825,0,0,0,1.147-.825l-1.419-8.252a.825.825,0,0,1,.231-.734l6.016-5.859a.759.759,0,0,0,.2-.825.776.776,0,0,0-.635-.536l-8.3-1.172a.825.825,0,0,1-.619-.454L21.395,7.893h0a.825.825,0,0,0-1.4,0L16.27,15.419a.825.825,0,0,1-.619.454l-8.31,1.2a.776.776,0,0,0-.635.536.759.759,0,0,0,.2.825L12.92,24.3a.825.825,0,0,1,.231.734l-1.419,8.252a.825.825,0,0,0,1.147.825l7.427-3.9a.767.767,0,0,1,.388-.091Z" transform="translate(-5.08 -5.876)" fill="#fff"/></svg>