<svg xmlns="http://www.w3.org/2000/svg" width="63.323" height="69.745" viewBox="0 0 63.323 69.745"><g transform="translate(-6.735 -1.75)"><path d="M56.921,70.635H8.61A1.612,1.612,0,0,1,7,69.024V16.688a.811.811,0,0,1,.235-.57L20.118,3.235A.811.811,0,0,1,20.688,3H56.116a.805.805,0,0,1,0,1.61H21.021L8.61,17.021v52h48.31V48.09a.805.805,0,1,1,1.61,0V69.024A1.612,1.612,0,0,1,56.921,70.635Z" transform="translate(0 0.61)" fill="#fff" stroke="#fff" strokeWidth="0.5"/><path d="M19.883,17.493H7.805a.806.806,0,0,1-.57-1.375L20.118,3.235a.805.805,0,0,1,1.139,1.139L9.749,15.883H19.883V8.636a.805.805,0,1,1,1.61,0v7.247A1.612,1.612,0,0,1,19.883,17.493Z" transform="translate(0 0.61)" fill="#fff" stroke="#fff" strokeWidth="0.5"/><path d="M42.014,29.986a.859.859,0,0,1-.209-.027.807.807,0,0,1-.57-.987L47.278,6.417c.225-.842-.652-1.842-1.916-2.18a3.278,3.278,0,0,0-1.029-.113c-.857.04-2.055-1.211-.87-1.494a4.732,4.732,0,0,1,2.314.05c2.145.575,3.515,2.44,3.055,4.155L42.788,29.389A.8.8,0,0,1,42.014,29.986Z" transform="translate(20.878 0.311)" fill="#fff" stroke="#fff" strokeWidth="0.5"/><path d="M31.81,43.7a.859.859,0,0,1-.209-.027.807.807,0,0,1-.57-.987l.625-2.332a.817.817,0,0,1,.986-.57.807.807,0,0,1,.57.987L32.586,43.1A.8.8,0,0,1,31.81,43.7Z" transform="translate(14.65 23.044)" fill="#fff" stroke="#fff" strokeWidth="0.5"/><g transform="translate(47.156 2)"><path d="M36.157,32.313c.024,0,.066-.011.085-.011l.093-.652Z" transform="translate(-29.36 16.097)" fill="#fff" stroke="#fff" strokeWidth="0.5"/><path d="M32.25,31.087c.018.01.05.039.069.053l.081-.3Z" transform="translate(-31.744 15.602)" fill="#fff" stroke="#fff" strokeWidth="0.5"/><path d="M48.326,2.159A4.474,4.474,0,0,0,47.167,2c-1.108,0-3.1.493-3.978,3.784L32.1,47.186l-.159.6.778.209,3.543-13.221.778.208L44.745,6.2C45.3,4.129,46.378,3.3,47.911,3.715s2.053,1.672,1.5,3.734L41.7,36.226l.778.209L38.935,49.657l.776.209,11.253-42C51.75,4.947,50.763,2.813,48.326,2.159Z" transform="translate(-31.936 -2)" fill="#fff" stroke="#fff" strokeWidth="0.5"/></g><path d="M34.006,49.328h0a3.1,3.1,0,0,1-.8-.106c-1.05-.282-2.325-1.18-2.441-3.868a19.908,19.908,0,0,1,.845-5.73l4.794-17.886,7.778,2.084L39.39,41.71C38.016,46.835,36.254,49.328,34.006,49.328Zm3.538-25.619L33.167,40.043a18.439,18.439,0,0,0-.792,5.242c.09,2.071.963,2.306,1.25,2.382a1.46,1.46,0,0,0,.38.053h0c.786,0,2.33-.836,3.828-6.425L42.209,24.96Z" transform="translate(14.501 12.047)" fill="#fff" stroke="#fff" strokeWidth="0.5"/><path d="M34.909,17.61h-16.1a.805.805,0,0,1,0-1.61h16.1a.805.805,0,0,1,0,1.61Z" transform="translate(6.714 8.545)" fill="#fff" stroke="#fff" strokeWidth="0.5"/><path d="M35.636,17.61H30.805a.805.805,0,0,1,0-1.61h4.831a.805.805,0,1,1,0,1.61Z" transform="translate(14.038 8.545)" fill="#fff" stroke="#fff" strokeWidth="0.5"/><path d="M33.35,26.61H10.805a.805.805,0,0,1,0-1.61H33.35a.805.805,0,0,1,0,1.61Z" transform="translate(1.831 14.038)" fill="#fff" stroke="#fff" strokeWidth="0.5"/><path d="M37.078,20.61H25.805a.805.805,0,1,1,0-1.61H37.078a.805.805,0,0,1,0,1.61Z" transform="translate(10.987 10.376)" fill="#fff" stroke="#fff" strokeWidth="0.5"/><path d="M35.129,23.61H15.805a.805.805,0,1,1,0-1.61H35.129a.805.805,0,0,1,0,1.61Z" transform="translate(4.883 12.207)" fill="#fff" stroke="#fff" strokeWidth="0.5"/><path d="M33.026,23.61H29.805a.805.805,0,1,1,0-1.61h3.221a.805.805,0,0,1,0,1.61Z" transform="translate(13.428 12.207)" fill="#fff" stroke="#fff" strokeWidth="0.5"/><path d="M15.636,23.61H10.805a.805.805,0,0,1,0-1.61h4.831a.805.805,0,0,1,0,1.61Z" transform="translate(1.831 12.207)" fill="#fff" stroke="#fff" strokeWidth="0.5"/><path d="M31.74,20.61H10.805a.805.805,0,1,1,0-1.61H31.74a.805.805,0,0,1,0,1.61Z" transform="translate(1.831 10.376)" fill="#fff" stroke="#fff" strokeWidth="0.5"/><path d="M20.467,17.61H10.805a.805.805,0,0,1,0-1.61h9.662a.805.805,0,1,1,0,1.61Z" transform="translate(1.831 8.545)" fill="#fff" stroke="#fff" strokeWidth="0.5"/><path d="M39.876,48.6a.806.806,0,0,1-.577-.243c-.638-.655-2.4-.905-4.1-.575-2.617.5-3.441-1.514-3.992-2.847-.567-1.37-.907-1.971-1.8-1.971-.805,0-1.237.694-1.849,1.836-.6,1.119-1.427,2.643-3.2,2.163A1.623,1.623,0,0,1,23.281,46c-.8-1.913,1.377-5.8,1.4-5.842,1-1.763,1.618-4.4.963-5.53a1.072,1.072,0,0,0-1.066-.515c-2.1,0-2.879,1.385-3.222,5.7-.021.259-.026.578-.034.932-.039,2.029-.118,6.25-3.99,6.25a4.835,4.835,0,0,1-3.606-1.225A4.9,4.9,0,0,1,12.5,42.159,4.235,4.235,0,0,1,14.027,39a3.326,3.326,0,0,1,2.631-.852.8.8,0,1,1-.264,1.588,1.78,1.78,0,0,0-1.327.494,2.607,2.607,0,0,0-.957,1.934,3.392,3.392,0,0,0,.755,2.467,3.357,3.357,0,0,0,2.465.752c1.928,0,2.324-1.641,2.38-4.668.008-.391.014-.744.037-1.032.29-3.635.9-7.182,4.829-7.182a2.654,2.654,0,0,1,2.456,1.314c1.147,1.963.061,5.34-.95,7.134-1.027,1.82-1.612,4.1-1.3,4.465.443.114.684-.126,1.354-1.374.61-1.13,1.443-2.683,3.269-2.683,2.06,0,2.768,1.713,3.285,2.966.654,1.58.994,2.114,2.2,1.879,1.771-.338,4.287-.272,5.561,1.035a.8.8,0,0,1-.578,1.366Z" transform="translate(3.357 18.616)" fill="#fff" stroke="#fff" strokeWidth="0.5"/></g></svg>