<svg xmlns="http://www.w3.org/2000/svg" width="32.228" height="32.765" viewBox="0 0 32.228 32.765"><g transform="translate(-2 -2)"><path d="M41.589,14.354v-.537A10.174,10.174,0,0,0,33.532,3.85V2.537A.537.537,0,0,0,32.995,2H29.772a.537.537,0,0,0-.537.537V3.846a10.144,10.144,0,0,0-6.69,4.869l.93.537a9.1,9.1,0,0,1,3.075-3.169V8.446h1.074V5.506a9.012,9.012,0,0,1,1.611-.548v5.1a.537.537,0,0,0,.537.537h3.223a.537.537,0,0,0,.537-.537V4.946a8.957,8.957,0,0,1,1.611.553V8.446h1.074V6.069a9.259,9.259,0,0,1,1.623,1.289,9.092,9.092,0,0,1,2.674,6.458v.537H38.9V12.206a.537.537,0,0,0-.537-.537H35.143a.537.537,0,0,0-.537.537v1.611h1.074V12.743h2.149v1.611H36.218v1.074h5.371a1.074,1.074,0,0,1,0,2.149h-7.52v1.074h7.52a2.149,2.149,0,0,0,0-4.3ZM32.458,9.52H30.309V3.074h2.149Z" transform="translate(-9.51)" fill="#fc4c02"/><path d="M2.537,32.04H5.075a9.554,9.554,0,0,0,.82,1.976l-1.8,1.8a.537.537,0,0,0,0,.76l3.039,3.039a.537.537,0,0,0,.76,0l1.8-1.8a9.554,9.554,0,0,0,1.976.82v2.537a.537.537,0,0,0,.537.537h4.3a.537.537,0,0,0,.537-.537V38.634a9.554,9.554,0,0,0,1.976-.82l1.8,1.8a.537.537,0,0,0,.76,0l3.039-3.039a.537.537,0,0,0,0-.76l-1.8-1.8a9.554,9.554,0,0,0,.82-1.976h2.537a.537.537,0,0,0,.537-.537v-4.3a.537.537,0,0,0-.537-.537H23.634a9.566,9.566,0,0,0-.82-1.976l1.8-1.8a.537.537,0,0,0,0-.76L21.57,19.1a.537.537,0,0,0-.76,0l-1.8,1.8a9.554,9.554,0,0,0-1.976-.82V17.537A.537.537,0,0,0,16.5,17h-4.3a.537.537,0,0,0-.537.537v2.537a9.554,9.554,0,0,0-1.976.82L7.9,19.1a.537.537,0,0,0-.76,0L4.1,22.138a.537.537,0,0,0,0,.76l1.8,1.8a9.566,9.566,0,0,0-.82,1.976H2.537A.537.537,0,0,0,2,27.206v4.3A.537.537,0,0,0,2.537,32.04Zm.537-4.3H5.488a.537.537,0,0,0,.522-.411,8.54,8.54,0,0,1,1.015-2.447.537.537,0,0,0-.078-.66L5.238,22.517l2.279-2.279,1.708,1.708a.537.537,0,0,0,.66.078,8.509,8.509,0,0,1,2.447-1.015.537.537,0,0,0,.411-.522V18.074h3.223v2.413a.537.537,0,0,0,.411.522,8.509,8.509,0,0,1,2.447,1.015.537.537,0,0,0,.66-.078l1.708-1.708,2.279,2.279-1.708,1.708a.537.537,0,0,0-.078.66A8.54,8.54,0,0,1,22.7,27.332a.537.537,0,0,0,.522.411h2.413v3.223H23.221a.537.537,0,0,0-.522.411,8.509,8.509,0,0,1-1.015,2.447.537.537,0,0,0,.078.66l1.708,1.708L21.191,38.47l-1.708-1.708a.537.537,0,0,0-.66-.078A8.509,8.509,0,0,1,16.376,37.7a.537.537,0,0,0-.411.522v2.413H12.743V38.221a.537.537,0,0,0-.411-.522,8.509,8.509,0,0,1-2.447-1.015.537.537,0,0,0-.66.078L7.517,38.47,5.238,36.191l1.708-1.708a.537.537,0,0,0,.078-.66A8.509,8.509,0,0,1,6.01,31.376a.537.537,0,0,0-.522-.411H3.074Z" transform="translate(0 -6.943)" fill="#fc4c02"/><path d="M19.446,40.891A6.446,6.446,0,1,0,13,34.446a6.446,6.446,0,0,0,6.446,6.446Zm0-11.817a5.371,5.371,0,1,1-5.371,5.371,5.371,5.371,0,0,1,5.371-5.371Z" transform="translate(-5.092 -12.035)" fill="#fc4c02"/><path d="M22.223,40.446A3.223,3.223,0,1,0,19,37.223,3.223,3.223,0,0,0,22.223,40.446Zm0-5.371a2.149,2.149,0,1,1-2.149,2.149A2.149,2.149,0,0,1,22.223,35.074Z" transform="translate(-7.869 -14.812)" fill="#fc4c02"/></g></svg>