<svg xmlns="http://www.w3.org/2000/svg" width="72.93" height="71.862" viewBox="0 0 72.93 71.862"><g transform="translate(-3.999 -8.023)"><path d="M5.6,96.819a31.308,31.308,0,0,1,14.949.052c1.734.427,4.148.949,6.7,1.5,4.19.906,8.938,1.933,12.034,2.829a7.375,7.375,0,0,0,6.26-1.014l10.293-5.2a1.281,1.281,0,0,0,.288-.2L76.039,76.47a2.768,2.768,0,0,0,.87-2.367,2.645,2.645,0,0,0-.69-1.493,2.694,2.694,0,0,0,.429-1.666,2.768,2.768,0,0,0-1-1.926,5.451,5.451,0,0,0-4.1-1.443,15.913,15.913,0,0,0-5.7,2.447L60.73,73.293c-1.021-.684-2.8-1.587-4.391-.967-1.52.591-10.161,5.915-12.3,7.239l-5.8-.693c-.019-.022-.034-.046-.055-.067A28.741,28.741,0,0,0,30.2,73.5c-4.825-2.111-15.043-.9-19.715,1.542A41.27,41.27,0,0,1,4.9,76.992a1.274,1.274,0,1,0,.745,2.437A44.475,44.475,0,0,0,11.662,77.3c4.067-2.122,13.471-3.236,17.515-1.467a25.452,25.452,0,0,1,4.355,2.474l-.173-.021a1.274,1.274,0,1,0-.3,2.53l21.232,2.538a1.865,1.865,0,0,1,1.024.456l.774.7a1.462,1.462,0,0,1,.5,1.1,1.518,1.518,0,0,1-.822,1.305l-.97.54a1.915,1.915,0,0,1-.9.238l-22,.338a1.274,1.274,0,1,0,.019,2.548h.02l22-.338a4.472,4.472,0,0,0,2.1-.56l.97-.54a4.087,4.087,0,0,0,2.131-3.512,4.032,4.032,0,0,0-1.343-3.009l-.044-.04,12.359-7.871a4.589,4.589,0,0,1,3.16-.733,3.616,3.616,0,0,1,.553.131c.019.007.037.015.055.021a2.913,2.913,0,0,1,.454.195c.013.007.04.022.048.086a.218.218,0,0,1-.066.184L54.528,92.79,44.313,97.955a1.241,1.241,0,0,0-.161.1,4.839,4.839,0,0,1-4.161.7c-3.18-.92-7.974-1.957-12.2-2.872-2.537-.549-4.933-1.067-6.632-1.485a33.924,33.924,0,0,0-16.206-.042A1.274,1.274,0,0,0,5.6,96.819ZM57.262,74.7a1.586,1.586,0,0,1,1.015.161l-8.439,5.4-1.728-.207C52,77.672,56.431,75.023,57.262,74.7Zm11.479-2.139L55.622,80.917a1.266,1.266,0,0,0-.149.118,4.49,4.49,0,0,0-.882-.208l-.767-.092,13.421-8.584A13.652,13.652,0,0,1,71.859,70.1a3.151,3.151,0,0,1,2.17.883.2.2,0,0,1,.077.145.173.173,0,0,1-.047.134l-.21.232c-.062-.012-.123-.027-.186-.037a7.155,7.155,0,0,0-4.923,1.1Z" transform="translate(0 -21.613)" fill="#fff"/><path d="M55.461,9.671a14.628,14.628,0,0,0-4.854,5.536,14.628,14.628,0,0,0-4.854-5.536c-3.963-2.412-8.87-2.164-13.126.664-3.9,2.594-5.8,7.145-5.489,13.159.442,8.486,10.9,15.544,19.307,21.216,1.205.813,2.363,1.594,3.433,2.341a1.274,1.274,0,0,0,1.459,0c1.07-.747,2.227-1.528,3.433-2.341,8.405-5.672,18.866-12.731,19.307-21.216.313-6.014-1.585-10.565-5.489-13.159h0C64.33,7.506,59.422,7.259,55.461,9.671ZM71.532,23.362C71.156,30.579,61.279,37.244,53.343,42.6c-.948.64-1.867,1.26-2.737,1.859-.87-.6-1.789-1.219-2.737-1.859-7.936-5.355-17.812-12.02-18.188-19.237-.184-3.532.423-8.292,4.355-10.9a10.572,10.572,0,0,1,5.839-1.9,8.675,8.675,0,0,1,4.551,1.29c3.24,1.973,4.96,6.794,4.977,6.841a1.273,1.273,0,0,0,1.2.855h0a1.275,1.275,0,0,0,1.2-.853c.017-.049,1.737-4.87,4.977-6.843,3.142-1.913,6.929-1.69,10.39.61,3.933,2.614,4.539,7.373,4.355,10.905Z" transform="translate(-8.387)" fill="#fff"/></g></svg>