<svg xmlns="http://www.w3.org/2000/svg" width="26.567" height="26.567" viewBox="0 0 26.567 26.567"><g transform="translate(-2 -2)"><rect height="6" transform="translate(25.567 8.567)" fill="#fc4c02"/><path d="M2.061,24.8a1.742,1.742,0,0,0,.078.25c.013.031.032.058.047.089a1.623,1.623,0,0,0,.6.7,1.766,1.766,0,0,0,.2.109c.034.017.065.039.1.054a1.792,1.792,0,0,0,.243.074c.031.008.059.021.091.027a1.768,1.768,0,0,0,.352.036H15.726v-.886H3.771a.891.891,0,0,1-.177-.018c-.021,0-.041-.013-.062-.019a.872.872,0,0,1-.1-.032.98.98,0,0,1-.089-.048c-.02-.012-.041-.02-.06-.033a.926.926,0,0,1-.133-.11.9.9,0,0,1-.11-.133c-.017-.025-.029-.054-.044-.081a.6.6,0,0,1-.037-.07.815.815,0,0,1-.035-.114c0-.017-.012-.034-.016-.052a.886.886,0,0,1,.867-1.062H5.1a.443.443,0,0,0,.443-.443V7.542h15.5V6.657H5.542V4.443A.443.443,0,0,0,5.1,4H3.771A1.771,1.771,0,0,0,2,5.771v18.6a1.768,1.768,0,0,0,.036.354C2.042,24.75,2.054,24.776,2.061,24.8ZM2.886,5.771a.886.886,0,0,1,.886-.886h.886V22.6H3.771a1.758,1.758,0,0,0-.886.238Z" transform="translate(0 -1.114)" fill="#fc4c02"/><path d="M21.851,22.066l-.944-1.181h3.949V20H19.985a.443.443,0,0,0-.339.161s-.005,0-.007.005L16.1,24.594a.462.462,0,0,0-.058.1s0,.005,0,.008a.443.443,0,0,0-.031.153c0,.007,0,.012,0,.018v5.313a.443.443,0,0,0,.443.443H27.955v-.886H23.97V25.313h6.2V27.97h.886v-3.1c0-.006,0-.012,0-.018a.439.439,0,0,0-.031-.152s0-.007-.006-.01a.429.429,0,0,0-.057-.1l-1.328-1.662-.692.553.753.943H23.74Zm-1.866-.915,1.747,2.184.874,1.092H17.364Zm-3.1,4.162h6.2v4.428H21.756v-3.1a.443.443,0,0,0-.443-.443H18.657a.443.443,0,0,0-.443.443v3.1H16.886ZM19.1,29.741V27.085h1.771v2.657Z" transform="translate(-7.801 -10.03)" fill="#fc4c02"/><path d="M38.443,34a.443.443,0,0,0-.443.443v1.771a.443.443,0,0,0,.443.443h1.771a.443.443,0,0,0,.443-.443V34.443A.443.443,0,0,0,40.214,34Zm1.328,1.771h-.886v-.886h.886Z" transform="translate(-20.06 -17.831)" fill="#fc4c02"/><path d="M43.339,29.034a.443.443,0,0,0-.483.1L29.13,42.856a.443.443,0,0,0,.313.756H43.169a.443.443,0,0,0,.443-.443V29.443A.443.443,0,0,0,43.339,29.034Zm-.612,13.693H30.512L42.727,30.512Z" transform="translate(-15.045 -15.044)" fill="#fc4c02"/><path d="M44.034,49.04a.443.443,0,0,0,.409.273h4.428a.443.443,0,0,0,.443-.443V44.443a.443.443,0,0,0-.756-.313L44.13,48.558a.443.443,0,0,0-.1.483Zm4.394-3.529v2.916H45.512Z" transform="translate(-23.403 -23.403)" fill="#fc4c02"/><path d="M45.218,2.13a.443.443,0,0,0-.626,0l-7.97,7.97a.448.448,0,0,0-.107.173L36.072,11.6a.443.443,0,0,0,.107.453l.13.13L35.293,13.2l.626.626,1.015-1.015.13.13a.443.443,0,0,0,.313.13.449.449,0,0,0,.14-.023l1.328-.443a.443.443,0,0,0,.173-.107l7.97-7.97a.443.443,0,0,0,0-.626Zm-7.436,8.062,1.809-1.809,1.145,1.145-1.809,1.809ZM37.5,12.121l-.5-.5.24-.721.98.979ZM41.362,8.9,40.217,7.756,44.9,3.069,46.05,4.214Z" transform="translate(-18.551)" fill="#fc4c02"/><path d="M12,44v1.328a.443.443,0,0,0,.443.443h1.328v-.886h-.886V44Z" transform="translate(-5.572 -23.403)" fill="#fc4c02"/><path d="M13.771,14H12.443a.443.443,0,0,0-.443.443v1.328h.886v-.886h.886Z" transform="translate(-5.572 -6.686)" fill="#fc4c02"/></g></svg>