<svg xmlns="http://www.w3.org/2000/svg" xmlns:xlink="http://www.w3.org/1999/xlink" width="74" height="74" viewBox="0 0 74 74"><defs><clip-path id="a"><rect width="74" height="74" fill="#fff"/></clip-path></defs><g clip-path="url(#a)"><path d="M61.749,26.265V15.915a3.387,3.387,0,0,0,2.326-3.256V11.5H61.749v1.163a1.163,1.163,0,0,1-2.326,0A3.426,3.426,0,0,0,55.935,9.17H42.1V7.31L37.329.1,32.561,7.31V9.054H18.606a3.426,3.426,0,0,0-3.489,3.489,1.163,1.163,0,0,1-2.326,0V11.38H10.466v1.163A3.387,3.387,0,0,0,12.792,15.8v10.35L0,49.406v.349A8.09,8.09,0,0,0,8.14,57.9H19.769a8.09,8.09,0,0,0,8.14-8.14v-.349L15.117,26.149V15.8a3.387,3.387,0,0,0,2.326-3.256,1.1,1.1,0,0,1,1.163-1.163H32.677v2.326h3.372v2.558a4.605,4.605,0,0,0-3.372,4.419A4.5,4.5,0,0,0,36.049,25.1v2.791a4.713,4.713,0,0,0-3.489,4.419V55.221l2.791,1.4L30.235,62.9v1.977a8.256,8.256,0,0,0-6.977,8.14v1.163H51.167V73.013a8.354,8.354,0,0,0-6.861-8.14V62.779l-5.349-6.163,3.023-1.4-.116-22.909a4.506,4.506,0,0,0-3.489-4.419V25.335a4.624,4.624,0,0,0,0-9.07V13.822H42.1V11.5H55.818a1.1,1.1,0,0,1,1.163,1.163,3.387,3.387,0,0,0,2.326,3.256v10.35L46.515,49.523v.349a8.09,8.09,0,0,0,8.14,8.14H66.284a8.09,8.09,0,0,0,8.14-8.14v-.349Zm-41.98,29.3H8.14a5.849,5.849,0,0,1-5.7-4.652H25.467A5.849,5.849,0,0,1,19.769,55.57Zm5-6.977H3.14L13.955,28.94ZM48.725,71.85H25.7a5.869,5.869,0,0,1,5.814-4.768h11.4A5.983,5.983,0,0,1,48.725,71.85ZM41.98,63.71v1.047H32.561V63.71l4.652-5.582Zm-2.442-31.4.116,21.513-2.442,1.163-2.326-1.163V32.312a2.326,2.326,0,1,1,4.652,0Zm.233-11.629a2.333,2.333,0,0,1-2.326,2.326h-.233a2.326,2.326,0,0,1,0-4.652h.233A2.261,2.261,0,0,1,39.771,20.683Zm0-9.3H34.887V8.008l2.442-3.721,2.442,3.721V11.38ZM60.586,28.94,71.4,48.592H49.771ZM66.4,55.57H54.772a5.849,5.849,0,0,1-5.7-4.652H72.1A5.849,5.849,0,0,1,66.4,55.57Z" transform="translate(0 0.016)" fill="#fff"/></g></svg>