<svg xmlns="http://www.w3.org/2000/svg" width="25.348" height="31.18" viewBox="0 0 25.348 31.18"><g transform="translate(-383.998 -236.738)"><g transform="translate(383.998 236.738)"><path d="M396.671,236.738c.874,0,1.417.8,1.952,1.584.317.466.63.926.833.982a2.946,2.946,0,0,0,1.228-.442c.833-.407,1.662-.812,2.383-.39s.771,1.353.819,2.28a1.074,1.074,0,0,0,1.444,1.444c.927.048,1.857.1,2.28.819s.017,1.55-.39,2.383a2.944,2.944,0,0,0-.442,1.229c.056.2.516.516.982.833.787.536,1.584,1.078,1.584,1.952s-.8,1.417-1.584,1.952c-.466.317-.926.63-.982.833a2.946,2.946,0,0,0,.442,1.228c.407.833.812,1.662.39,2.383s-1.353.771-2.28.819a1.074,1.074,0,0,0-1.444,1.444c-.048.927-.1,1.857-.819,2.28s-1.55.017-2.383-.39a2.945,2.945,0,0,0-1.229-.442c-.2.056-.516.516-.833.982-.536.787-1.078,1.584-1.952,1.584s-1.417-.8-1.952-1.584c-.317-.466-.631-.926-.833-.982a2.946,2.946,0,0,0-1.229.442c-.833.407-1.662.812-2.383.39s-.771-1.353-.819-2.28a1.074,1.074,0,0,0-1.444-1.444c-.927-.048-1.857-.1-2.28-.819s-.017-1.55.39-2.383a2.946,2.946,0,0,0,.442-1.228c-.056-.2-.516-.516-.982-.833-.787-.536-1.584-1.078-1.584-1.952s.8-1.417,1.584-1.952c.466-.317.926-.631.982-.833a2.946,2.946,0,0,0-.442-1.228c-.407-.833-.812-1.662-.39-2.383s1.353-.771,2.28-.819a1.074,1.074,0,0,0,1.444-1.444c.048-.927.1-1.857.819-2.28s1.55-.017,2.383.39a2.945,2.945,0,0,0,1.228.442c.2-.056.516-.516.833-.982C395.255,237.535,395.8,236.738,396.671,236.738Zm.908,2.3c-.348-.511-.7-1.029-.908-1.029s-.56.518-.908,1.029c-.447.657-.889,1.306-1.546,1.487A3.19,3.19,0,0,1,392.1,240c-.53-.259-1.058-.517-1.19-.44s-.165.668-.195,1.255a2.166,2.166,0,0,1-2.642,2.642c-.588.03-1.177.061-1.255.195s.18.66.44,1.19a3.191,3.191,0,0,1,.521,2.115c-.181.657-.83,1.1-1.487,1.546-.511.348-1.029.7-1.029.908s.518.56,1.029.908c.657.447,1.306.889,1.487,1.546a3.191,3.191,0,0,1-.521,2.115c-.259.53-.517,1.058-.44,1.19s.668.165,1.255.195a2.166,2.166,0,0,1,2.642,2.642c.03.588.061,1.177.195,1.255s.66-.18,1.19-.44a3.191,3.191,0,0,1,2.115-.521c.657.181,1.1.83,1.546,1.487.348.511.7,1.029.908,1.029s.56-.518.908-1.029c.447-.657.889-1.306,1.546-1.487a3.19,3.19,0,0,1,2.115.521c.531.259,1.058.517,1.19.44s.165-.668.2-1.255a2.166,2.166,0,0,1,2.642-2.642c.588-.03,1.177-.061,1.255-.195s-.18-.66-.44-1.19a3.19,3.19,0,0,1-.521-2.115c.181-.657.83-1.1,1.487-1.546.511-.348,1.029-.7,1.029-.908s-.518-.56-1.029-.908c-.657-.447-1.306-.889-1.487-1.546a3.19,3.19,0,0,1,.521-2.115c.259-.53.517-1.058.44-1.19s-.668-.165-1.255-.2a2.166,2.166,0,0,1-2.642-2.642c-.03-.588-.061-1.177-.195-1.255s-.66.18-1.19.44a3.191,3.191,0,0,1-2.115.521C398.468,240.341,398.026,239.691,397.579,239.035Z" transform="translate(-383.998 -236.738)" fill="#fc4c02"/><path d="M593.425,437.465a8.7,8.7,0,1,1-6.151,2.548A8.672,8.672,0,0,1,593.425,437.465Zm5.255,3.444a7.432,7.432,0,1,0,2.177,5.255A7.408,7.408,0,0,0,598.68,440.909Z" transform="translate(-580.751 -433.49)" fill="#fc4c02"/><path d="M780.7,721.969a.634.634,0,0,0-.9-.9l-5.3,5.3-2.563-2.563a.634.634,0,1,0-.9.9l3.007,3.007,0,0a.633.633,0,0,0,.9,0h0Z" transform="translate(-763.201 -711.3)" fill="#fc4c02"/><g transform="translate(0.411 18.853)"><path d="M410.373,1189.751a.631.631,0,0,0-1.089-.639l-4.46,7.593h0a.634.634,0,0,0,.62.95l3.683-.307,1.575,3.411.574-.265-.575.266a.634.634,0,0,0,1.148.007l4.11-7a.631.631,0,0,0-1.089-.639l-3.525,6-1.237-2.678a.634.634,0,0,0-.645-.405h0l-2.929.244Z" transform="translate(-404.735 -1188.801)" fill="#fc4c02"/><path d="M1079.033,1189.114a.631.631,0,1,0-1.089.639l3.842,6.541-2.929-.244h0a.634.634,0,0,0-.645.4l-1.236,2.679-3.525-6a.631.631,0,0,0-1.089.639l4.11,7a.634.634,0,0,0,1.147-.007l-.575-.266.574.265,1.575-3.411,3.682.307a.634.634,0,0,0,.62-.95h0Z" transform="translate(-1059.055 -1188.802)" fill="#fc4c02"/></g></g></g></svg>