<svg xmlns="http://www.w3.org/2000/svg" width="53.24" height="66.475" viewBox="0 0 53.24 66.475"><g transform="translate(-89.915 -48.628)"><path d="M140.8,48.628H92.269a2.356,2.356,0,0,0-2.354,2.352v61.769a2.357,2.357,0,0,0,2.354,2.354H140.8a2.356,2.356,0,0,0,2.352-2.354V50.98A2.355,2.355,0,0,0,140.8,48.628Zm1.2,64.121a1.2,1.2,0,0,1-1.2,1.2H92.269a1.2,1.2,0,0,1-1.2-1.2v-2.384H142Zm0-3.538H91.069V65.777H142Zm0-44.588H91.069V50.98a1.2,1.2,0,0,1,1.2-1.2H140.8a1.2,1.2,0,0,1,1.2,1.2Z" fill="#fc4c02"/><path d="M113.914,82.083h45.547V72.628H113.914Zm1.154-8.3h43.239v7.147H115.068Z" transform="translate(-20.152 -20.153)" fill="#fc4c02"/><path d="M160.182,213.589A18.289,18.289,0,1,0,141.893,195.3,18.31,18.31,0,0,0,160.182,213.589Zm0-35.425A17.135,17.135,0,1,1,143.047,195.3,17.155,17.155,0,0,1,160.182,178.164Z" transform="translate(-43.647 -107.805)" fill="#fc4c02"/><path d="M186.395,231.307a14.186,14.186,0,0,0,13.212-9.163,1.331,1.331,0,0,0-.039-1.033,1.408,1.408,0,0,0-.8-.728,3.387,3.387,0,0,1,0-6.372,1.408,1.408,0,0,0,.8-.728,1.331,1.331,0,0,0,.039-1.033,14.107,14.107,0,0,0-26.407-.045,1.364,1.364,0,0,0,.038,1.069,1.379,1.379,0,0,0,.8.724,3.388,3.388,0,0,1,0,6.4,1.379,1.379,0,0,0-.8.724,1.365,1.365,0,0,0-.038,1.069A14.193,14.193,0,0,0,186.395,231.307Zm-12.111-9.7a.234.234,0,0,1,.137-.121,4.542,4.542,0,0,0,0-8.578.232.232,0,0,1-.137-.122.216.216,0,0,1-.005-.172,12.953,12.953,0,0,1,24.248.042.181.181,0,0,1-.006.144.247.247,0,0,1-.141.126,4.541,4.541,0,0,0,0,8.542.247.247,0,0,1,.141.126.181.181,0,0,1,.006.144,12.953,12.953,0,0,1-24.248.042A.218.218,0,0,1,174.284,221.608Z" transform="translate(-69.859 -129.703)" fill="#fc4c02"/><circle cx="0.673" cy="0.673" r="0.673" transform="translate(98.942 56.529)" fill="#fc4c02"/><circle cx="0.673" cy="0.673" r="0.673" transform="translate(101.877 56.529)" fill="#fc4c02"/><circle cx="0.673" cy="0.673" r="0.673" transform="translate(104.813 56.529)" fill="#fc4c02"/><rect width="24.07" height="1.154" transform="translate(109.985 56.625)" fill="#fc4c02"/></g></svg>