<svg xmlns="http://www.w3.org/2000/svg" width="68.5" height="68.875" viewBox="0 0 68.5 68.875"><g transform="translate(1.25 1.25)"><path d="M24.052,39.513h0A4.539,4.539,0,0,0,22.725,36.3L8.251,21.827A4.539,4.539,0,0,0,5.039,20.5h0A4.539,4.539,0,0,0,.5,25.039h0a4.539,4.539,0,0,0,1.327,3.212L16.3,42.725a4.539,4.539,0,0,0,3.212,1.327h0A4.539,4.539,0,0,0,24.052,39.513Z" transform="translate(41.948 22.322)" fill="none" stroke="#fff" stroke-linecap="round" stroke-linejoin="round" strokeWidth="2.5"/><line x2="3.94" y2="3.94" transform="translate(39.836 40.21)" fill="none" stroke="#fff" stroke-linecap="round" stroke-linejoin="round" strokeWidth="2.5"/><line y1="6" x2="6" transform="translate(45 45)" fill="none" stroke="#fff" stroke-linecap="round" stroke-linejoin="round" strokeWidth="2.5"/><line y1="6" x2="7" transform="translate(57 58)" fill="none" stroke="#fff" stroke-linecap="round" stroke-linejoin="round" strokeWidth="2.5"/><circle cx="23.5" cy="23.5" r="23.5" transform="translate(0)" fill="none" stroke="#fff" stroke-linecap="round" stroke-linejoin="round" strokeWidth="2.5"/><ellipse cx="19" cy="19.5" rx="19" ry="19.5" transform="translate(4 4)" fill="none" stroke="#fff" stroke-linecap="round" stroke-linejoin="round" strokeWidth="2.5"/><path d="M13.5,4.5A14.988,14.988,0,0,1,28.488,19.488" transform="translate(9.678 4.064)" fill="none" stroke="#fff" stroke-linecap="round" stroke-linejoin="round" strokeWidth="2.5"/></g></svg>