<svg xmlns="http://www.w3.org/2000/svg" width="69.946" height="70.171" viewBox="0 0 69.946 70.171"><g transform="translate(-1.1 -0.994)"><path d="M65.016,31.479H67.1a3.884,3.884,0,0,0,3.837-3.837,3.767,3.767,0,0,0-3.179-3.728,4.594,4.594,0,0,0,.439-1.644,3.679,3.679,0,0,0-1.754-3.179,4.134,4.134,0,0,0,.767-2.3,3.679,3.679,0,0,0-1.754-3.179,4.134,4.134,0,0,0,.767-2.3,3.884,3.884,0,0,0-3.837-3.837h0V3.193a1.1,1.1,0,1,0-2.193,0V7.469c-9.867.329-5.811-.987-13.046,2.3-.767.329-1.425.329-5.043.219v-6.8a1.1,1.1,0,1,0-2.193,0V10.1H34.319a10.128,10.128,0,0,0-4.276-3.179V4.838c0-4.6-6.8-5.372-7.565-.658a3.671,3.671,0,0,0-4.824,1.206,4.134,4.134,0,0,0-2.3-.767,3.714,3.714,0,0,0-3.179,1.644,4.053,4.053,0,0,0-2.3-.658A3.738,3.738,0,0,0,6.033,9.442V9.99H2.2a1.036,1.036,0,0,0-1.1,1.1,1.036,1.036,0,0,0,1.1,1.1H6.033v6.468c0,1.206.329,1.864,1.316,4.056.219.548.548,1.206.987,2.083.329.658.329.767.329,4.056v1.425H2.2a1.1,1.1,0,1,0,0,2.193H8.665V38.5a9.1,9.1,0,0,0-1.535,2.85H4.937c-4.6,0-5.262,6.688-.658,7.565a4.594,4.594,0,0,0-.439,1.644,3.679,3.679,0,0,0,1.754,3.179,4.134,4.134,0,0,0-.767,2.3,3.679,3.679,0,0,0,1.754,3.179A4.341,4.341,0,0,0,5.814,61.3v.548a3.887,3.887,0,0,0,2.85,3.289V69.85a1.036,1.036,0,0,0,1.1,1.1,1.036,1.036,0,0,0,1.1-1.1v-4.6c7.455-.11,8.442.329,10.2-.439,3.728-1.645,4.056-2.083,5.153-2.083h2.741V69.85a1.1,1.1,0,1,0,2.193,0V62.724h6.03a8.974,8.974,0,0,0,3.837,2.522v2.083a3.884,3.884,0,0,0,3.837,3.837,3.767,3.767,0,0,0,3.728-3.179,4.594,4.594,0,0,0,1.644.439,3.679,3.679,0,0,0,3.179-1.754,5.175,5.175,0,0,0,1.864.767h.658a4.252,4.252,0,0,0,2.96-1.645,4.134,4.134,0,0,0,2.3.767,3.712,3.712,0,0,0,3.837-3.728H69.95a1.1,1.1,0,1,0,0-2.193H65.016c-.329-8.88.767-6.688-1.316-11.183-1.425-3.07-1.316-1.973-1.206-6.907H69.95a1.1,1.1,0,1,0,0-2.193H62.385V35.425A8.628,8.628,0,0,0,65.016,31.479ZM48.133,11.854c.877-.439,1.535-.658,2.083-.987,3.618-1.754,1.206-.987,12.389-1.1a1.686,1.686,0,0,1,1.644,1.644c0,2.412-3.289,1.425-4.495,1.644a1.1,1.1,0,1,0,0,2.193H62.6c.219.11,2.631-.329,2.631,1.644,0,2.522-3.728,1.425-5.372,1.644a1.1,1.1,0,1,0,0,2.193h4.714a1.644,1.644,0,0,1,0,3.289H59.863a1.1,1.1,0,1,0,0,2.193h7.455a1.644,1.644,0,1,1,0,3.289H56.9a1.1,1.1,0,0,0,0,2.193h5.92a5.591,5.591,0,0,1-3.837,3.289,30.426,30.426,0,0,0-3.179,0c-4.166.11-2.631-.439-6.688-3.289-2.193-1.864-3.179-.987-17.98-1.206V26.326c0-1.644,1.206-2.193,3.289-4.933,1.316-1.535,1.206-2.96,1.206-5.043-.11-3.837.11-2.85-.11-3.947C46.269,12.183,46.488,12.512,48.133,11.854ZM31.03,32.465c3.837.11,6.688,0,8.88,0v7.784H31.03Zm-22.8-13.7V9.442A1.545,1.545,0,0,1,9.871,7.8a1.545,1.545,0,0,1,1.644,1.644v2.85a1.1,1.1,0,0,0,2.193,0V8.565a1.545,1.545,0,0,1,1.644-1.644c2.193,0,1.535,2.412,1.644,5.372a1.1,1.1,0,1,0,2.193,0V7.579a1.686,1.686,0,0,1,1.644-1.644h.11a1.727,1.727,0,0,1,1.535,1.644v4.714a1.1,1.1,0,1,0,2.193,0V4.838a1.593,1.593,0,0,1,1.535-1.644h.11A1.727,1.727,0,0,1,27.85,4.838V15.253a1.1,1.1,0,1,0,2.193,0V9.333a5.616,5.616,0,0,1,3.289,3.837,30.426,30.426,0,0,0,0,3.179c.11,4.166-.329,2.631-3.289,6.688-1.973,2.412-.877,4.385-1.206,17.432-3.618-.329-2.522.987-6.139-2.083-2.412-2.083-2.631-2.412-6.359-2.3-3.179.11-3.508-.329-5.482.767V28.957c0-3.4,0-3.837-.439-4.933-.439-.877-.658-1.535-.987-2.083C8.445,19.748,8.226,19.419,8.226,18.761ZM24.013,60.97c-6.688,2.741-.877,1.973-14.362,2.083a1.648,1.648,0,0,1-1.644-1.535v-.11c0-3.289,5.591-.11,5.591-2.741a1.036,1.036,0,0,0-1.1-1.1H8.774A1.686,1.686,0,0,1,7.13,55.927c0-2.522,3.728-1.425,5.372-1.644a1.1,1.1,0,1,0,0-2.193H7.788a1.644,1.644,0,1,1,0-3.289H12.5a1.1,1.1,0,1,0,0-2.193H5.047A1.686,1.686,0,0,1,3.4,44.963v-.11a1.727,1.727,0,0,1,1.644-1.535H15.462a1.1,1.1,0,1,0,0-2.193H9.432a5.591,5.591,0,0,1,3.837-3.289c6.468.329,5.043-.877,8.113,1.864,2.083,1.864,3.07,2.631,4.933,2.631h13.7v3.508c0,2.631-4.495,4.385-4.495,8.113.219,4.714-.329,4.6.329,6.468C26.645,60.641,25.767,60.2,24.013,60.97ZM60.631,48.252c2.96,6.359,1.973,2.193,2.083,14.362a1.545,1.545,0,0,1-1.644,1.644c-3.289,0-.11-5.482-2.741-5.482a1.036,1.036,0,0,0-1.1,1.1V63.6a1.686,1.686,0,0,1-1.644,1.644h-.11A1.727,1.727,0,0,1,53.943,63.6V59.874a1.1,1.1,0,1,0-2.193,0v4.714a1.686,1.686,0,0,1-1.644,1.645c-3.508,0,0-7.455-2.741-7.455-1.864,0-.877,2.631-1.1,5.811v2.741a1.644,1.644,0,0,1-3.289,0V56.913a1.1,1.1,0,1,0-2.193,0v5.92A5.591,5.591,0,0,1,37.5,59V54.063c0-2.631,4.495-4.385,4.495-8.113V32.465c4.056-.11,4.6,0,5.482.658l3.07,2.631c2.083,1.754,4.056.987,8.222,1.206a5.782,5.782,0,0,0,1.316-.329C60.3,46.389,59.973,46.718,60.631,48.252Z" transform="translate(0 0)" fill="#fff"/></g></svg>