<svg xmlns="http://www.w3.org/2000/svg" width="72.701" height="68.137" viewBox="0 0 72.701 68.137"><g><path fill="#fc4c02" stroke="#fc4c02" stroke-width=".3" d="M75.107,67.764H71.182V45.408h.549a.284.284,0,0,0,.283-.283V43.3a.284.284,0,0,0-.283-.283h-4.66a.284.284,0,0,0-.283.283v1.821a.284.284,0,0,0,.283.283h.549v5.4H66.341V47.037a.284.284,0,0,0-.283-.283h-.532V7.313a.284.284,0,0,0-.283-.283H13.14a.284.284,0,0,0-.283.283V46.76h-.452a.284.284,0,0,0-.283.283v3.772H10.759v-5.4h.549a.284.284,0,0,0,.283-.283V43.31a.284.284,0,0,0-.283-.283H6.653a.284.284,0,0,0-.283.283v1.821a.284.284,0,0,0,.283.283h.554V67.77H3.283A.284.284,0,0,0,3,68.053v3.393a.284.284,0,0,0,.283.283h2v2.856a.284.284,0,0,0,.283.283H72.834a.284.284,0,0,0,.283-.283V71.729h2a.284.284,0,0,0,.283-.283V68.053A.3.3,0,0,0,75.107,67.764ZM67.359,43.587h4.1v1.261h-4.1Zm3.263,1.821V67.764H68.185V45.408ZM40.971,67.764V61.95h1.4v4.021a.284.284,0,0,0,.283.283H66.064a.284.284,0,0,0,.283-.283V61.95h1.284v5.814Zm-3,0V45.408h2.438V67.764Zm-27.208,0V61.95h1.363v4.021a.284.284,0,0,0,.283.283H35.768a.284.284,0,0,0,.283-.283V61.95h1.369v5.814Zm0-6.374V59.846h2.5V61.39Zm0-2.1V53.473h1.363v5.814Zm25-12.533h-17.9V34.1H38.912v8.93H36.865a.284.284,0,0,0-.283.283v1.821a.284.284,0,0,0,.283.283h.549v5.4H36.045V47.042A.284.284,0,0,0,35.768,46.754Zm24.754,0H42.651a.284.284,0,0,0-.283.283v3.772h-1.4v-5.4h.554a.284.284,0,0,0,.283-.283V43.3a.284.284,0,0,0-.283-.283H39.478V12.244H60.522ZM40.971,61.39V59.846h2.771V61.39ZM37.148,44.848V43.587h4.1v1.261Zm3.823,14.438V53.473h1.4v5.814Zm0-6.374V51.369h2.771v1.544ZM38.912,33.537H17.868V12.25H38.912Zm-1.5,17.832v1.544H34.987V51.369Zm0,2.1v5.814H36.045V53.473Zm0,6.374V61.39H34.987V59.846Zm30.212-6.374v5.814H66.341V53.473Zm0,6.374V61.39H65.108V59.846Zm0-6.934H65.108V51.369h2.517Zm-1.844-2.1h-.95a.284.284,0,0,0-.283.283v2.1a.284.284,0,0,0,.283.283h.95v5.814h-.95a.284.284,0,0,0-.283.283v2.1a.284.284,0,0,0,.283.283h.95V65.7H42.933V61.962h1.1a.284.284,0,0,0,.283-.283v-2.1a.284.284,0,0,0-.283-.283h-1.1V53.473h1.1a.284.284,0,0,0,.283-.283v-2.1a.284.284,0,0,0-.283-.283h-1.1V47.314H65.781ZM13.417,7.59h51.55V46.754H61.082V11.967a.284.284,0,0,0-.283-.283H17.591a.284.284,0,0,0-.283.283V46.754H13.417V7.59Zm-.73,39.73h22.8v3.489H34.7a.284.284,0,0,0-.283.283v2.1a.284.284,0,0,0,.283.283h.78v5.814H34.7a.284.284,0,0,0-.283.283v2.1a.284.284,0,0,0,.283.283h.78V65.7h-22.8V61.962h.854a.284.284,0,0,0,.283-.283v-2.1a.284.284,0,0,0-.283-.283h-.854V53.473h.854a.284.284,0,0,0,.283-.283v-2.1a.284.284,0,0,0-.283-.283h-.854Zm.577,4.049v1.544h-2.5V51.369ZM6.936,43.587h4.1v1.261h-4.1Zm.831,1.821h2.438V67.764H7.768ZM72.545,74.3H5.845V71.723h66.7Zm2.285-3.139H3.56V68.33H74.83Z" transform="translate(-2.85 -6.88)"/></g></svg>