<svg xmlns="http://www.w3.org/2000/svg" width="19.296" height="19.349" viewBox="0 0 19.296 19.349"><g transform="translate(-17.397 -16.75)"><g transform="translate(17.397 16.75)"><g transform="translate(0 0)"><path d="M27.048,16.75h-.005a9.674,9.674,0,0,0-7.809,15.345l-1.2,3.594L21.74,34.5a9.545,9.545,0,0,0,5.308,1.6,9.674,9.674,0,0,0,0-19.349Zm0,0" transform="translate(-17.397 -16.75)" fill="#fc4c02"/><path d="M128.705,135.523a2.751,2.751,0,0,1-1.912,1.381c-.509.109-1.174.2-3.412-.737a12.223,12.223,0,0,1-4.851-4.3,5.6,5.6,0,0,1-1.157-2.952,3.129,3.129,0,0,1,1-2.382,1.41,1.41,0,0,1,1-.351c.121,0,.229.006.327.011.286.012.43.029.619.483.235.569.807,1.973.876,2.118a.585.585,0,0,1,.041.53,1.69,1.69,0,0,1-.315.449c-.144.167-.28.294-.424.472-.131.155-.28.322-.114.609a8.679,8.679,0,0,0,1.58,1.973,7.161,7.161,0,0,0,2.285,1.415.613.613,0,0,0,.687-.109,11.823,11.823,0,0,0,.761-1.013.542.542,0,0,1,.7-.213c.263.092,1.655.783,1.941.926s.475.213.544.334a2.447,2.447,0,0,1-.167,1.358Zm0,0" transform="translate(-113.388 -121.818)" fill="#1f2224"/></g></g></g></svg>