<svg xmlns="http://www.w3.org/2000/svg" width="65.883" height="48.757" viewBox="0 0 65.883 48.757"><g transform="translate(-9.558 -17.796)"><path d="M14.113,36.759V25.5a7.076,7.076,0,0,1,7.055-7.055H63.831A7.076,7.076,0,0,1,70.886,25.5V36.759" fill="none" stroke="#fc4c02" stroke-miterlimit="10" stroke-width="1.3"/><path d="M10.208,66.553V46.592a5.054,5.054,0,0,1,5.039-5.039h54.5a5.054,5.054,0,0,1,5.039,5.039V66.553" fill="none" stroke="#fc4c02" stroke-miterlimit="10" stroke-width="1.3"/><path d="M22.945,36.759V29.166a3.032,3.032,0,0,1,3.023-3.023h9.407A3.033,3.033,0,0,1,38.4,29.166v7.593" fill="none" stroke="#fc4c02" stroke-miterlimit="10" stroke-width="1.3"/><path d="M46.6,36.759V29.166a3.032,3.032,0,0,1,3.023-3.023H59.03a3.032,3.032,0,0,1,3.023,3.023v7.593" fill="none" stroke="#fc4c02" stroke-miterlimit="10" stroke-width="1.3"/><line x2="63.869" transform="translate(10.565 58.324)" fill="none" stroke="#fc4c02" stroke-miterlimit="10" stroke-width="1.3"/></g></svg>