<svg xmlns="http://www.w3.org/2000/svg" width="94.635" height="57.14" viewBox="0 0 94.635 57.14"><g transform="translate(-63 -272.863)"><path d="M186.364,274.678a2.046,2.046,0,0,0-2.06,0L150.13,294.4a2.056,2.056,0,0,0,0,3.564l34.39,19.868a2.046,2.046,0,0,0,2.06,0L220.754,298.1a2.056,2.056,0,0,0,0-3.564Zm-.814,38.984-30.27-17.468,30.054-17.355,30.27,17.478Z" transform="translate(-75.887 0)" fill="#fc4c02" stroke="#fff" stroke-width="3"/><path d="M98.282,561.731a2.055,2.055,0,0,0,.031,4.109l7.673.01H106a1.118,1.118,0,0,0,.185-.01h.041a.888.888,0,0,0,.175-.031h.021a.857.857,0,0,0,.154-.041c.01,0,.031-.01.041-.01.051-.021.113-.041.165-.062.01,0,.01-.01.021-.01a1.044,1.044,0,0,0,.154-.072c.01,0,.021-.01.031-.01.051-.031.113-.062.165-.093h0a1.471,1.471,0,0,0,.154-.113l.01-.01a.894.894,0,0,0,.144-.134h0c.041-.041.082-.093.124-.134.01-.01.01-.021.021-.021.041-.052.072-.093.113-.155,0-.01.01-.01.01-.021l.062-.093c.01-.01.01-.021.021-.031.021-.031.031-.062.052-.093s.031-.062.041-.093a.709.709,0,0,1,.031-.082c.01-.031.031-.072.041-.1s.01-.052.021-.082l.031-.124c0-.021.01-.052.01-.072.01-.041.01-.082.021-.124a.175.175,0,0,1,.01-.072c0-.041.01-.082.01-.124V563.8l-.021-4.429a2.064,2.064,0,0,0-2.06-2.05h-.01a2.066,2.066,0,0,0-2.05,2.07v.845l-29.621-17.1a2.055,2.055,0,0,0-.031-4.109L66.6,539h-.062a.5.5,0,0,0-.124.01c-.031,0-.062.01-.093.01a.44.44,0,0,0-.113.021c-.031.01-.062.01-.093.021s-.072.021-.1.031l-.093.031a.427.427,0,0,0-.1.041c-.031.01-.051.021-.082.031a.483.483,0,0,0-.1.051c-.021.01-.051.031-.072.041s-.072.041-.1.062-.041.031-.062.041-.072.052-.1.072-.041.031-.062.052-.062.052-.093.082c-.01.01-.021.01-.021.021l-.031.031c-.031.031-.051.062-.082.093s-.041.052-.062.072a.573.573,0,0,1-.062.082l-.062.093c-.01.021-.021.031-.031.051s-.01.021-.021.031c-.021.031-.031.062-.051.093s-.031.062-.041.093a.709.709,0,0,1-.031.082c-.01.031-.031.072-.041.1s-.01.052-.021.082l-.031.124c0,.021-.01.051-.01.072-.01.041-.01.082-.021.124a.175.175,0,0,1-.01.072c0,.041-.01.082-.01.124v.031l.021,4.429a2.064,2.064,0,0,0,2.06,2.05h.01a2.066,2.066,0,0,0,2.05-2.07v-.845Z" transform="translate(0 -237.347)" fill="#fc4c02" stroke="#fff" stroke-width="3"/><path d="M575.015,541.016a.176.176,0,0,0-.01-.072.513.513,0,0,0-.021-.124c0-.021-.01-.052-.01-.072l-.031-.124c-.01-.031-.01-.051-.021-.082a.309.309,0,0,0-.041-.1.724.724,0,0,0-.031-.082c-.01-.031-.031-.062-.041-.093s-.031-.062-.052-.093c-.01-.01-.01-.021-.021-.031s-.021-.031-.031-.052l-.062-.093a.578.578,0,0,0-.062-.082c-.021-.021-.041-.052-.062-.072s-.052-.062-.082-.093l-.031-.031c-.01-.01-.021-.01-.021-.021a.67.67,0,0,0-.093-.082c-.021-.021-.041-.031-.062-.052a.37.37,0,0,0-.1-.072c-.021-.01-.041-.031-.062-.041s-.072-.041-.1-.062-.052-.031-.072-.041-.072-.031-.1-.052-.052-.021-.082-.031a.427.427,0,0,1-.1-.041l-.093-.031c-.031-.01-.072-.021-.1-.031s-.062-.01-.093-.021-.072-.01-.113-.021-.062-.01-.082-.01a.5.5,0,0,1-.124-.01h-.052l-7.683.01a2.055,2.055,0,0,0-.031,4.109l-29.591,17.1v-.844a2.059,2.059,0,0,0-2.05-2.07h-.01a2.064,2.064,0,0,0-2.06,2.05l-.021,4.429v.031a.5.5,0,0,0,.01.124.175.175,0,0,0,.01.072.519.519,0,0,0,.021.124c0,.021.01.052.01.072l.031.124c.01.031.01.052.021.082a.309.309,0,0,0,.041.1.713.713,0,0,0,.031.082c.01.031.031.062.041.093s.031.062.051.093c.01.01.01.021.021.031l.062.093c0,.01.01.01.01.021a1.474,1.474,0,0,0,.113.154c.01.01.01.021.021.021a1.591,1.591,0,0,0,.124.134h0a1.708,1.708,0,0,0,.144.134l.01.01a1.479,1.479,0,0,0,.154.113h0a.856.856,0,0,0,.165.093c.01,0,.021.01.031.01a1.045,1.045,0,0,0,.155.072c.01,0,.01.01.021.01.052.021.113.041.165.062.01,0,.031.01.041.01.052.01.1.031.155.041h.021l.175.031h.041a1.124,1.124,0,0,0,.185.01h.01l7.673-.01a2.055,2.055,0,0,0,.031-4.109l29.6-17.087v.845a2.059,2.059,0,0,0,2.05,2.07h.01a2.064,2.064,0,0,0,2.06-2.05l.021-4.429v-.031A.2.2,0,0,1,575.015,541.016Z" transform="translate(-418.901 -237.437)" fill="#fc4c02" stroke="#fff" stroke-width="3"/></g></svg>