<svg xmlns="http://www.w3.org/2000/svg" width="67.581" height="55.029" viewBox="0 0 67.581 55.029"><path d="M57.921,39.879a7.752,7.752,0,1,0,7.752,7.753A7.761,7.761,0,0,0,57.921,39.879Zm0,14.432A6.68,6.68,0,1,1,64.6,47.632,6.687,6.687,0,0,1,57.921,54.311Z" transform="translate(-23.26 -18.49)" fill="#fc4c02"/><path d="M46.755,15.8a20.669,20.669,0,1,0,20.669,20.67A20.693,20.693,0,0,0,46.755,15.8Zm0,40.266a19.6,19.6,0,1,1,19.6-19.6A19.619,19.619,0,0,1,46.755,56.062Z" transform="translate(-12.094 -7.324)" fill="#fc4c02"/><path d="M42.994,7.685a25.02,25.02,0,1,0,25.019,25.02A25.048,25.048,0,0,0,42.994,7.685Zm0,48.967A23.947,23.947,0,1,1,66.941,32.705,23.974,23.974,0,0,1,42.994,56.652Z" transform="translate(-8.334 -3.563)" fill="#fc4c02"/><path d="M119.635.009a.536.536,0,0,0-.6.336c-4.243,11.122-6.133,21.235-5.776,30.916a1.514,1.514,0,0,0,1.522,1.459h.733l-1.051,19.29a2.806,2.806,0,0,0,2.8,2.96,2.81,2.81,0,0,0,2.807-2.806V.536A.536.536,0,0,0,119.635.009ZM119,52.163a1.736,1.736,0,0,1-1.734,1.734,1.734,1.734,0,0,1-1.732-1.828l1.082-19.856a.536.536,0,0,0-.535-.566h-1.3a.451.451,0,0,1-.45-.426c-.321-8.707,1.208-17.782,4.669-27.659Z" transform="translate(-52.493 0)" fill="#fc4c02"/><path d="M7.61,20.934l.3-.219c1.5-1.094,3.206-2.334,3.206-4.045L10.741,4.186a1.459,1.459,0,0,0-2.918.043v8.842a.3.3,0,0,1-.593,0L7.187,2.582a1.629,1.629,0,0,0-3.259,0L3.885,13.073a.3.3,0,0,1-.592,0V4.229A1.459,1.459,0,0,0,.375,4.185L0,16.686c0,1.7,1.7,2.937,3.207,4.03l.3.218L1.95,51.679A3.613,3.613,0,0,0,8.177,54.35a3.584,3.584,0,0,0,.99-2.672ZM7.4,53.612a2.54,2.54,0,0,1-4.378-1.878L4.592,20.7a.538.538,0,0,0-.215-.458c-.174-.13-.355-.261-.538-.395-1.3-.943-2.766-2.012-2.766-3.146L1.448,4.217a.387.387,0,0,1,.773.012v8.842a1.369,1.369,0,0,0,2.738.005L5,2.586a.557.557,0,0,1,1.113,0l.042,10.491A1.369,1.369,0,0,0,8.9,13.072V4.229a.387.387,0,0,1,.773-.012l.375,12.468c0,1.15-1.469,2.219-2.764,3.162-.185.134-.365.266-.54.4a.536.536,0,0,0-.215.458L8.1,51.733A2.525,2.525,0,0,1,7.4,53.612Z" transform="translate(0 -0.445)" fill="#fc4c02"/></svg>