<svg xmlns="http://www.w3.org/2000/svg" width="69.512" height="64.905" viewBox="0 0 69.512 64.905"><g transform="translate(-2.495 -3.39)"><path d="M15.905,68.113a1.323,1.323,0,0,0,1.274.036l20.072-10.34,20.072,10.34a1.322,1.322,0,0,0,1.369-.1,1.262,1.262,0,0,0,.517-1.246L55.376,44.9l16.239-15.51a1.256,1.256,0,0,0,.329-1.306,1.293,1.293,0,0,0-1.05-.867l-22.441-3.2L38.416,4.1a1.312,1.312,0,0,0-2.331,0L26.049,24.026l-22.441,3.2a1.293,1.293,0,0,0-1.049.867,1.256,1.256,0,0,0,.328,1.305L19.126,44.9l-3.834,21.9a1.265,1.265,0,0,0,.613,1.307Zm2.4-3.42,3.5-20.018a1.258,1.258,0,0,0-.374-1.127L6.588,29.371,27.1,26.451a1.3,1.3,0,0,0,.979-.7L37.251,7.541l9.173,18.213a1.3,1.3,0,0,0,.979.7l20.511,2.92L53.072,43.547a1.258,1.258,0,0,0-.374,1.128l3.5,20.017L37.856,55.241a1.324,1.324,0,0,0-1.21,0Z" transform="translate(0 0)" fill="#fff"/></g></svg>