<svg xmlns="http://www.w3.org/2000/svg" width="30.853" height="27.708" viewBox="0 0 30.853 27.708"><g transform="translate(0.019 -3.5)"><path d="M28.445,21.815h2.407V16.037H28.108a12.49,12.49,0,0,0-1.526-3.683l1.926-1.926-4.069-4.1L22.513,8.256a12.49,12.49,0,0,0-3.7-1.512V4H13.037V6.745A12.49,12.49,0,0,0,9.354,8.271L7.428,6.345l-4.1,4.069L5.256,12.34a12.49,12.49,0,0,0-1.512,3.7H1v5.778H3.407" transform="translate(-0.519 0)" fill="none" stroke="#fff" stroke-miterlimit="10" stroke-width="1"/><line x2="5" transform="translate(2 24.695)" fill="none" stroke="#fff" stroke-miterlimit="10" stroke-width="1"/><line x2="1" transform="translate(0 24.695)" fill="none" stroke="#fff" stroke-miterlimit="10" stroke-width="1"/><line x2="2" transform="translate(0 27.695)" fill="none" stroke="#fff" stroke-miterlimit="10" stroke-width="1"/><path d="M32,30v2.408h1.444" transform="translate(-16.592 -13.481)" fill="none" stroke="#fff" stroke-miterlimit="10" stroke-width="1"/><line x2="1" transform="translate(19 18.695)" fill="none" stroke="#fff" stroke-miterlimit="10" stroke-width="1"/><line x2="1" transform="translate(12 18.695)" fill="none" stroke="#fff" stroke-miterlimit="10" stroke-width="1"/><line x2="1" transform="translate(15 21.695)" fill="none" stroke="#fff" stroke-miterlimit="10" stroke-width="1"/><path d="M20.606,15.11a9.63,9.63,0,0,0,1.016,19.207H32.7v1.444l3.37-3.37-3.37-3.37v1.445H21.622" transform="translate(-6.214 -5.761)" fill="none" stroke="#fff" stroke-miterlimit="10" stroke-width="1"/><path d="M33.5,28.852A9.63,9.63,0,0,0,26.28,13.469V12l-3.37,3.37,3.37,3.37v-1.42a5.778,5.778,0,1,1-1.367.053" transform="translate(-10.391 -4.148)" fill="none" stroke="#fff" stroke-miterlimit="10" stroke-width="1"/><line x2="11.556" transform="translate(3.852 28.576)" fill="none" stroke="#fff" stroke-miterlimit="10" stroke-width="1"/><line x2="1" transform="translate(0 30.695)" fill="none" stroke="#fff" stroke-miterlimit="10" stroke-width="1"/><line x2="5" transform="translate(2 30.695)" fill="none" stroke="#fff" stroke-miterlimit="10" stroke-width="1"/><line x2="12" transform="translate(7 30.695)" fill="none" stroke="#fff" stroke-miterlimit="10" stroke-width="1"/><line x2="5" transform="translate(20 30.695)" fill="none" stroke="#fff" stroke-miterlimit="10" stroke-width="1"/></g></svg>