<svg xmlns="http://www.w3.org/2000/svg" width="68.524" height="77.114" viewBox="0 0 68.524 77.114"><g transform="translate(-10.013 -5)"><path d="M44.12,81.26h9.822a.982.982,0,0,0,0-1.955H44.12a.982.982,0,0,0,0,1.955Z" transform="translate(-4.756 -10.639)" fill="#fff"/><path d="M44.12,85.658h9.822a.982.982,0,0,0,0-1.955H44.12a.982.982,0,0,0,0,1.955Z" transform="translate(-4.756 -11.269)" fill="#fff"/><path d="M50.04,13.381A1.165,1.165,0,0,0,51.2,12.217V6.164a1.164,1.164,0,0,0-2.329,0v6.053A1.165,1.165,0,0,0,50.04,13.381Z" transform="translate(-5.564 0)" fill="#fff"/><path d="M73.261,12.908a1.222,1.222,0,0,0-.972.457l-3.558,4.9a1.162,1.162,0,0,0,.938,1.846,1.166,1.166,0,0,0,.944-.479l3.558-4.9a1.166,1.166,0,0,0-.259-1.627A1.1,1.1,0,0,0,73.261,12.908Z" transform="translate(-8.375 -1.132)" fill="#fff"/><path d="M87.112,33.293l-5.758,1.871a1.137,1.137,0,0,0-.675.577,1.151,1.151,0,0,0-.072.89,1.163,1.163,0,0,0,1.467.746l5.757-1.87a1.171,1.171,0,0,0,.747-1.469A1.183,1.183,0,0,0,87.112,33.293Z" transform="translate(-10.1 -4.043)" fill="#fff"/><path d="M87.686,58.036l-5.755-1.87a1.211,1.211,0,0,0-1.468.745,1.166,1.166,0,0,0,.747,1.467l5.755,1.872a1.17,1.17,0,0,0,1.468-.748A1.164,1.164,0,0,0,87.686,58.036Z" transform="translate(-10.079 -7.319)" fill="#fff"/><path d="M70.234,73.246a1.286,1.286,0,0,0-1.626-.257,1.163,1.163,0,0,0-.256,1.625l3.558,4.9a1.169,1.169,0,0,0,.944.479,1.162,1.162,0,0,0,.937-1.846Z" transform="translate(-8.321 -9.708)" fill="#fff"/><path d="M29.377,72.51a1.206,1.206,0,0,0-.972.458l-3.558,4.9a1.162,1.162,0,0,0,.939,1.846,1.162,1.162,0,0,0,.943-.48l3.558-4.9a1.167,1.167,0,0,0-.259-1.627A1.112,1.112,0,0,0,29.377,72.51Z" transform="translate(-2.092 -9.666)" fill="#fff"/><path d="M16.932,55.662a1.137,1.137,0,0,0-.356.057L10.817,57.59a1.166,1.166,0,0,0-.746,1.466,1.162,1.162,0,0,0,1.466.747l5.757-1.87a1.164,1.164,0,0,0-.362-2.271Z" transform="translate(0 -7.254)" fill="#fff"/><path d="M17.438,34.718l-5.754-1.87a1.209,1.209,0,0,0-1.469.746,1.164,1.164,0,0,0,.747,1.467l5.755,1.871a1.17,1.17,0,0,0,1.468-.748A1.163,1.163,0,0,0,17.438,34.718Z" transform="translate(-0.021 -3.98)" fill="#fff"/><path d="M28.783,19.355a1.169,1.169,0,0,0,.944.479,1.162,1.162,0,0,0,.937-1.846l-3.557-4.9a1.211,1.211,0,0,0-.974-.457,1.109,1.109,0,0,0-.653.2,1.163,1.163,0,0,0-.256,1.625Z" transform="translate(-2.146 -1.093)" fill="#fff"/><path d="M67.552,41.189A20.9,20.9,0,1,0,32.535,58.43,13.255,13.255,0,0,1,36.8,68.1v8.291a4.8,4.8,0,0,0,4.5,4.78,5.624,5.624,0,0,0,5.447,3.406,5.624,5.624,0,0,0,5.447-3.406,4.8,4.8,0,0,0,4.5-4.78V68.1a13.256,13.256,0,0,1,4.264-9.672A20.82,20.82,0,0,0,67.552,41.189ZM46.743,81.972a3.743,3.743,0,0,1-2.372-.784h4.743A3.748,3.748,0,0,1,46.743,81.972Zm7.337-5.58a2.191,2.191,0,0,1-2.188,2.188h-10.3a2.191,2.191,0,0,1-2.188-2.188V69.4H54.08v6.988ZM43.906,47.884H41.87a2.037,2.037,0,1,1,2.037-2.037ZM47.624,66.8H45.862V49.838h1.762ZM59.178,56.519A15.912,15.912,0,0,0,54.136,66.8H49.579V49.838h2.038a3.991,3.991,0,1,0-3.992-3.991v2.037H45.862V45.847a3.991,3.991,0,1,0-3.992,3.991h2.037V66.8H39.351a15.916,15.916,0,0,0-5.042-10.279A18.286,18.286,0,0,1,45.443,24.867a19.11,19.11,0,0,1,2.6,0A18.286,18.286,0,0,1,59.178,56.519Zm-9.6-8.635V45.847a2.037,2.037,0,1,1,2.038,2.037Z" transform="translate(-2.267 -2.465)" fill="#fff"/></g></svg>