<svg xmlns="http://www.w3.org/2000/svg" width="93.055" height="56.815" viewBox="0 0 93.055 56.815"><g><path fill="#fff" d="M15.462,102.766l10.945,6.309L14.135,130.346,3.19,124.037l12.272-21.271Zm18.271,9.781c1.182-.473,2.509-1,3.691-1.364a12.1,12.1,0,0,0-2.491,2.636c-1.618,2.473-2.927,8.236-1.254,11.672a4.475,4.475,0,0,0,3.782,2.654c4.163.345,5.163-2.745,5.818-4.781a5.554,5.554,0,0,1,1-2.182,5.806,5.806,0,0,1,4.981-.873c2.709,1.6,14.035,12.308,18.453,16.744a2.918,2.918,0,0,1-.109,2.872A2.146,2.146,0,0,1,66.04,141l-5.618-5.054a1.352,1.352,0,1,0-1.8,2.018l5.654,5.091a2.994,2.994,0,0,1-1.618,2.545c-.782.473-1.454.491-1.618.327l-.018-.018L61,145.89l-4.672-4.2a1.352,1.352,0,1,0-1.8,2.018l4.381,3.945a3.012,3.012,0,0,1-.964,1.691c-.545.527-1.382,1.018-2.036.764l-3.582-2.982a1.356,1.356,0,0,0-1.727,2.091l3.327,2.745a.843.843,0,0,1-.182.182c-.509.382-1.6.582-3.291.218a4.288,4.288,0,0,0-.709-3.963,6.466,6.466,0,0,0-3.182-2.291,5.532,5.532,0,0,0-1.727-3.636,6.4,6.4,0,0,0-2.782-1.691,5.542,5.542,0,0,0-.854-2.8,6.178,6.178,0,0,0-4.636-3.091,4.972,4.972,0,0,0-2.254-3.345,4.9,4.9,0,0,0-5.327.218,16.164,16.164,0,0,0-2.836,2.636c-.636-.655-1.254-1.309-1.364-1.454-1.254-1.836-4.4-3.8-6.163-4.8l7.727-13.363c2.163-.145,4.818-1.2,7.381-2.236ZM44.387,110c.018-.018.018,0,.018-.018.218-.091,2.618-.964,9.09-.236a17.46,17.46,0,0,1,9.108,3.963,6.372,6.372,0,0,0,3.091,1.618l7.836,13.563c-1.073,1.091-3.345,3.418-4.872,5.254-4.727-4.672-15.053-14.453-18.035-16.2a8.093,8.093,0,0,0-8.181,1.218A7.327,7.327,0,0,0,40.7,122.51c-.727,2.273-1.145,3.054-3.018,2.909a1.753,1.753,0,0,1-1.564-1.127c-1.091-2.236-.309-6.89,1.073-8.981,1.527-2.309,5.727-4.618,7.2-5.309ZM77.6,105.257,89.875,126.51,78.93,132.818,66.658,111.565,77.6,105.257Zm-33.47,48.178a2.74,2.74,0,0,1-1.418-1.254l2.891-3.545a3.573,3.573,0,0,1,2.145,1.691c.236.473.418,1.2-.6,2.218a2.679,2.679,0,0,1-3.018.891Zm-6.145-3.091a3.151,3.151,0,0,1-1.4-1.654l4.381-5.363a3.188,3.188,0,0,1,1.909,1.036c.6.6,1.164,1.545.854,2.291l-3.327,4.072a2.36,2.36,0,0,1-2.418-.382Zm-5.709-2.927a3.326,3.326,0,0,1-2.309-2.436l6.036-7.381a3.33,3.33,0,0,1,2.854,1.763c.509.836.582,1.618.345,1.854-.018.018-.018.036-.036.055l-.036.036-4.909,6.018a.056.056,0,0,0-.018.036c-.018.018-.018.036-.036.036-.2.255-.964.345-1.891.018Zm-6.927-7.2a19.765,19.765,0,0,1,2.182-3.4A20.172,20.172,0,0,1,30.443,134a2.252,2.252,0,0,1,2.454-.164,2.319,2.319,0,0,1,1.054,2l-6.072,7.454a2.278,2.278,0,0,1-2.163-.636,2.176,2.176,0,0,1-.364-2.436ZM.663,125.692l13.29,7.672a1.248,1.248,0,0,0,.673.182,1.142,1.142,0,0,0,.345-.055,1.364,1.364,0,0,0,.818-.636l1.4-2.418c1.745,1,4.4,2.691,5.29,3.982a27.379,27.379,0,0,0,1.927,2.073,15.063,15.063,0,0,0-1.6,2.709,4.821,4.821,0,0,0,4.581,6.8,6.194,6.194,0,0,0,3.945,3.927,5.751,5.751,0,0,0,2.927.291,6.784,6.784,0,0,0,2.218,2.382,5.424,5.424,0,0,0,3.891.964,5.393,5.393,0,0,0,1.982,2.018,5.136,5.136,0,0,0,2.618.727,5.636,5.636,0,0,0,3.818-1.618,11.011,11.011,0,0,0,3.272.545,4.872,4.872,0,0,0,3.8-1.436,3.1,3.1,0,0,0,.582-.964,5.285,5.285,0,0,0,3.363-1.6,6.062,6.062,0,0,0,1.6-2.545,5.314,5.314,0,0,0,2.6-.8,5.83,5.83,0,0,0,2.945-4.345,4.827,4.827,0,0,0,2.945-2.236,5.67,5.67,0,0,0,.473-5c1.2-1.509,3.272-3.691,4.563-5l2.309,4a1.364,1.364,0,0,0,.818.636A1.142,1.142,0,0,0,78.4,136a1.248,1.248,0,0,0,.673-.182l13.29-7.672a1.346,1.346,0,0,0,.491-1.854l-13.635-23.6a1.364,1.364,0,0,0-.818-.636,1.473,1.473,0,0,0-1.036.127l-13.29,7.672a1.367,1.367,0,0,0-.673,1.073,19.442,19.442,0,0,0-9.636-3.909c-7.4-.836-10.163.291-10.563.473-.109.055-.764.364-1.673.854-2.182-1.054-5.418.255-8.854,1.618a41.417,41.417,0,0,1-4.709,1.691l1.418-2.454a1.361,1.361,0,0,0-.491-1.854l-13.29-7.672a1.294,1.294,0,0,0-1.036-.127,1.364,1.364,0,0,0-.818.636L.172,123.837a1.357,1.357,0,0,0,.491,1.854Z" transform="translate(0.011 -99.492) translate(0)"/></g></svg>