<svg xmlns="http://www.w3.org/2000/svg" width="54.655" height="47.434" viewBox="0 0 54.655 47.434"><g transform="translate(-15.946 -24.119)"><g transform="translate(-3 -6)"><g transform="translate(19.97 54.145)"><path d="M19.917,56.435H32.693s-.513-5.6-3.949-5.6H26.172" transform="translate(-19.917 -50.838)" fill="none" stroke="#fc4c02" stroke-linecap="round" stroke-linejoin="round" stroke-miterlimit="10" stroke-width="1.3"/><path d="M66.887,56.435H54.113s.511-5.6,3.947-5.6h2.573" transform="translate(-14.282 -50.838)" fill="none" stroke="#fc4c02" stroke-linecap="round" stroke-linejoin="round" stroke-miterlimit="10" stroke-width="1.3"/></g><line x2="30.194" transform="translate(31.176 44.506)" fill="none" stroke="#fc4c02" stroke-linecap="round" stroke-linejoin="round" stroke-miterlimit="10" stroke-width="1.3"/><path d="M60.394,71.1v5.8H71.237V70.541a2.691,2.691,0,0,0,1.713-2.482V55.109a17.771,17.771,0,0,0-.6-2.846l-3.968-8.646-2.341-7.286c-.651-3.619-5.483-5.563-7.65-5.563H34.151c-2.166,0-7,1.944-7.65,5.563L24.16,43.618l-3.968,8.646a18.023,18.023,0,0,0-.6,2.846V68.06a2.691,2.691,0,0,0,1.713,2.482V76.9H32.152V71.1" fill="none" stroke="#fc4c02" stroke-linecap="round" stroke-linejoin="round" stroke-miterlimit="10" stroke-width="1.3"/><line x2="36.969" transform="translate(27.789 70.727)" fill="none" stroke="#fc4c02" stroke-linecap="round" stroke-linejoin="round" stroke-miterlimit="10" stroke-width="1.3"/><line x2="19.474" transform="translate(36.536 65.087)" fill="none" stroke="#fc4c02" stroke-miterlimit="10" stroke-width="1.3"/></g></g></svg>