<svg xmlns="http://www.w3.org/2000/svg" width="29" height="29" fill="none"><path fill="#fff" stroke="#1F2224" strokeWidth=".5" d="m21.693 3.584-.002-.001a10.77 10.77 0 0 0-5.236-1.478V.677c2.129.04 4.11.6 5.947 1.68a12.083 12.083 0 0 1 4.399 4.4v.001a12.01 12.01 0 0 1 1.68 5.951h-1.428a10.784 10.784 0 0 0-1.477-5.238l-.001-.003a10.99 10.99 0 0 0-3.882-3.884Zm-14.212.428 3.94 4.03-.001.002.09.09.008-.008c.37.324.552.734.552 1.247 0 .537-.185.997-.562 1.393l-1.925 1.926-.12.12.067.155c.675 1.575 1.586 2.92 2.737 4.029l.001.002c1.145 1.084 2.493 1.992 4.04 2.726l.161.076.125-.127 1.896-1.927c.352-.352.789-.53 1.329-.53.54 0 .977.178 1.328.53l3.945 3.977c.353.352.53.79.53 1.33 0 .518-.176.947-.53 1.3l-3.035 3.037c-.427.37-.917.61-1.474.721h-.002A2.997 2.997 0 0 1 18.967 28l-.04-.014h-.025c-4.309-1.695-7.908-4.001-10.802-6.917l-.002-.001a29.19 29.19 0 0 1-4.687-6.065c-.937-1.635-1.684-3.229-2.24-4.78l-.002-.004a2.83 2.83 0 0 1-.11-1.66c.147-.57.449-1.047.91-1.435l-.012-.017 3.034-3.094a1.866 1.866 0 0 1 1.245-.446c.48 0 .892.148 1.245.445Zm-.855 1.15-.014-.015-.015-.011a.614.614 0 0 0-.36-.14.539.539 0 0 0-.389.163l-.001.002L2.87 8.198c-.204.182-.333.43-.402.725-.064.26-.063.512.024.74v.024l.013.04c.508 1.464 1.219 2.975 2.129 4.533v.001a28.894 28.894 0 0 0 4.466 5.805c2.758 2.78 6.202 4.967 10.326 6.565l.009.003c.612.212 1.186.088 1.69-.348l.007-.006.006-.006 3.012-2.983.046-.046.011-.011.003-.003-.176-.178.177.177.073-.073v-.104a.32.32 0 0 0-.057-.176.614.614 0 0 0-.076-.09l-4.066-4.069a.61.61 0 0 0-.091-.076.32.32 0 0 0-.176-.057.32.32 0 0 0-.177.057.61.61 0 0 0-.09.076l-2.8 2.801-.445-.2-.011-.005c-.446-.175-.996-.45-1.653-.828-1.31-.754-2.427-1.585-3.353-2.493l-.006-.005a11.476 11.476 0 0 1-1.886-2.272l-.001-.001A15.923 15.923 0 0 1 8.3 13.757l-.386-.832-.155-.442 2.749-2.72V9.76c.12-.12.169-.28.127-.448l-.017-.066-.047-.048L6.626 5.16Zm13.517 5.51.003.004c.376.633.582 1.31.62 2.033h-1.429a3.02 3.02 0 0 0-.908-1.976 3.018 3.018 0 0 0-1.974-.908v-1.43a4.37 4.37 0 0 1 2.031.62l.005.003c.703.4 1.253.95 1.652 1.654Zm-3.688-4.708v-1.43a8.26 8.26 0 0 1 3.99 1.138 8.75 8.75 0 0 1 3.043 3.045 8.27 8.27 0 0 1 1.137 3.992h-1.428a6.754 6.754 0 0 0-.934-3.25 6.877 6.877 0 0 0-2.56-2.561 6.747 6.747 0 0 0-3.248-.934Z"/></svg>