<svg width="46" height="46" viewBox="0 0 46 46" fill="none" xmlns="http://www.w3.org/2000/svg">
<path d="M0.105619 37.5472C0.139712 37.6947 0.184857 37.8394 0.240672 37.9801C0.263181 38.0338 0.296079 38.0805 0.322051 38.1342C0.5439 38.6301 0.904752 39.0511 1.36092 39.3462C1.47217 39.4165 1.58784 39.4795 1.70722 39.5349C1.76608 39.5644 1.81976 39.6025 1.88036 39.6284C2.0174 39.681 2.158 39.7239 2.3011 39.7566C2.35478 39.7704 2.40326 39.7929 2.45867 39.8033C2.65923 39.8444 2.86341 39.8653 3.06814 39.8657H23.766V38.3316H3.06641C2.96347 38.3314 2.8608 38.321 2.75994 38.3004C2.72358 38.3004 2.68895 38.2779 2.65259 38.2675C2.59381 38.2525 2.53599 38.234 2.47944 38.2121C2.42668 38.1871 2.37525 38.1593 2.32534 38.129C2.29072 38.1082 2.25435 38.0944 2.22146 38.0719C2.13893 38.0157 2.06184 37.9519 1.99117 37.8814C1.92046 37.8109 1.85668 37.7338 1.80071 37.6511C1.77128 37.6078 1.7505 37.5576 1.72453 37.5109C1.70053 37.4719 1.67913 37.4314 1.66047 37.3897C1.63547 37.3254 1.61522 37.2595 1.59986 37.1923C1.59986 37.1628 1.57909 37.1334 1.57216 37.1022C1.52705 36.8797 1.53192 36.6498 1.58641 36.4294C1.64091 36.2089 1.74369 36.0033 1.88731 35.8274C2.03093 35.6514 2.21182 35.5096 2.41693 35.4121C2.62203 35.3146 2.84623 35.2638 3.07333 35.2634H5.36751C5.57094 35.2634 5.76604 35.1826 5.90989 35.0388C6.05373 34.8949 6.13455 34.6998 6.13455 34.4964V7.66577H32.9721V6.13344H6.13281V2.29999C6.13281 2.09686 6.05224 1.90203 5.90877 1.75823C5.7653 1.61443 5.57064 1.53342 5.36751 1.53296H3.06641C2.25315 1.53296 1.47319 1.85603 0.89813 2.43109C0.323067 3.00615 0 3.7861 0 4.59937V36.8044C0.000112502 37.0103 0.0209957 37.2157 0.0623324 37.4174C0.0727211 37.4607 0.0934988 37.5057 0.105619 37.5472ZM1.53407 4.59937C1.53407 4.19251 1.69569 3.80231 1.98339 3.51462C2.27108 3.22692 2.66128 3.0653 3.06814 3.0653H4.60221V33.738H3.06641C2.52759 33.7372 1.99821 33.8794 1.53234 34.1501L1.53407 4.59937Z" fill="#1F2224"/>
<path d="M20.8651 17.3763L19.2306 15.3315H26.0681V13.7991H17.6342C17.5219 13.7998 17.4112 13.8251 17.3098 13.8733C17.2083 13.9214 17.1187 13.9913 17.0473 14.0779C17.0473 14.0779 17.0386 14.0779 17.0351 14.0865L10.9075 21.7534C10.8669 21.8067 10.8332 21.8649 10.8071 21.9266C10.8071 21.9266 10.8071 21.9352 10.8071 21.9404C10.7737 22.0249 10.7555 22.1145 10.7534 22.2053C10.7534 22.2175 10.7534 22.2261 10.7534 22.2365V31.4357C10.7534 31.5365 10.7733 31.6362 10.8118 31.7293C10.8504 31.8223 10.9069 31.9069 10.9781 31.9781C11.0493 32.0493 11.1339 32.1058 11.2269 32.1444C11.32 32.1829 11.4197 32.2028 11.5205 32.2028H31.4339V30.6687H24.5341V22.9983H35.2691V27.5988H36.8032V22.2313C36.8032 22.2209 36.8032 22.2105 36.8032 22.2001C36.801 22.1099 36.7829 22.0208 36.7495 21.937C36.7495 21.937 36.7495 21.9248 36.7391 21.9196C36.7141 21.8578 36.6809 21.7995 36.6404 21.7465L34.341 18.8688L33.1429 19.8263L34.4467 21.4591H24.1358L20.8651 17.3763ZM17.6342 15.792L20.6591 19.5735L22.1724 21.4643H13.0961L17.6342 15.792ZM12.2667 22.9983H23.0017V30.6652H20.7006V25.2977C20.7006 25.197 20.6808 25.0972 20.6422 25.0042C20.6037 24.9111 20.5472 24.8266 20.476 24.7553C20.4047 24.6841 20.3202 24.6276 20.2271 24.5891C20.1341 24.5505 20.0343 24.5307 19.9336 24.5307H15.3348C15.2341 24.5307 15.1344 24.5505 15.0413 24.5891C14.9483 24.6276 14.8637 24.6841 14.7925 24.7553C14.7212 24.8266 14.6647 24.9111 14.6262 25.0042C14.5877 25.0972 14.5678 25.197 14.5678 25.2977V30.6652H12.2684L12.2667 22.9983ZM16.1019 30.6652V26.0665H19.1683V30.667L16.1019 30.6652Z" fill="#1F2224"/>
<path d="M28.3671 24.5322C28.1637 24.5322 27.9686 24.613 27.8248 24.7569C27.6809 24.9007 27.6001 25.0958 27.6001 25.2993V28.3657C27.6001 28.5691 27.6809 28.7642 27.8248 28.908C27.9686 29.0519 28.1637 29.1327 28.3671 29.1327H31.4335C31.637 29.1327 31.8321 29.0519 31.9759 28.908C32.1198 28.7642 32.2006 28.5691 32.2006 28.3657V25.2993C32.2006 25.0958 32.1198 24.9007 31.9759 24.7569C31.8321 24.613 31.637 24.5322 31.4335 24.5322H28.3671ZM30.6665 27.5986H29.1324V26.0646H30.6665V27.5986Z" fill="#1F2224"/>
<path d="M45.5269 20.7592C45.3861 20.7019 45.2314 20.6877 45.0824 20.7186C44.9335 20.7494 44.7972 20.8238 44.6906 20.9323L20.9247 44.6913C20.8176 44.7986 20.7447 44.9352 20.7151 45.0839C20.6856 45.2325 20.7008 45.3866 20.7588 45.5267C20.8168 45.6667 20.9149 45.7865 21.0409 45.8708C21.1669 45.9551 21.315 46.0001 21.4666 46.0003H45.2326C45.436 46.0003 45.6311 45.9195 45.7749 45.7756C45.9188 45.6318 45.9996 45.4367 45.9996 45.2333V21.4673C45.9996 21.3158 45.9547 21.1677 45.8705 21.0416C45.7864 20.9156 45.6669 20.8173 45.5269 20.7592ZM44.4673 44.468H23.3175L44.4673 23.3182V44.468Z" fill="#1F2224"/>
<path d="M32.2595 40.9255C32.3176 41.0654 32.4159 41.185 32.542 41.2691C32.668 41.3532 32.8161 41.3981 32.9677 41.3982H40.6345C40.838 41.3982 41.0331 41.3173 41.1769 41.1735C41.3208 41.0297 41.4016 40.8346 41.4016 40.6311V32.966C41.4014 32.8144 41.3563 32.6663 41.272 32.5403C41.1877 32.4143 41.068 32.3161 40.9279 32.2581C40.7879 32.2002 40.6338 32.185 40.4851 32.2145C40.3364 32.244 40.1999 32.3169 40.0926 32.424L32.4257 40.0909C32.3172 40.1974 32.2428 40.3338 32.212 40.4827C32.1811 40.6316 32.1953 40.7863 32.2526 40.9272L32.2595 40.9255ZM39.8675 34.8152V39.8641H34.8186L39.8675 34.8152Z" fill="#1F2224"/>
<path d="M42.7089 0.22423C42.5651 0.0806458 42.3701 0 42.1669 0C41.9637 0 41.7688 0.0806458 41.625 0.22423L27.8253 14.0239C27.7414 14.1083 27.678 14.2107 27.64 14.3235L26.873 16.6211C26.828 16.7562 26.8216 16.9011 26.8543 17.0396C26.887 17.1781 26.9576 17.3048 27.0582 17.4055L27.2833 17.6306L25.5242 19.3914L26.6081 20.4753L28.3655 18.7179L28.5906 18.943C28.7342 19.0869 28.9292 19.1679 29.1325 19.1681C29.2149 19.1677 29.2967 19.1543 29.3749 19.1283L31.6743 18.3612C31.7872 18.3235 31.8897 18.2601 31.9738 18.176L45.7735 4.37626C45.9171 4.23245 45.9978 4.03753 45.9978 3.83431C45.9978 3.63109 45.9171 3.43618 45.7735 3.29237L42.7089 0.22423ZM29.8338 14.1832L32.966 11.051L34.9485 13.0335L31.8163 16.1657L29.8338 14.1832ZM29.3455 17.5232L28.4798 16.6575L28.8953 15.4091L30.5921 17.1042L29.3455 17.5232ZM36.0324 11.9462L34.0499 9.9654L42.1583 1.85007L44.1494 3.83258L36.0324 11.9462Z" fill="#1F2224"/>
<path d="M7.66772 32.1991V34.4985C7.66772 34.7019 7.74854 34.897 7.89238 35.0409C8.03623 35.1847 8.23133 35.2655 8.43476 35.2655H10.7341V33.7315H9.20006V32.1991H7.66772Z" fill="#1F2224"/>
<path d="M10.7341 9.20015H8.43476C8.23133 9.20015 8.03623 9.28096 7.89238 9.42481C7.74854 9.56866 7.66772 9.76375 7.66772 9.96718V12.2666H9.20179V10.7325H10.7359L10.7341 9.20015Z" fill="#1F2224"/>
</svg>
