<svg xmlns="http://www.w3.org/2000/svg" width="18.865" height="18.798" viewBox="0 0 18.865 18.798"><g><g><path fill="#fff" d="M9.028,22.427H5V9H9.028Zm14.77,0H19.77V15.254c0-1.869-.666-2.8-1.986-2.8a1.984,1.984,0,0,0-2.042,1.564v8.408H11.714s.054-12.085,0-13.427h3.18l.246,2.685h.083a4.483,4.483,0,0,1,3.956-2.253,4.17,4.17,0,0,1,3.339,1.344A5.811,5.811,0,0,1,23.8,14.845Z" transform="translate(-4.95 -5) translate(5.017 10.371) translate(-5 -9)"/></g><g transform="translate(-4.95 -5) translate(4.95 5)"><ellipse cx="2.081" cy="2.014" fill="#fff" rx="2.081" ry="2.014"/></g></g></svg>