<svg xmlns="http://www.w3.org/2000/svg" width="27.526" height="27.527" viewBox="0 0 27.526 27.527"><g id="icon-phone" transform="translate(-11.619 -9.619)"><g id="Group_107" data-name="Group 107" transform="translate(11.619 9.619)"><path id="Path_82" fill="#ccc" d="M38.519,31.083c-.515-.3-7.263-4.106-7.263-4.106a1.006,1.006,0,0,0-1.365.218l-.009-.006L27.4,29.673a1.03,1.03,0,0,1-1.26.152,21.8,21.8,0,0,1-7.2-7.2,1.03,1.03,0,0,1,.152-1.26l2.485-2.486-.006-.009a1,1,0,0,0,.218-1.365s-3.8-6.748-4.106-7.263c-.432-.732-2.38-1.14-4.14.618C9.618,14.79,11.89,23.415,18.619,30.145s15.354,9,19.282,5.077C39.659,33.462,39.251,31.515,38.519,31.083Z" data-name="Path 82" transform="translate(-11.619 -9.619)"/></g></g></svg>