<svg xmlns="http://www.w3.org/2000/svg" width="53" height="48" fill="none" viewBox="0 0 53 48"><path stroke="#1F2224" stroke-miterlimit="10" strokeWidth="2" d="M5.0733 31.1255H1.00017V21.3548H5.64358C6.16511 19.154 7.03698 17.0512 8.22588 15.1268L4.9667 11.8699L11.8523 4.93669L15.1115 8.19698C17.0476 7.01435 19.1618 6.15103 21.3726 5.64016V1H31.1468V5.64185C33.3491 6.16301 35.4534 7.03427 37.3792 8.22234L40.6384 4.96544L47.5764 11.8462L44.3138 15.1031C45.4973 17.0379 46.3612 19.1506 46.8725 21.3599H51.5159V31.1306H47.4427"/><path stroke="#1F2224" stroke-miterlimit="10" strokeWidth="2" d="M48.9451 35.9956H40.484"/><path stroke="#1F2224" stroke-miterlimit="10" strokeWidth="2" d="M52.3303 35.9956H50.6381"/><path stroke="#1F2224" stroke-miterlimit="10" strokeWidth="2" d="M52.3303 41.0688H48.9459"/><path stroke="#1F2224" stroke-miterlimit="10" strokeWidth="2" d="M26.2573 22.1699V26.2419H23.8138"/><path stroke="#1F2224" stroke-miterlimit="10" strokeWidth="2" d="M20.1782 25.8494H18.486"/><path stroke="#1F2224" stroke-miterlimit="10" strokeWidth="2" d="M32.0247 25.8494H30.3325"/><path stroke="#1F2224" stroke-miterlimit="10" strokeWidth="2" d="M26.947 30.9225H25.2548"/><path stroke="#1F2224" stroke-miterlimit="10" strokeWidth="2" d="M27.9765 10.0452C32.1286 10.4823 35.9543 12.4952 38.6646 15.6687C41.3749 18.8422 42.763 22.9341 42.5424 27.1003C42.3219 31.2666 40.5096 35.1893 37.4794 38.0594C34.4492 40.9294 30.4323 42.5277 26.2573 42.5246H7.511V44.9665L1.80827 39.2677L7.511 33.569V36.0125H26.2573"/><path stroke="#1F2224" stroke-miterlimit="10" strokeWidth="2" d="M13.2259 36.0108C11.4578 33.647 10.3657 30.8475 10.0663 27.9116C9.76698 24.9756 10.2717 22.0136 11.5264 19.342C12.7812 16.6705 14.7389 14.3899 17.1902 12.7441C19.6415 11.0982 22.4943 10.149 25.4436 9.99784V7.51373L31.1464 13.2125L25.4436 18.9112V16.51C22.9588 16.7088 20.6438 17.8486 18.9718 19.6963C17.2999 21.5439 16.3973 23.96 16.4486 26.4505C16.4999 28.9411 17.5012 31.318 19.2478 33.0954C20.9944 34.8727 23.3544 35.9164 25.8453 36.0129C28.3363 36.1094 30.77 35.2515 32.6491 33.6146C34.5281 31.9777 35.7106 29.6854 35.9547 27.2063C36.1988 24.7272 35.4861 22.2485 33.9624 20.277C32.4386 18.3055 30.2189 16.9901 27.7569 16.5996"/><path stroke="#1F2224" stroke-miterlimit="10" strokeWidth="2" d="M45.813 42.5585H26.2579"/><path stroke="#1F2224" stroke-miterlimit="10" strokeWidth="2" d="M52.3303 46.1415H50.6381"/><path stroke="#1F2224" stroke-miterlimit="10" strokeWidth="2" d="M48.9451 46.1415H40.484"/><path stroke="#1F2224" stroke-miterlimit="10" strokeWidth="2" d="M40.4849 46.1415H20.1784"/><path stroke="#1F2224" stroke-miterlimit="10" strokeWidth="2" d="M18.4858 46.1415H10.0248"/></svg>