<svg xmlns="http://www.w3.org/2000/svg" width="38" height="47" fill="none" viewBox="0 0 38 47"><path fill="#1F2224" d="M19.0015 0C20.3117 0 21.1258 1.19931 21.9278 2.37463C22.403 3.07322 22.8723 3.76281 23.1766 3.84677C23.832 3.76631 24.4611 3.53988 25.0175 3.18415C26.2663 2.574 27.5091 1.96685 28.5899 2.59949C29.6708 3.23212 29.7458 4.62781 29.8177 6.01751C29.6638 6.32036 29.6097 6.66413 29.663 6.99962C29.7164 7.33511 29.8744 7.64513 30.1146 7.88534C30.3548 8.12555 30.6649 8.28363 31.0004 8.33696C31.3359 8.39029 31.6796 8.33614 31.9825 8.18226C33.3722 8.25421 34.7664 8.33217 35.4005 9.41005C36.0346 10.4879 35.426 11.7337 34.8159 12.9825C34.4598 13.5393 34.2334 14.1689 34.1533 14.8249C34.2372 15.1247 34.9268 15.5985 35.6254 16.0737C36.8052 16.8772 38 17.6898 38 19C38 20.3102 36.8007 21.1243 35.6254 21.9263C34.9268 22.4015 34.2372 22.8708 34.1533 23.1751C34.2337 23.8306 34.4601 24.4596 34.8159 25.016C35.426 26.2648 36.0331 27.5076 35.4005 28.5885C34.7679 29.6693 33.3722 29.7443 31.9825 29.8163C31.6796 29.6624 31.3359 29.6082 31.0004 29.6615C30.6649 29.7149 30.3548 29.8729 30.1146 30.1131C29.8744 30.3533 29.7164 30.6634 29.663 30.9989C29.6097 31.3344 29.6638 31.6782 29.8177 31.981C29.7458 33.3707 29.6678 34.7649 28.5899 35.399C27.5121 36.0332 26.2663 35.4245 25.0175 34.8144C24.4607 34.4584 23.8311 34.2319 23.1751 34.1518C22.8752 34.2357 22.4015 34.9253 21.9263 35.6239C21.1228 36.8037 20.3103 37.9985 19 37.9985C17.6898 37.9985 16.8757 36.7992 16.0737 35.6239C15.5985 34.9253 15.1278 34.2357 14.8249 34.1518C14.1689 34.232 13.5393 34.4584 12.9825 34.8144C11.7337 35.4245 10.4909 36.0317 9.41007 35.399C8.32919 34.7664 8.25424 33.3707 8.18228 31.981C8.33616 31.6782 8.39029 31.3344 8.33696 30.9989C8.28363 30.6634 8.12557 30.3533 7.88536 30.1131C7.64515 29.8729 7.33513 29.7149 6.99964 29.6615C6.66415 29.6082 6.32038 29.6624 6.01753 29.8163C4.62783 29.7443 3.23364 29.6663 2.59951 28.5885C1.96538 27.5106 2.574 26.2648 3.18415 25.016C3.53988 24.4596 3.76633 23.8306 3.84679 23.1751C3.76284 22.8753 3.0732 22.4015 2.3746 21.9263C1.19479 21.1228 0 20.3102 0 19C0 17.6898 1.19928 16.8757 2.3746 16.0737C3.0732 15.5985 3.76284 15.1277 3.84679 14.8249C3.76633 14.1694 3.53988 13.5404 3.18415 12.984C2.574 11.7352 1.96688 10.4924 2.59951 9.41156C3.23214 8.33068 4.62783 8.25572 6.01753 8.18377C6.32038 8.33765 6.66415 8.3918 6.99964 8.33847C7.33513 8.28514 7.64515 8.12706 7.88536 7.88685C8.12557 7.64664 8.28363 7.3366 8.33696 7.00111C8.39029 6.66562 8.33616 6.32187 8.18228 6.01902C8.25424 4.62932 8.33219 3.23513 9.41007 2.601C10.4879 1.96686 11.7337 2.57551 12.9825 3.18566C13.5389 3.54143 14.1679 3.76785 14.8234 3.84825C15.1233 3.7643 15.597 3.07471 16.0722 2.37611C16.8787 1.1948 17.6957 0 19.0015 0ZM20.3627 3.44799C19.841 2.68193 19.3133 1.90539 19.0015 1.90539C18.6897 1.90539 18.162 2.68193 17.6403 3.44799C16.9702 4.43292 16.3076 5.40585 15.3226 5.6772C14.2051 5.79589 13.0815 5.51725 12.149 4.89016C11.3544 4.50189 10.5629 4.11511 10.365 4.23054C10.1671 4.34597 10.1176 5.23197 10.0727 6.11196C10.2154 6.65981 10.2123 7.23546 10.0639 7.78178C9.91544 8.32811 9.62674 8.82611 9.22643 9.22643C8.82611 9.62674 8.32811 9.91544 7.78178 10.0639C7.23546 10.2123 6.65981 10.2154 6.11196 10.0727C5.23047 10.1176 4.34747 10.1641 4.23054 10.365C4.11361 10.5659 4.50039 11.3544 4.89016 12.149C5.51434 13.0815 5.7908 14.2038 5.6712 15.3196C5.39986 16.3046 4.42692 16.9687 3.44199 17.6373C2.67594 18.159 1.8994 18.6867 1.8994 18.9985C1.8994 19.3103 2.67594 19.838 3.44199 20.3597C4.42692 21.0298 5.39986 21.6925 5.6712 22.6774C5.7908 23.7932 5.51434 24.9155 4.89016 25.848C4.50188 26.6426 4.11511 27.4341 4.23054 27.632C4.34597 27.8299 5.23197 27.8794 6.11196 27.9243C6.65981 27.7817 7.23546 27.7847 7.78178 27.9331C8.32811 28.0815 8.82611 28.3702 9.22643 28.7706C9.62674 29.1709 9.91544 29.6689 10.0639 30.2153C10.2123 30.7616 10.2154 31.3372 10.0727 31.885C10.1176 32.7665 10.1641 33.6495 10.365 33.7664C10.5659 33.8834 11.3544 33.4966 12.149 33.1068C13.0815 32.4826 14.2038 32.2062 15.3196 32.3258C16.3046 32.5971 16.9687 33.5701 17.6373 34.555C18.159 35.3211 18.6867 36.0976 18.9985 36.0976C19.3103 36.0976 19.838 35.3211 20.3597 34.555C21.0298 33.5701 21.6924 32.5971 22.6774 32.3258C23.7931 32.2061 24.9155 32.4825 25.848 33.1068C26.6441 33.4951 27.4341 33.8819 27.632 33.7664C27.8299 33.651 27.8794 32.765 27.9318 31.885C27.7891 31.3372 27.7922 30.7616 27.9406 30.2153C28.089 29.6689 28.3777 29.1709 28.7781 28.7706C29.1784 28.3702 29.6764 28.0815 30.2227 27.9331C30.7691 27.7847 31.3447 27.7817 31.8925 27.9243C32.774 27.8794 33.657 27.8329 33.7739 27.632C33.8909 27.4311 33.5041 26.6426 33.1143 25.848C32.49 24.9155 32.2136 23.7932 32.3333 22.6774C32.6046 21.6925 33.5776 21.0283 34.5625 20.3597C35.3285 19.838 36.1051 19.3103 36.1051 18.9985C36.1051 18.6867 35.3285 18.159 34.5625 17.6373C33.5776 16.9672 32.6046 16.3046 32.3333 15.3196C32.2136 14.2038 32.49 13.0815 33.1143 12.149C33.5026 11.3544 33.8894 10.5629 33.7739 10.365C33.6585 10.1671 32.7725 10.1176 31.8925 10.0652C31.3447 10.2079 30.7691 10.2048 30.2227 10.0564C29.6764 9.90796 29.1784 9.61926 28.7781 9.21895C28.3777 8.81863 28.089 8.32061 27.9406 7.77428C27.7922 7.22796 27.7891 6.65231 27.9318 6.10446C27.8868 5.22297 27.8404 4.33997 27.6395 4.22304C27.4386 4.1061 26.6501 4.49288 25.8556 4.88266C24.923 5.50684 23.8006 5.78332 22.6849 5.66372C21.6954 5.40138 21.0328 4.42694 20.3627 3.4435V3.44799Z"/><path fill="#1F2224" d="M19.0031 5.95925C22.0206 5.95903 24.9449 7.00509 27.2775 8.91923C29.6102 10.8334 31.2071 13.4971 31.7959 16.4566C32.3847 19.4161 31.9291 22.4882 30.5067 25.1495C29.0844 27.8107 26.7833 29.8964 23.9955 31.0512C21.2078 32.2061 18.1058 32.3585 15.2182 31.4826C12.3307 30.6067 9.83609 28.7567 8.15966 26.2477C6.48324 23.7387 5.7287 20.7261 6.02452 17.7232C6.32033 14.7202 7.6482 11.9127 9.78195 9.77905C10.9916 8.56628 12.4289 7.60449 14.0113 6.94896C15.5938 6.29344 17.2902 5.95709 19.0031 5.95925ZM26.8811 11.1223C25.0583 9.29966 22.66 8.16546 20.0947 7.91291C17.5294 7.66037 14.956 8.30511 12.8128 9.73728C10.6696 11.1695 9.08934 13.3005 8.3412 15.7672C7.59306 18.2339 7.72339 20.8837 8.70994 23.2651C9.69649 25.6465 11.4782 27.6121 13.7516 28.8271C16.0249 30.0421 18.6492 30.4312 21.1773 29.9282C23.7054 29.4252 25.9809 28.0612 27.6161 26.0685C29.2512 24.0759 30.1448 21.5779 30.1447 19.0002C30.1466 17.5368 29.8592 16.0875 29.2991 14.7355C28.7391 13.3836 27.9173 12.1556 26.8811 11.1223Z"/><path fill="#1F2224" d="M26.2361 15.9943C26.415 15.8154 26.5155 15.5727 26.5155 15.3197C26.5155 15.0666 26.415 14.824 26.2361 14.645C26.0571 14.4661 25.8145 14.3657 25.5614 14.3657C25.3084 14.3657 25.0657 14.4661 24.8868 14.645L16.9414 22.5905L13.0992 18.7483C12.9202 18.5693 12.6776 18.4688 12.4245 18.4688C12.1715 18.4688 11.9288 18.5693 11.7499 18.7483C11.571 18.9272 11.4705 19.1698 11.4705 19.4228C11.4705 19.6758 11.571 19.9185 11.7499 20.0974L16.2578 24.6053C16.3461 24.6945 16.4511 24.7654 16.5669 24.8137C16.6827 24.862 16.807 24.8869 16.9324 24.8869C17.0579 24.8869 17.1821 24.862 17.2979 24.8137C17.4137 24.7654 17.5187 24.6945 17.607 24.6053L26.2361 15.9943Z"/><path fill="#1F2224" d="M9.06963 29.6874C9.13253 29.5802 9.17373 29.4617 9.19082 29.3386C9.20791 29.2155 9.20059 29.0903 9.16927 28.97C9.13795 28.8498 9.08324 28.7367 9.00828 28.6375C8.93331 28.5384 8.83956 28.455 8.73236 28.3921C8.62517 28.3292 8.50662 28.2881 8.38352 28.271C8.26041 28.2539 8.13514 28.2612 8.01487 28.2926C7.89459 28.3239 7.78167 28.3786 7.68254 28.4536C7.58341 28.5286 7.49999 28.6224 7.43709 28.7296L0.750971 40.1123C0.661786 40.2647 0.616824 40.439 0.621133 40.6156C0.625441 40.7921 0.678842 40.964 0.775355 41.1119C0.871869 41.2598 1.00766 41.3778 1.16752 41.4528C1.32739 41.5278 1.505 41.5569 1.68043 41.5366L7.20175 41.0764L9.56286 46.1899L10.4234 45.7926L9.56135 46.1914C9.63702 46.3553 9.75784 46.4944 9.90964 46.5922C10.0614 46.6899 10.238 46.7424 10.4185 46.7435C10.5991 46.7446 10.7762 46.6943 10.9292 46.5984C11.0822 46.5025 11.2047 46.3648 11.2824 46.2018L17.4438 35.7079C17.5067 35.6007 17.5479 35.4822 17.565 35.3591C17.5821 35.236 17.5747 35.1108 17.5434 34.9905C17.5121 34.8703 17.4574 34.7573 17.3824 34.6582C17.3075 34.5591 17.2137 34.4755 17.1065 34.4126C16.9993 34.3497 16.8808 34.3086 16.7577 34.2915C16.6346 34.2744 16.5093 34.2817 16.389 34.3131C16.2687 34.3444 16.1558 34.3991 16.0567 34.4741C15.9576 34.5491 15.8741 34.6429 15.8112 34.7501L10.5268 43.7449L8.67238 39.73C8.59873 39.5378 8.46462 39.3747 8.29023 39.2652C8.11585 39.1557 7.91065 39.1058 7.70546 39.123L3.31447 39.4887L9.06963 29.6874Z"/><path fill="#1F2224" d="M30.5671 28.7312C30.5042 28.624 30.4208 28.5302 30.3217 28.4553C30.2226 28.3803 30.1096 28.3256 29.9894 28.2942C29.8691 28.2629 29.7439 28.2557 29.6208 28.2728C29.4977 28.2899 29.379 28.3311 29.2718 28.394C29.1646 28.4569 29.071 28.5402 28.996 28.6394C28.9211 28.7385 28.8663 28.8514 28.835 28.9717C28.8037 29.092 28.7963 29.2172 28.8134 29.3403C28.8305 29.4634 28.8717 29.582 28.9346 29.6892L34.6943 39.4949L30.3034 39.1293C30.0991 39.1115 29.8944 39.1603 29.7202 39.2684C29.5459 39.3764 29.4113 39.5379 29.3364 39.7288L27.4834 43.7451L22.1991 34.7503C22.072 34.5338 21.8641 34.3765 21.6212 34.3133C21.3783 34.25 21.1203 34.286 20.9038 34.413C20.6873 34.54 20.5301 34.7478 20.4668 34.9907C20.4035 35.2336 20.4395 35.4916 20.5665 35.7081L26.7279 46.202C26.8058 46.3646 26.9281 46.5019 27.0809 46.5975C27.2338 46.6931 27.4107 46.7432 27.591 46.7421C27.7712 46.741 27.9475 46.6887 28.0992 46.5913C28.2508 46.4938 28.3716 46.3551 28.4474 46.1916L27.5853 45.7928L28.4459 46.1901L30.807 41.0766L36.3268 41.5368C36.5022 41.5571 36.6799 41.528 36.8398 41.453C36.9996 41.378 37.1354 41.26 37.2319 41.1121C37.3284 40.9642 37.3819 40.7923 37.3862 40.6158C37.3905 40.4392 37.3455 40.2651 37.2563 40.1127L30.5671 28.7312Z"/></svg>