<svg xmlns="http://www.w3.org/2000/svg" width="50" height="51" fill="none" viewBox="0 0 50 51"><path fill="#1F2224" d="M46.0745 19.3241V18.5136C46.08 14.9923 44.8748 11.5761 42.6611 8.83753C40.4474 6.09902 37.3596 4.20465 33.9153 3.47192V1.49041C33.9153 1.27547 33.8299 1.06934 33.6779 0.917358C33.5259 0.765375 33.3198 0.679993 33.1049 0.679993H28.2409C28.0259 0.679993 27.8198 0.765375 27.6678 0.917358C27.5158 1.06934 27.4305 1.27547 27.4305 1.49041V3.46589C25.3257 3.91242 23.3387 4.79761 21.5991 6.06372C19.8594 7.32983 18.4062 8.94843 17.3342 10.814L18.7377 11.6244C19.8685 9.67338 21.4623 8.03086 23.3784 6.84186V10.408H24.9992V5.97108C25.7817 5.61934 26.5958 5.34244 27.4305 5.14407V12.8407C27.4305 13.0557 27.5158 13.2618 27.6678 13.4138C27.8198 13.5658 28.0259 13.6512 28.2409 13.6512H33.1049C33.3198 13.6512 33.5259 13.5658 33.6779 13.4138C33.8299 13.2618 33.9153 13.0557 33.9153 12.8407V5.12596C34.7504 5.32628 35.5645 5.60573 36.3465 5.96052V10.408H37.9674V6.82073C38.854 7.37545 39.6756 8.02797 40.4167 8.76603C41.6991 10.044 42.7158 11.5631 43.4084 13.2358C44.101 14.9085 44.4558 16.7017 44.4522 18.5121V19.3226H42.0164V16.0824C42.0164 15.8675 41.931 15.6613 41.7791 15.5094C41.6271 15.3574 41.4209 15.272 41.206 15.272H36.3465C36.1316 15.272 35.9255 15.3574 35.7735 15.5094C35.6215 15.6613 35.5361 15.8675 35.5361 16.0824V18.5136H37.1569V16.8928H40.4001V19.3241H37.9689V20.9449H46.0745C46.5046 20.9449 46.9171 21.1157 47.2212 21.4198C47.5253 21.7239 47.6961 22.1364 47.6961 22.5665C47.6961 22.9965 47.5253 23.409 47.2212 23.7131C46.9171 24.0172 46.5046 24.1881 46.0745 24.1881H34.7257V25.8089H46.0745C46.9351 25.8089 47.7604 25.467 48.3689 24.8585C48.9774 24.2501 49.3192 23.4248 49.3192 22.5642C49.3192 21.7037 48.9774 20.8784 48.3689 20.2699C47.7604 19.6614 46.9351 19.3195 46.0745 19.3195V19.3241ZM32.2945 12.0288H29.0513V2.30082H32.2945V12.0288Z"/><path fill="#1F2224" d="M1.49035 35.5369H5.32057C5.62013 36.5741 6.03523 37.5744 6.55808 38.519L3.84161 41.2355C3.76622 41.3107 3.70642 41.4001 3.66562 41.4985C3.62481 41.5969 3.60381 41.7024 3.60381 41.8089C3.60381 41.9155 3.62481 42.0209 3.66562 42.1193C3.70642 42.2177 3.76622 42.3071 3.84161 42.3824L8.42792 46.9687C8.50319 47.0441 8.59258 47.1039 8.69099 47.1447C8.78939 47.1855 8.89487 47.2065 9.0014 47.2065C9.10792 47.2065 9.21341 47.1855 9.31181 47.1447C9.41021 47.1039 9.49961 47.0441 9.57487 46.9687L12.2913 44.2522C13.2359 44.7751 14.2362 45.1902 15.2734 45.4897V49.3185C15.2734 49.5334 15.3588 49.7395 15.5108 49.8915C15.6628 50.0435 15.8689 50.1289 16.0838 50.1289H22.5732C22.7881 50.1289 22.9943 50.0435 23.1463 49.8915C23.2982 49.7395 23.3836 49.5334 23.3836 49.3185V45.4882C24.4208 45.1887 25.4211 44.7736 26.3657 44.2507L29.0822 46.9672C29.1574 47.0426 29.2468 47.1024 29.3452 47.1432C29.4436 47.184 29.5491 47.205 29.6557 47.205C29.7622 47.205 29.8677 47.184 29.9661 47.1432C30.0645 47.1024 30.1539 47.0426 30.2291 46.9672L34.8154 42.3809C34.8908 42.3056 34.9506 42.2162 34.9914 42.1178C35.0322 42.0194 35.0532 41.9139 35.0532 41.8074C35.0532 41.7009 35.0322 41.5954 34.9914 41.497C34.9506 41.3986 34.8908 41.3092 34.8154 41.2339L32.099 38.5175C32.6218 37.5729 33.0369 36.5726 33.3365 35.5354H37.1652C37.3801 35.5354 37.5863 35.45 37.7382 35.298C37.8902 35.146 37.9756 34.9399 37.9756 34.725V28.2356C37.9756 28.0207 37.8902 27.8145 37.7382 27.6626C37.5863 27.5106 37.3801 27.4252 37.1652 27.4252H33.3289C33.0292 26.388 32.6141 25.3877 32.0914 24.4431L34.8079 21.7266C34.8833 21.6514 34.9431 21.562 34.9839 21.4636C35.0247 21.3652 35.0457 21.2597 35.0457 21.1532C35.0457 21.0466 35.0247 20.9411 34.9839 20.8427C34.9431 20.7443 34.8833 20.6549 34.8079 20.5797L30.214 16.0085C30.1388 15.9331 30.0494 15.8733 29.951 15.8325C29.8526 15.7917 29.7471 15.7707 29.6406 15.7707C29.534 15.7707 29.4286 15.7917 29.3302 15.8325C29.2318 15.8733 29.1424 15.9331 29.0671 16.0085L26.3506 18.7249C25.406 18.2021 24.4058 17.787 23.3685 17.4874V13.6496C23.3685 13.4355 23.2838 13.23 23.1328 13.0782C22.9818 12.9263 22.7768 12.8404 22.5626 12.8392H16.0733C15.9669 12.8392 15.8615 12.8602 15.7632 12.9009C15.6648 12.9416 15.5755 13.0013 15.5002 13.0766C15.425 13.1519 15.3653 13.2412 15.3246 13.3395C15.2838 13.4378 15.2629 13.5432 15.2629 13.6496V17.4784C14.2256 17.7779 13.2253 18.193 12.2808 18.7159L9.58393 16.0085C9.50866 15.9331 9.41927 15.8733 9.32086 15.8325C9.22246 15.7917 9.11698 15.7707 9.01045 15.7707C8.90392 15.7707 8.79844 15.7917 8.70004 15.8325C8.60164 15.8733 8.51224 15.9331 8.43697 16.0085L3.84915 20.5933C3.77377 20.6685 3.71397 20.7579 3.67316 20.8563C3.63236 20.9547 3.61136 21.0602 3.61136 21.1667C3.61136 21.2733 3.63236 21.3787 3.67316 21.4771C3.71397 21.5756 3.77377 21.6649 3.84915 21.7402L6.56563 24.4567C6.04292 25.4013 5.62782 26.4016 5.32812 27.4388H1.49035C1.27671 27.4388 1.07172 27.5231 0.919948 27.6735C0.768181 27.8238 0.681921 28.028 0.679932 28.2416V34.731C0.681128 34.9452 0.767039 35.1501 0.918892 35.3011C1.07074 35.4521 1.27619 35.5369 1.49035 35.5369ZM2.30076 29.0475H5.94385C6.12572 29.0475 6.30229 28.9864 6.44518 28.8739C6.58807 28.7613 6.68896 28.6041 6.73163 28.4273C7.04703 27.1241 7.56385 25.8782 8.26342 24.7344C8.35845 24.5792 8.39851 24.3966 8.37716 24.216C8.35581 24.0353 8.27428 23.867 8.14571 23.7383L5.56657 21.1652L9.00593 17.7259L11.5836 20.3035C11.7123 20.4321 11.8805 20.5136 12.0612 20.535C12.2419 20.5563 12.4245 20.5162 12.5796 20.4212C13.723 19.721 14.9691 19.2041 16.2725 18.8894C16.4493 18.8468 16.6066 18.7459 16.7191 18.603C16.8316 18.4601 16.8928 18.2835 16.8928 18.1016V14.4601H21.7568V18.1016C21.7568 18.2835 21.8179 18.4601 21.9304 18.603C22.0429 18.7459 22.2002 18.8468 22.377 18.8894C23.6804 19.2041 24.9265 19.721 26.0699 20.4212C26.225 20.5162 26.4077 20.5563 26.5883 20.535C26.769 20.5136 26.9372 20.4321 27.0659 20.3035L29.6436 17.7259L33.0829 21.1652L30.5053 23.7429C30.3767 23.8716 30.2952 24.0398 30.2739 24.2205C30.2525 24.4012 30.2926 24.5838 30.3876 24.7389C31.0872 25.8827 31.604 27.1286 31.9194 28.4318C31.9621 28.6086 32.063 28.7659 32.2058 28.8784C32.3487 28.9909 32.5253 29.0521 32.7072 29.0521H36.3487V33.9161H32.7057C32.5238 33.9161 32.3472 33.9772 32.2043 34.0897C32.0614 34.2022 31.9605 34.3595 31.9179 34.5363C31.6032 35.8397 31.0863 37.0858 30.3861 38.2292C30.2911 38.3844 30.251 38.567 30.2723 38.7476C30.2937 38.9283 30.3752 39.0965 30.5038 39.2253L33.0814 41.8029L29.6421 45.2407L27.0644 42.6631C26.9357 42.5345 26.7675 42.453 26.5868 42.4317C26.4061 42.4103 26.2235 42.4504 26.0684 42.5454C24.925 43.2462 23.679 43.7636 22.3755 44.0787C22.1987 44.1214 22.0414 44.2223 21.9289 44.3651C21.8164 44.508 21.7552 44.6846 21.7552 44.8665V48.5081H16.8928V44.865C16.8928 44.6831 16.8316 44.5065 16.7191 44.3636C16.6066 44.2207 16.4493 44.1199 16.2725 44.0772C14.9691 43.7625 13.723 43.2457 12.5796 42.5454C12.4245 42.4504 12.2419 42.4103 12.0612 42.4317C11.8805 42.453 11.7123 42.5345 11.5836 42.6631L9.00593 45.2407L5.56657 41.8014L8.1442 39.2237C8.27277 39.095 8.3543 38.9268 8.37565 38.7461C8.397 38.5654 8.35694 38.3829 8.26191 38.2277C7.56218 37.0842 7.04583 35.8381 6.73163 34.5348C6.68896 34.358 6.58807 34.2007 6.44518 34.0882C6.30229 33.9757 6.12572 33.9146 5.94385 33.9145H2.30076V29.0475Z"/><path fill="#1F2224" d="M19.3249 41.2098C21.249 41.2098 23.1299 40.6393 24.7297 39.5703C26.3295 38.5013 27.5763 36.9819 28.3126 35.2042C29.0488 33.4266 29.2414 31.4705 28.8659 29.5835C28.4904 27.6964 27.5638 25.963 26.2031 24.6026C24.8425 23.2422 23.109 22.3158 21.2218 21.9406C19.3347 21.5654 17.3787 21.7583 15.6011 22.4948C13.8236 23.2313 12.3044 24.4784 11.2357 26.0784C10.1669 27.6783 9.59663 29.5593 9.59692 31.4834C9.59692 34.0634 10.6218 36.5377 12.4462 38.3621C14.2705 40.1864 16.7449 41.2098 19.3249 41.2098ZM19.3249 23.3762C20.9281 23.3762 22.4952 23.8516 23.8282 24.7422C25.1612 25.6329 26.2001 26.8988 26.8136 28.3799C27.4271 29.8611 27.5876 31.4908 27.2748 33.0632C26.9621 34.6355 26.1901 36.0798 25.0565 37.2134C23.9229 38.347 22.4786 39.119 20.9063 39.4318C19.3339 39.7445 17.7041 39.584 16.223 38.9705C14.7419 38.357 13.476 37.3181 12.5853 35.9851C11.6947 34.6521 11.2193 33.085 11.2193 31.4818C11.2193 29.3321 12.0732 27.2704 13.5934 25.7503C15.1135 24.2302 17.1752 23.3762 19.3249 23.3762Z"/><path fill="#1F2224" d="M19.3235 36.3476C20.2855 36.3476 21.2259 36.0623 22.0258 35.5278C22.8256 34.9934 23.4491 34.2337 23.8172 33.3449C24.1854 32.4562 24.2817 31.4782 24.094 30.5347C23.9063 29.5911 23.4431 28.7244 22.7628 28.0442C22.0826 27.364 21.2159 26.9007 20.2724 26.713C19.3289 26.5254 18.3509 26.6217 17.4621 26.9898C16.5733 27.358 15.8137 27.9814 15.2792 28.7813C14.7447 29.5812 14.4595 30.5216 14.4595 31.4836C14.4595 32.7736 14.9719 34.0108 15.8841 34.9229C16.7963 35.8351 18.0335 36.3476 19.3235 36.3476ZM19.3235 28.2419C19.9649 28.2419 20.5919 28.4321 21.1253 28.7885C21.6586 29.1448 22.0743 29.6514 22.3198 30.244C22.5652 30.8366 22.6295 31.4887 22.5043 32.1178C22.3792 32.7469 22.0703 33.3248 21.6167 33.7783C21.1632 34.2319 20.5853 34.5408 19.9562 34.6659C19.3271 34.7911 18.675 34.7268 18.0824 34.4814C17.4898 34.2359 16.9832 33.8202 16.6269 33.2869C16.2705 32.7535 16.0803 32.1265 16.0803 31.4851C16.0801 31.0591 16.1638 30.6372 16.3267 30.2435C16.4896 29.8499 16.7285 29.4922 17.0297 29.1908C17.3308 28.8895 17.6884 28.6505 18.082 28.4874C18.4756 28.3243 18.8974 28.2419 19.3235 28.2419Z"/></svg>