<svg xmlns="http://www.w3.org/2000/svg" width="31" height="28" fill="none"><path fill="#fff" d="M30.465 25.557h-2.672V12.663a1.576 1.576 0 0 0-.521-1.176l-10.69-9.728a1.603 1.603 0 0 0-2.164 0l-10.69 9.728a1.577 1.577 0 0 0-.521 1.176v12.894H.534a.534.534 0 1 0 0 1.07h29.931a.534.534 0 1 0 0-1.07ZM4.275 12.663a.52.52 0 0 1 .175-.388l10.69-9.727a.535.535 0 0 1 .72 0l10.69 9.727a.52.52 0 0 1 .174.388v12.894h-7.483V18.61a1.604 1.604 0 0 0-1.603-1.604h-4.276a1.603 1.603 0 0 0-1.603 1.604v6.948H4.276V12.663Zm13.897 12.894h-5.344V18.61a.535.535 0 0 1 .534-.535h4.276a.535.535 0 0 1 .534.535v6.948Z"/></svg>