<svg xmlns="http://www.w3.org/2000/svg" width="19.073" height="19.073" viewBox="0 0 19.073 19.073"><g transform="translate(-1 -1)"><path d="M14.872,20.073H6.2a5.2,5.2,0,0,1-5.2-5.2V6.2A5.2,5.2,0,0,1,6.2,1h8.67a5.2,5.2,0,0,1,5.2,5.2v8.67A5.2,5.2,0,0,1,14.872,20.073ZM6.2,2.734A3.468,3.468,0,0,0,2.734,6.2v8.67A3.468,3.468,0,0,0,6.2,18.34h8.67a3.468,3.468,0,0,0,3.468-3.468V6.2a3.468,3.468,0,0,0-3.468-3.468Z" transform="translate(0 0)" fill="#fc4c02"/><g transform="translate(5.335 5.335)"><path d="M11.2,16.4a5.2,5.2,0,1,1,5.2-5.2A5.2,5.2,0,0,1,11.2,16.4Zm0-8.67A3.468,3.468,0,1,0,14.67,11.2,3.468,3.468,0,0,0,11.2,7.734Z" transform="translate(-6 -6)" fill="#fc4c02"/></g><g transform="translate(14.624 3.725)"><circle cx="1" cy="1" r="1" transform="translate(0.376 0.275)" fill="#fc4c02"/></g></g></svg>