<svg xmlns="http://www.w3.org/2000/svg" width="54" height="66" fill="none"><path fill="#fff" d="M26.582 14.312c-2.323 0-4.594.664-6.526 1.91a11.429 11.429 0 0 0-4.326 5.084 10.957 10.957 0 0 0-.668 6.546 11.212 11.212 0 0 0 3.214 5.802 11.886 11.886 0 0 0 6.014 3.1c2.279.438 4.64.213 6.787-.644a11.664 11.664 0 0 0 5.27-4.173 11.047 11.047 0 0 0 1.98-6.295c0-3.005-1.237-5.887-3.44-8.012-2.203-2.124-5.19-3.318-8.305-3.318Zm0 19.082a8.247 8.247 0 0 1-4.465-1.306 7.82 7.82 0 0 1-2.96-3.48 7.498 7.498 0 0 1-.457-4.479 7.671 7.671 0 0 1 2.2-3.969 8.131 8.131 0 0 1 4.114-2.121 8.311 8.311 0 0 1 4.643.44 7.981 7.981 0 0 1 3.607 2.856 7.559 7.559 0 0 1 1.354 4.307 7.647 7.647 0 0 1-2.363 5.473 8.219 8.219 0 0 1-5.673 2.28Zm0-33.394C19.534.008 12.778 2.712 7.795 7.52 2.81 12.325.008 18.843 0 25.641c0 9.213 4.45 18.993 12.827 28.296a75.616 75.616 0 0 0 12.704 11.33c.308.21.674.324 1.05.328.386-.009.761-.123 1.083-.328a77.562 77.562 0 0 0 12.672-11.33c8.408-9.303 12.828-19.083 12.828-28.296-.008-6.798-2.812-13.316-7.795-18.123C40.386 2.712 33.629.008 26.582 0Zm0 61.57C21.945 58.112 3.709 43.412 3.709 25.642c0-5.852 2.41-11.464 6.7-15.602 4.289-4.137 10.107-6.462 16.173-6.462 6.066 0 11.884 2.325 16.173 6.462 4.29 4.138 6.7 9.75 6.7 15.602 0 17.77-18.237 32.47-22.873 35.928Z"/></svg>