<svg xmlns="http://www.w3.org/2000/svg" xmlns:xlink="http://www.w3.org/1999/xlink" width="60.616" height="87.391" viewBox="0 0 60.616 87.391">
  <defs>
    <clipPath id="clip-path">
      <rect id="Rectangle_66" data-name="Rectangle 66" width="60.616" height="87.391" transform="translate(0 0)" fill="none"/>
    </clipPath>
  </defs>
  <g id="logo-d" transform="translate(-175.048 -1.145)">
    <g id="Group_103" data-name="Group 103" transform="translate(175.048 1.145)" clip-path="url(#clip-path)">
      <path id="Path_78" data-name="Path 78" d="M226.948,1.145l-8.4,4.919V25.882l-13.2-7.253L175.215,36.141l-.167.1V71.058l30.308,17.478,30.308-17.478V5.784Zm.025.773L234.642,6l-7.679,4.459-7.406-4.2Zm-7.734,35.09V6.855l7.56,4.266V65.672l-7.629-4.586V46.095L205.7,38.264s-.2-.123-.309-.184l-.309.179-12.989,7.122V60.954l-7.8,4.848-.032-24.179,20.821-12.161.272-.157.439.242ZM205.358,69.227l13.5-7.56,7.57,4.592L205.363,77.9,184.594,66.391l7.81-4.854Zm-12.578-8.278V45.78l12.611-6.934,13.161,7.638v14.6L205.4,68.448Zm42.2,9.718L205.356,87.755,175.735,70.668V36.628L205.367,19.4l13.184,7.248v9.206l-13.2-7.374-21.8,12.752.035,25.371,21.761,12.068,22.066-12.2V10.964l7.56-4.39Z" transform="translate(-175.048 -1.145)" fill="#fc4c02"/>
      <path id="Path_79" data-name="Path 79" d="M204.623,88,174.049,70.37V35.245l.3-.174,30.268-17.589,12.936,7.109V5.07L226.209,0,235.2,4.784V70.37ZM174.581,70.063l30.042,17.325,30.042-17.325V5.1L226.221.608l-8.137,4.767V25.49l-13.461-7.4L174.581,35.551Zm30.042,17.158-.133-.077L174.736,69.98V35.634L204.63,18.257l13.454,7.4V35.47l-13.46-7.522-21.536,12.6.035,25.061,21.5,11.921,21.8-12.057V9.969l8.091-4.7V69.98l-.133.077ZM175.268,69.673l29.354,16.934,29.355-16.934V6.194l-7.028,4.081V65.787L204.618,78.138,182.591,65.922l-.036-25.68,22.062-12.906,12.935,7.228v-8.6l-12.915-7.1L175.268,35.939Zm29.361,7.693-.128-.071L183.336,65.562l8.332-5.178,12.96,7.694,13.5-7.561,8.094,4.91ZM184.386,65.537l20.243,11.221,20.535-11.351-7.045-4.273-13.5,7.559-12.946-7.686Zm20.277,2.378L191.78,60.26V44.782l.138-.076L204.661,37.7l13.423,7.79v14.9Zm-12.351-7.957L204.671,67.3l12.881-7.218V45.8l-12.9-7.486L192.312,45.1ZM183.3,65.438l-.033-24.809,21.356-12.471.57.314,13.052,7.244V5.559l8.092,4.566V65.3L218.171,60.4V45.407l-13.338-7.754-.176-.106-.174.1L191.625,44.7V60.26Zm.5-24.5.031,23.548,7.267-4.517V44.383l13.565-7.452.134.078c.107.062.312.186.312.186L218.7,45.1V60.095l7.1,4.267V10.435L218.771,6.47V36.619l-14.148-7.851-.142.082Zm42.437-31.01-7.94-4.5L226.233.772l8.222,4.376Zm-6.874-4.507,6.871,3.894,7.133-4.142-7.116-3.787Z" transform="translate(-174.315 -0.304)" fill="#fc4c02"/>
      <rect id="Rectangle_64" data-name="Rectangle 64" width="0.657" height="10.178" transform="translate(0.03 35.477) rotate(-59.458)" fill="#fc4c02"/>
      <path id="Path_80" data-name="Path 80" d="M183.015,137.5l-9.224-5.442.6-1.023,9.224,5.442Zm-8.5-5.63,8.308,4.9.064-.107-8.308-4.9Z" transform="translate(-174.125 -96.485)" fill="#fc4c02"/>
      <rect id="Rectangle_65" data-name="Rectangle 65" width="0.657" height="10.087" transform="translate(29.997 76.98)" fill="#fc4c02"/>
      <path id="Path_81" data-name="Path 81" d="M288.019,300.19H286.83V289.571h1.189Zm-.657-.532h.125V290.1h-.125Z" transform="translate(-257.099 -212.857)" fill="#fc4c02"/>
    </g>
  </g>
</svg>
