<svg xmlns="http://www.w3.org/2000/svg" xmlns:xlink="http://www.w3.org/1999/xlink" width="265.892" height="93.643" viewBox="0 0 265.892 93.643">
  <defs>
    <clip-path id="clip-path">
      <rect id="Rectangle_37" data-name="Rectangle 37" width="65.121" height="93.643" fill="none"/>
    </clip-path>
    <clip-path id="clip-path-2">
      <rect id="Rectangle_81" data-name="Rectangle 81" width="179.347" height="41.489" fill="none"/>
    </clip-path>
  </defs>
  <g id="logo-dreams" transform="translate(-448 -28.178)">
    <g id="Group_84" data-name="Group 84" transform="translate(448 28.178)">
      <g id="Group_83" data-name="Group 83" clip-path="url(#clip-path)">
        <path id="Path_38" data-name="Path 38" d="M56.507,1.145l-8.94,5.237v21.1L33.513,19.762,1.424,38.408l-.178.1V75.585L33.517,94.194,65.787,75.585V6.085Zm.026.823L64.7,6.314l-8.175,4.747L48.637,6.593ZM48.3,39.331V7.225l8.05,4.542V69.852l-8.123-4.883V49.006L33.883,40.668s-.216-.131-.328-.2l-.329.191L19.394,48.245V64.827l-8.3,5.161-.035-25.743L33.225,31.3l.29-.167.467.258Zm-14.78,34.3,14.375-8.049,8.06,4.888-22.428,12.4L11.41,70.616l8.316-5.169ZM20.125,64.822V48.671l13.428-7.383,14.013,8.134v15.54l-14,7.846ZM65.055,75.17,33.517,93.364,1.978,75.17V38.925L33.528,20.587,47.566,28.3v9.8L33.515,30.254,10.3,43.832l.038,27.013L33.511,83.7,57.006,70.7V11.6l8.049-4.674Z" transform="translate(-0.924 -0.849)" fill="#fc4c02"/>
        <path id="Path_39" data-name="Path 39" d="M32.775,93.644.246,74.886V37.514l.307-.178L32.768,18.617l13.8,7.582V5.386L55.759,0,65.3,5.081v69.8l-.129.074ZM.762,74.587,32.775,93.048,64.787,74.587V5.391L55.771.593,47.083,5.682v21.39L32.775,19.21.762,37.811ZM32.775,92.813.978,74.47V37.928L32.783,19.442l14.3,7.861V37.7L32.776,29.7,9.82,43.132l.037,26.713L32.77,82.552,56.006,69.7V10.6l8.566-4.974V74.47l-.129.075ZM1.494,74.172,32.775,92.217,64.055,74.172V6.526L56.523,10.9V70.005L32.77,83.143,9.341,70.15,9.3,42.836,32.77,29.108l13.8,7.71V27.609L32.79,20.035,1.494,38.225Zm31.288,8.147-.125-.069-22.5-12.47L18.982,64.3l.135.08L32.78,72.489l14.376-8.05,8.57,5.2Zm-21.6-12.564,21.6,11.974L54.7,69.615l-7.55-4.578L32.772,73.085l-.128-.076L18.988,64.9Zm21.64,2.5L19.125,64.12V47.67l.134-.073,13.556-7.454,14.268,8.281v15.84ZM19.642,63.826l13.184,7.835,13.741-7.7V48.721L32.808,40.736l-13.167,7.24ZM10.091,69.6l-.035-26.356L32.77,29.984l.594.329L47.3,38.044V5.934l8.566,4.833V69.46l-8.639-5.194V48.306L33.012,40.043l-.2-.121-.2.115L18.91,47.55V64.122Zm.482-26.06.034,25.131,7.788-4.841V47.244l.134-.073L32.36,39.587l.454-.264.13.076c.113.066.332.2.332.2l14.466,8.411V63.974l7.606,4.573V11.069l-7.533-4.25v32.1L32.775,30.577l-.163.094Zm45.21-33.033-8.4-4.763L55.785.824l8.7,4.632Zm-7.37-4.771,7.367,4.175,7.646-4.44L55.8,1.415Z" transform="translate(-0.182 -0.001)" fill="#fc4c02"/>
        <rect id="Rectangle_35" data-name="Rectangle 35" width="0.699" height="10.837" transform="translate(0.354 38.069) rotate(-59.457)" fill="#fc4c02"/>
        <path id="Path_40" data-name="Path 40" d="M9.778,150.551,0,144.782l.618-1.047L10.4,149.5ZM.707,144.6,9.6,149.844l.093-.158L.8,144.442Z" transform="translate(0 -106.621)" fill="#fc4c02"/>
        <rect id="Rectangle_36" data-name="Rectangle 36" width="0.699" height="10.74" transform="translate(32.262 82.261)" fill="#fc4c02"/>
        <path id="Path_41" data-name="Path 41" d="M125.16,328.84h-1.216V317.583h1.216Zm-.7-.516h.183V318.1h-.183Z" transform="translate(-91.941 -235.581)" fill="#fc4c02"/>
      </g>
    </g>
    <g id="Group_123" data-name="Group 123" transform="translate(534.545 54.255)">
      <g id="Group_120" data-name="Group 120">
        <g id="Group_119" data-name="Group 119" clip-path="url(#clip-path-2)">
          <path id="Path_119" data-name="Path 119" d="M14.781,0A10.756,10.756,0,0,1,25.286,10.43v.985a10.676,10.676,0,0,1-2.608,6.579,13.132,13.132,0,0,1-2.638,2.228,10.885,10.885,0,0,1-5.26,1.516H.076A.067.067,0,0,1,0,21.663V3.866c.01-.05.035-.076.076-.076H4.2c.05.01.076.036.076.076v13.6h10.4a6.456,6.456,0,0,0,5.291-2.941,6.855,6.855,0,0,0,1.092-3.669,6.6,6.6,0,0,0-3.169-5.64,6.494,6.494,0,0,0-3.214-.94H.076A.067.067,0,0,1,0,4.2V.076C.01.025.035,0,.076,0Z" transform="translate(0)" fill="#fff"/>
          <path id="Path_120" data-name="Path 120" d="M101.571,0a5.787,5.787,0,0,1,5.594,5.488V8.611a5.753,5.753,0,0,1-2.3,4.351,6.277,6.277,0,0,1-3.9,1.213l6.079,7.625-5.366-.03-6.2-7.6H85.73c-.01,0-.015-.025-.015-.076V9.975c.01-.05.035-.076.076-.076h15.22a1.781,1.781,0,0,0,1.743-.91,13.379,13.379,0,0,0,.182-3.092,1.628,1.628,0,0,0-1.243-1.592,1.555,1.555,0,0,0-.3-.03H86.154V21.663a.067.067,0,0,1-.076.076H81.955a.067.067,0,0,1-.076-.076V.076c.01-.051.035-.076.076-.076Z" transform="translate(-51.972)" fill="#fff"/>
          <path id="Path_121" data-name="Path 121" d="M188.968,0c.05.01.076.036.076.076V4.2a.067.067,0,0,1-.076.076H174.415a6.509,6.509,0,0,0-6.382,6.382v.424a6.407,6.407,0,0,0,2.608,5.064,6.265,6.265,0,0,0,3.745,1.319h14.583c.05.01.076.035.076.076v4.123a.067.067,0,0,1-.076.076h-14.7a10.59,10.59,0,0,1-7.034-2.88,11.477,11.477,0,0,1-2.38-3.169,10.68,10.68,0,0,1-1.091-4.5v-.637a10.576,10.576,0,0,1,3.32-7.519A10.6,10.6,0,0,1,174.309,0Zm.076,12.885H167.533V8.716h21.511Z" transform="translate(-103.944)" fill="#fff"/>
          <path id="Path_122" data-name="Path 122" d="M261.145,0q.045.015,10.763,21.708l-.076.03h-4.714l-1.94-3.669-12.78-.015-2.031,3.684h-4.654l-.076-.03L256.37,0Zm-2.4,4.821-4.472,9.156,9.156.046Z" transform="translate(-155.917)" fill="#fff"/>
          <path id="Path_123" data-name="Path 123" d="M334.413,0a31.881,31.881,0,0,1,2.092,3.638q.409.637,7.534,13.371h.03Q352.059,2.729,353.651,0h4.169c.051.01.076.036.076.076V21.663a.067.067,0,0,1-.076.076H353.7a.067.067,0,0,1-.076-.076V8.747h-.046q-.122.318-7.261,12.961l-.076.03h-4.366q-.682-.985-3.547-6.246-.076-.045-3.79-6.7h-.045V21.663a.067.067,0,0,1-.076.076H330.29a.067.067,0,0,1-.076-.076V.076c.01-.051.035-.076.076-.076Z" transform="translate(-209.601)" fill="#fff"/>
          <path id="Path_124" data-name="Path 124" d="M443.982,0c.051.01.076.036.076.076V4.2a.067.067,0,0,1-.076.076h-19.54q-1.486,0-1.516,2.213,0,2.259,1.591,2.259h12.628a7.836,7.836,0,0,1,3.979.841,6.264,6.264,0,0,1,2.085,2.38,6.863,6.863,0,0,1,.849,3.282v.258a6.7,6.7,0,0,1-.69,3.206,5.816,5.816,0,0,1-2.061,2.153,7.637,7.637,0,0,1-4.055.872H418.8a.067.067,0,0,1-.076-.076V17.54c.01-.051.035-.076.076-.076h19.131q1.834,0,1.85-2.107,0-2.32-1.744-2.32l-13.082-.015a6.082,6.082,0,0,1-4.381-1.561,5.669,5.669,0,0,1-1.925-4.078V6.9A6.934,6.934,0,0,1,421.53.788,6,6,0,0,1,424.365,0Z" transform="translate(-265.736 0)" fill="#fff"/>
        </g>
      </g>
      <rect id="Rectangle_82" data-name="Rectangle 82" width="1.122" height="11.208" transform="translate(1.283 30.169)" fill="#fff"/>
      <path id="Path_125" data-name="Path 125" d="M31.253,82.6v9.413L25.048,82.6H23.925V93.8h1.122V84.376L31.253,93.8h1.122V82.6Z" transform="translate(-15.187 -52.427)" fill="#fff"/>
      <g id="Group_122" data-name="Group 122">
        <g id="Group_121" data-name="Group 121" clip-path="url(#clip-path-2)">
          <path id="Path_126" data-name="Path 126" d="M63.717,85.011a5.239,5.239,0,0,1,1.972-2.036,5.437,5.437,0,0,1,2.79-.729,5.673,5.673,0,0,1,3.215.89,5.058,5.058,0,0,1,1.948,2.509H72.328a3.861,3.861,0,0,0-1.467-1.78,4.651,4.651,0,0,0-4.6-.064,4,4,0,0,0-1.547,1.659,5.872,5.872,0,0,0,0,5.011,4.015,4.015,0,0,0,1.547,1.652,4.676,4.676,0,0,0,4.6-.056,3.822,3.822,0,0,0,1.467-1.756h1.315A5,5,0,0,1,71.687,92.8a5.717,5.717,0,0,1-3.207.882,5.434,5.434,0,0,1-2.79-.73,5.251,5.251,0,0,1-1.972-2.028,6.411,6.411,0,0,1,0-5.909" transform="translate(-39.986 -52.205)" fill="#fff"/>
          <path id="Path_127" data-name="Path 127" d="M109.929,92.964a5.258,5.258,0,0,1-2-2.036,6.365,6.365,0,0,1,0-5.917,5.263,5.263,0,0,1,2-2.036,5.855,5.855,0,0,1,5.66,0,5.207,5.207,0,0,1,1.988,2.036,6.425,6.425,0,0,1,0,5.917,5.2,5.2,0,0,1-1.988,2.036,5.853,5.853,0,0,1-5.66,0M115,92.138a4.1,4.1,0,0,0,1.572-1.66,5.727,5.727,0,0,0,0-5.011A4.116,4.116,0,0,0,115,83.816a4.655,4.655,0,0,0-4.49,0,4.115,4.115,0,0,0-1.571,1.651,5.727,5.727,0,0,0,0,5.011,4.1,4.1,0,0,0,1.571,1.66,4.652,4.652,0,0,0,4.49,0" transform="translate(-68.046 -52.205)" fill="#fff"/>
          <path id="Path_128" data-name="Path 128" d="M159.527,93.8l-2.774-4.682h-2.068V93.8h-1.122V82.6h3.367a4.05,4.05,0,0,1,2.846.9,3.061,3.061,0,0,1,.97,2.357,3.186,3.186,0,0,1-.7,2.076,3.338,3.338,0,0,1-2.06,1.114l2.886,4.762Zm-4.843-5.6h2.261a2.75,2.75,0,0,0,1.98-.641,2.273,2.273,0,0,0,.666-1.716,2.228,2.228,0,0,0-.641-1.708,2.882,2.882,0,0,0-2.021-.6h-2.245Z" transform="translate(-97.473 -52.427)" fill="#fff"/>
          <path id="Path_129" data-name="Path 129" d="M195.911,88.144a4.029,4.029,0,0,1-2.838.882h-2.261V93.8H189.69V82.6h3.383a4.036,4.036,0,0,1,2.83.882,3.34,3.34,0,0,1,.008,4.666m-.208-2.325a2.2,2.2,0,0,0-.626-1.7,2.9,2.9,0,0,0-2-.577h-2.261v4.521h2.261q2.63,0,2.63-2.245" transform="translate(-120.405 -52.427)" fill="#fff"/>
          <path id="Path_130" data-name="Path 130" d="M226.131,92.964a5.258,5.258,0,0,1-2-2.036,6.365,6.365,0,0,1,0-5.917,5.263,5.263,0,0,1,2-2.036,5.855,5.855,0,0,1,5.66,0,5.208,5.208,0,0,1,1.988,2.036,6.425,6.425,0,0,1,0,5.917,5.2,5.2,0,0,1-1.988,2.036,5.853,5.853,0,0,1-5.66,0m5.067-.826a4.1,4.1,0,0,0,1.572-1.66,5.727,5.727,0,0,0,0-5.011,4.115,4.115,0,0,0-1.572-1.651,4.655,4.655,0,0,0-4.49,0,4.115,4.115,0,0,0-1.571,1.651,5.727,5.727,0,0,0,0,5.011,4.1,4.1,0,0,0,1.571,1.66,4.652,4.652,0,0,0,4.49,0" transform="translate(-141.805 -52.205)" fill="#fff"/>
          <path id="Path_131" data-name="Path 131" d="M275.729,93.8l-2.774-4.682h-2.068V93.8h-1.122V82.6h3.367a4.05,4.05,0,0,1,2.846.9,3.062,3.062,0,0,1,.97,2.357,3.188,3.188,0,0,1-.7,2.076,3.34,3.34,0,0,1-2.061,1.114l2.886,4.762Zm-4.843-5.6h2.261a2.75,2.75,0,0,0,1.98-.641,2.273,2.273,0,0,0,.666-1.716,2.227,2.227,0,0,0-.642-1.708,2.881,2.881,0,0,0-2.02-.6h-2.245Z" transform="translate(-171.231 -52.427)" fill="#fff"/>
          <path id="Path_132" data-name="Path 132" d="M311.049,91.393h-5.1l-.978,2.662h-1.187l4.089-11.064h1.267l4.073,11.064h-1.187Zm-.337-.93L308.5,84.4l-2.213,6.061Z" transform="translate(-192.826 -52.678)" fill="#fff"/>
          <path id="Path_133" data-name="Path 133" d="M351.386,83.27a4.706,4.706,0,0,1,2.036,1.94,6.105,6.105,0,0,1,.706,3.014,6.022,6.022,0,0,1-.706,2.99,4.667,4.667,0,0,1-2.036,1.924,7.067,7.067,0,0,1-3.191.666h-3.319V82.6h3.319a7,7,0,0,1,3.191.674m.377,8.378a4.627,4.627,0,0,0,1.227-3.424,4.705,4.705,0,0,0-1.227-3.455,4.8,4.8,0,0,0-3.568-1.243H346v9.348h2.2a4.834,4.834,0,0,0,3.568-1.227" transform="translate(-218.908 -52.427)" fill="#fff"/>
          <path id="Path_134" data-name="Path 134" d="M387.55,92.964a5.258,5.258,0,0,1-2-2.036,6.365,6.365,0,0,1,0-5.917,5.263,5.263,0,0,1,2-2.036,5.855,5.855,0,0,1,5.66,0,5.207,5.207,0,0,1,1.988,2.036,6.425,6.425,0,0,1,0,5.917,5.2,5.2,0,0,1-1.988,2.036,5.853,5.853,0,0,1-5.66,0m5.067-.826a4.1,4.1,0,0,0,1.572-1.66,5.727,5.727,0,0,0,0-5.011,4.116,4.116,0,0,0-1.572-1.651,4.655,4.655,0,0,0-4.49,0,4.115,4.115,0,0,0-1.571,1.651,5.727,5.727,0,0,0,0,5.011,4.1,4.1,0,0,0,1.571,1.66,4.652,4.652,0,0,0,4.49,0" transform="translate(-244.265 -52.205)" fill="#fff"/>
          <path id="Path_135" data-name="Path 135" d="M437.148,93.8l-2.774-4.682h-2.068V93.8h-1.122V82.6h3.367a4.05,4.05,0,0,1,2.846.9,3.062,3.062,0,0,1,.97,2.357,3.188,3.188,0,0,1-.7,2.076,3.34,3.34,0,0,1-2.061,1.114l2.886,4.762Zm-4.843-5.6h2.261a2.75,2.75,0,0,0,1.98-.641,2.273,2.273,0,0,0,.666-1.716,2.227,2.227,0,0,0-.642-1.708,2.881,2.881,0,0,0-2.02-.6h-2.245Z" transform="translate(-273.691 -52.427)" fill="#fff"/>
          <path id="Path_136" data-name="Path 136" d="M472.468,91.393h-5.1l-.978,2.662H465.2l4.089-11.064h1.267l4.073,11.064h-1.187Zm-.337-.93L469.918,84.4l-2.213,6.061Z" transform="translate(-295.286 -52.678)" fill="#fff"/>
        </g>
      </g>
    </g>
  </g>
</svg>
